<svg width="163" height="163" viewBox="0 0 163 163" fill="none" xmlns="http://www.w3.org/2000/svg">
<g clip-path="url(#clip0_182_27)">
<path d="M81.32 162.64C126.232 162.64 162.64 126.232 162.64 81.32C162.64 36.4082 126.232 0 81.32 0C36.4082 0 0 36.4082 0 81.32C0 126.232 36.4082 162.64 81.32 162.64Z" fill="#E5FAF5"/>
<path d="M63.5701 106.19C82.8725 106.19 98.5201 90.5424 98.5201 71.24C98.5201 51.9377 82.8725 36.29 63.5701 36.29C44.2678 36.29 28.6201 51.9377 28.6201 71.24C28.6201 90.5424 44.2678 106.19 63.5701 106.19Z" fill="#03DAC5"/>
<path d="M63.57 50.4301V71.2401H42.78" stroke="white" stroke-width="5.5" stroke-linecap="round" stroke-linejoin="round"/>
<path d="M129 120.07C134.44 85.78 109.89 70.51 109.89 70.51C112.149 63.8501 114.858 57.3518 118 51.06C98.29 41.87 85.76 51.06 85.76 51.06C88.8784 57.3677 91.6003 63.8636 93.91 70.51C93.91 70.51 69.38 85.76 74.79 120C75.0265 121.474 75.7826 122.814 76.9216 123.779C78.0606 124.744 79.5074 125.269 81 125.26H122.88C124.35 125.263 125.774 124.742 126.895 123.791C128.016 122.84 128.763 121.521 129 120.07Z" fill="#01A299"/>
<path d="M109 92C108.705 91.7433 108.39 91.5093 108.06 91.3C107.539 90.9719 106.99 90.6907 106.42 90.46C105.737 90.1843 105.039 89.9473 104.33 89.75C103.58 89.5478 102.807 89.4436 102.03 89.44C100.945 89.3679 99.8643 89.6371 98.9399 90.21C98.6096 90.4588 98.3457 90.7851 98.1713 91.16C97.9969 91.535 97.9174 91.9471 97.9399 92.36C97.9215 92.66 97.9653 92.9605 98.0685 93.2427C98.1718 93.5249 98.3323 93.7828 98.5399 94C99.1265 94.4872 99.8074 94.8481 100.54 95.06C101.42 95.35 102.54 95.66 103.83 96C105.354 96.3569 106.838 96.8661 108.26 97.52C109.407 98.0322 110.4 98.8354 111.14 99.85C111.859 100.99 112.208 102.324 112.14 103.67C112.173 104.898 111.909 106.116 111.37 107.22C110.882 108.184 110.156 109.006 109.26 109.61C108.321 110.234 107.278 110.685 106.18 110.94C104.991 111.223 103.772 111.364 102.55 111.36C101.243 111.36 99.9395 111.226 98.6599 110.96C97.3852 110.7 96.1392 110.314 94.9399 109.81C93.7929 109.326 92.7002 108.723 91.6799 108.01L93.8999 103.67C94.2627 103.989 94.6544 104.274 95.0699 104.52C95.7102 104.921 96.3786 105.275 97.0699 105.58C97.9161 105.951 98.7927 106.249 99.6899 106.47C100.637 106.716 101.611 106.841 102.59 106.84C103.668 106.908 104.743 106.669 105.69 106.15C105.998 105.946 106.253 105.673 106.437 105.352C106.621 105.032 106.728 104.674 106.749 104.305C106.771 103.936 106.706 103.568 106.56 103.228C106.415 102.889 106.192 102.588 105.91 102.35C105.196 101.839 104.402 101.45 103.56 101.2C102.56 100.88 101.37 100.52 100.04 100.13C98.6139 99.756 97.23 99.2366 95.9099 98.58C94.9151 98.091 94.0717 97.341 93.4699 96.41C92.9061 95.4076 92.6293 94.2693 92.6699 93.12C92.6263 91.5296 93.0923 89.9668 93.9999 88.66C94.8599 87.4436 96.0452 86.494 97.4199 85.92C98.933 85.2866 100.56 84.9701 102.2 84.99C103.362 84.9816 104.521 85.1159 105.65 85.39C106.698 85.6465 107.719 86.0014 108.7 86.45C109.585 86.8576 110.437 87.3323 111.25 87.87L109 92ZM100.93 81.38H103.38V87.38L100.93 87.75V81.38ZM100.93 108.78H103.38V115.38H100.93V108.78ZM101.26 108.19V88.19L103.01 87.79V108.22L101.26 108.19Z" fill="white"/>
</g>
<defs>
<clipPath id="clip0_182_27">
<rect width="162.63" height="162.63" fill="white"/>
</clipPath>
</defs>
</svg>
