<svg width="163" height="163" viewBox="0 0 163 163" fill="none" xmlns="http://www.w3.org/2000/svg">
<g clip-path="url(#clip0_182_7)">
<path d="M81.32 162.64C126.232 162.64 162.64 126.232 162.64 81.32C162.64 36.4082 126.232 0 81.32 0C36.4082 0 0 36.4082 0 81.32C0 126.232 36.4082 162.64 81.32 162.64Z" fill="#E5FAF5"/>
<path d="M138.8 76.67H95.16C94.5801 76.67 94.11 77.1401 94.11 77.72V88.57C94.11 89.1499 94.5801 89.62 95.16 89.62H138.8C139.38 89.62 139.85 89.1499 139.85 88.57V77.72C139.85 77.1401 139.38 76.67 138.8 76.67Z" fill="#03DAC5"/>
<path d="M138.61 35.76H95.35C94.6652 35.76 94.11 36.3152 94.11 37V39.12C94.11 39.8048 94.6652 40.36 95.35 40.36H138.61C139.295 40.36 139.85 39.8048 139.85 39.12V37C139.85 36.3152 139.295 35.76 138.61 35.76Z" fill="#03DAC5"/>
<path d="M106.4 34.6999V43.6099C106.404 44.0085 106.545 44.3935 106.8 44.6999L110.8 49.5799C110.922 49.7268 111.075 49.845 111.248 49.9261C111.421 50.0072 111.609 50.0493 111.8 50.0493C111.991 50.0493 112.18 50.0072 112.352 49.9261C112.525 49.845 112.678 49.7268 112.8 49.5799L116.8 44.7199C117.068 44.4001 117.216 43.9971 117.22 43.5799V34.7199C117.194 34.3909 117.041 34.0851 116.792 33.8682C116.543 33.6513 116.219 33.5406 115.89 33.5599H107.73C107.403 33.5351 107.079 33.6412 106.829 33.8549C106.58 34.0686 106.426 34.3725 106.4 34.6999Z" fill="#01A299"/>
<path d="M130.74 50.92H103.23V76.67H130.74V50.92Z" fill="#01A299"/>
<path d="M85.35 44.9399C90.6176 49.0023 94.2057 54.8614 95.43 61.3999" stroke="#01A299" stroke-width="2.5" stroke-miterlimit="10" stroke-linecap="round"/>
<path d="M82 50.36C85.909 53.3666 88.5693 57.7114 89.47 62.56" stroke="#01A299" stroke-width="2.5" stroke-miterlimit="10" stroke-linecap="round"/>
<path d="M89.51 62.56C88.599 57.7055 85.9239 53.3598 82 50.36" stroke="#01A299" stroke-width="2.5" stroke-miterlimit="10" stroke-linecap="round"/>
<path d="M83.89 63.65C83.2933 60.3765 81.5137 57.4366 78.89 55.39" stroke="#01A299" stroke-width="2.5" stroke-miterlimit="10" stroke-linecap="round"/>
<path d="M70.69 46.66H32.7C30.5406 46.66 28.79 48.4106 28.79 50.57V129.66C28.79 131.819 30.5406 133.57 32.7 133.57H70.69C72.8495 133.57 74.6 131.819 74.6 129.66V50.57C74.6 48.4106 72.8495 46.66 70.69 46.66Z" fill="#03DAC5"/>
<path d="M72.44 53.46H30.95V126.77H72.44V53.46Z" fill="white"/>
<path d="M57.8199 49.99H45.5599C45.2175 49.99 44.9399 50.2676 44.9399 50.61C44.9399 50.9524 45.2175 51.23 45.5599 51.23H57.8199C58.1624 51.23 58.4399 50.9524 58.4399 50.61C58.4399 50.2676 58.1624 49.99 57.8199 49.99Z" fill="#E5FAF5"/>
</g>
<defs>
<clipPath id="clip0_182_7">
<rect width="162.63" height="162.63" fill="white"/>
</clipPath>
</defs>
</svg>
