<svg width="163" height="163" viewBox="0 0 163 163" fill="none" xmlns="http://www.w3.org/2000/svg">
<g clip-path="url(#clip0_182_20)">
<path d="M81.32 162.64C126.232 162.64 162.64 126.232 162.64 81.32C162.64 36.4082 126.232 0 81.32 0C36.4082 0 0 36.4082 0 81.32C0 126.232 36.4082 162.64 81.32 162.64Z" fill="#E5FAF5"/>
<path d="M77.55 31.2801L32.77 108.83C32.3901 109.492 32.1906 110.242 32.1917 111.006C32.1927 111.769 32.3941 112.519 32.7758 113.18C33.1574 113.841 33.706 114.39 34.3666 114.773C35.0272 115.156 35.7767 115.358 36.54 115.36H126.09C126.855 115.361 127.606 115.161 128.268 114.779C128.931 114.397 129.481 113.847 129.863 113.185C130.245 112.523 130.446 111.772 130.446 111.007C130.445 110.243 130.243 109.492 129.86 108.83L85.09 31.2801C84.7086 30.6175 84.1593 30.0671 83.4975 29.6844C82.8356 29.3017 82.0846 29.1002 81.32 29.1002C80.5555 29.1002 79.8045 29.3017 79.1426 29.6844C78.4808 30.0671 77.9315 30.6175 77.55 31.2801V31.2801Z" fill="#01A299"/>
<path d="M70.32 71.4301C70.32 71.4301 51.32 94.8301 78.88 106.79C78.88 106.79 72.94 103.4 77.22 92.5601C81.5 81.7201 81.68 77.5601 80.96 75.5001C80.24 73.4401 94.92 92.0001 87.73 106C87.73 106 105.23 97.0801 95.99 74.6001C95.9649 76.9049 95.2163 79.1436 93.85 81.0001C92.8787 77.4834 91.1747 74.2119 88.85 71.4001C85.15 67.2201 85.35 59.6501 86.85 55.8101C86.85 55.8101 74.99 58.8101 72.26 76.7101C72.26 76.7401 70.32 75.1601 70.32 71.4301Z" fill="#F6F7F9"/>
<path d="M81.4399 38.41C82.5666 38.41 83.4799 37.4966 83.4799 36.37C83.4799 35.2433 82.5666 34.33 81.4399 34.33C80.3132 34.33 79.3999 35.2433 79.3999 36.37C79.3999 37.4966 80.3132 38.41 81.4399 38.41Z" fill="#03DAC5"/>
<path d="M124.34 112.51C125.467 112.51 126.38 111.597 126.38 110.47C126.38 109.343 125.467 108.43 124.34 108.43C123.213 108.43 122.3 109.343 122.3 110.47C122.3 111.597 123.213 112.51 124.34 112.51Z" fill="#03DAC5"/>
<path d="M37.6099 112.51C38.7366 112.51 39.6499 111.597 39.6499 110.47C39.6499 109.343 38.7366 108.43 37.6099 108.43C36.4833 108.43 35.5699 109.343 35.5699 110.47C35.5699 111.597 36.4833 112.51 37.6099 112.51Z" fill="#03DAC5"/>
</g>
<defs>
<clipPath id="clip0_182_20">
<rect width="162.63" height="162.63" fill="white"/>
</clipPath>
</defs>
</svg>
