<?xml version="1.0"?>
<svg xmlns="http://www.w3.org/2000/svg" xmlns:xlink="http://www.w3.org/1999/xlink" xmlns:svgjs="http://svgjs.com/svgjs" version="1.1" width="512" height="512" x="0" y="0" viewBox="0 0 511.993 511.993" style="enable-background:new 0 0 512 512" xml:space="preserve"><g>
<g xmlns="http://www.w3.org/2000/svg">
	<g>
		<path d="M487.292,235.408H20.59c-11.372,0-20.59,9.224-20.59,20.59c0,11.366,9.217,20.59,20.59,20.59h466.702    c11.372,0,20.59-9.217,20.59-20.59C507.882,244.625,498.665,235.408,487.292,235.408z" fill="#9965f4" data-original="#000000" style=""/>
	</g>
</g>
<g xmlns="http://www.w3.org/2000/svg">
	<g>
		<path d="M505.96,241.434L304.187,39.653c-8.044-8.037-21.07-8.037-29.114,0c-8.044,8.044-8.044,21.084,0,29.121l187.216,187.223    L275.073,443.221c-8.044,8.037-8.044,21.077,0,29.114c4.022,4.022,9.286,6.033,14.557,6.033s10.535-2.011,14.557-6.033    l201.773-201.78C514.004,262.511,514.004,249.47,505.96,241.434z" fill="#9965f4" data-original="#000000" style=""/>
	</g>
</g>
<g xmlns="http://www.w3.org/2000/svg">
</g>
<g xmlns="http://www.w3.org/2000/svg">
</g>
<g xmlns="http://www.w3.org/2000/svg">
</g>
<g xmlns="http://www.w3.org/2000/svg">
</g>
<g xmlns="http://www.w3.org/2000/svg">
</g>
<g xmlns="http://www.w3.org/2000/svg">
</g>
<g xmlns="http://www.w3.org/2000/svg">
</g>
<g xmlns="http://www.w3.org/2000/svg">
</g>
<g xmlns="http://www.w3.org/2000/svg">
</g>
<g xmlns="http://www.w3.org/2000/svg">
</g>
<g xmlns="http://www.w3.org/2000/svg">
</g>
<g xmlns="http://www.w3.org/2000/svg">
</g>
<g xmlns="http://www.w3.org/2000/svg">
</g>
<g xmlns="http://www.w3.org/2000/svg">
</g>
<g xmlns="http://www.w3.org/2000/svg">
</g>
</g></svg>
