<?xml version="1.0" encoding="UTF-8"?> <svg width="114px" height="103px" viewBox="0 0 114 103" version="1.1" xmlns="http://www.w3.org/2000/svg" xmlns:xlink="http://www.w3.org/1999/xlink"> <g id="Page-1" stroke="none" stroke-width="1" fill="none" fill-rule="evenodd"> <g id="Artboard-1" transform="translate(-273.000000, -146.000000)" fill="#FFFFFF"> <g id="Group-6" transform="translate(273.000000, 146.658000)"> <path d="M51.6963,3.9589 C25.6263,3.9589 4.4163,25.1679 4.4163,51.2389 C4.4163,77.3089 25.6263,98.5189 51.6963,98.5189 C77.7663,98.5189 98.9753,77.3089 98.9753,51.2389 C98.9753,25.1679 77.7663,3.9589 51.6963,3.9589 M51.6963,102.2299 C23.5793,102.2299 0.7053,79.3549 0.7053,51.2389 C0.7053,23.1219 23.5793,0.2479 51.6963,0.2479 C79.8123,0.2479 102.6863,23.1219 102.6863,51.2389 C102.6863,79.3549 79.8123,102.2299 51.6963,102.2299" id="Fill-2"></path> <polygon id="Fill-4" points="50.084 66.6283 28.321 44.8653 30.945 42.2413 50.084 61.3803 110.674 0.7913 113.297 3.4153"></polygon> </g> </g> </g> </svg>