<?xml version="1.0" encoding="UTF-8"?>
<svg width="122px" height="95px" viewBox="0 0 122 95" version="1.1" xmlns="http://www.w3.org/2000/svg" xmlns:xlink="http://www.w3.org/1999/xlink">
    <!-- Generator: Sketch 64 (93537) - https://sketch.com -->
    <title>Stroke 496</title>
    <desc>Created with Sketch.</desc>
    <g id="Page-1" stroke="none" stroke-width="1" fill="none" fill-rule="evenodd">
        <g id="Artboard-5" transform="translate(-663.000000, -515.000000)" stroke="#FFFFFF" stroke-width="5">
            <g id="Group-500" transform="translate(333.000000, 517.000000)">
                <path d="M448.783,12.7437 L448.783,48.8897 C448.783,55.3437 443.55,60.5757 437.092,60.5757 L401.051,60.5757 L401.051,80.0467 L414.351,80.0467 C416.154,80.0467 417.616,81.5087 417.616,83.3107 L417.616,86.8127 C417.616,88.6157 416.154,90.0777 414.351,90.0777 L367.158,90.0777 C365.355,90.0777 363.893,88.6157 363.893,86.8127 L363.893,83.3107 C363.893,81.5087 365.355,80.0467 367.158,80.0467 L380.459,80.0467 L380.459,60.5757 L344.418,60.5757 C337.96,60.5757 332.726,55.3437 332.726,48.8897 L332.726,12.7437 C332.726,6.2857 337.96,1.0527 344.418,1.0527 L437.092,1.0527 C443.55,1.0527 448.783,6.2857 448.783,12.7437 Z" id="Stroke-496"></path>
            </g>
        </g>
    </g>
</svg>