<?xml version="1.0" encoding="UTF-8"?>
<svg width="128px" height="31px" viewBox="0 0 128 31" version="1.1" xmlns="http://www.w3.org/2000/svg" xmlns:xlink="http://www.w3.org/1999/xlink">
    <!-- Generator: Sketch 64 (93537) - https://sketch.com -->
    <title>Group 2</title>
    <desc>Created with Sketch.</desc>
    <g id="Page-1" stroke="none" stroke-width="1" fill="none" fill-rule="evenodd">
        <g id="Artboard-3" transform="translate(-628.000000, -689.000000)" fill="#FFFFFF">
            <g id="Group-2" transform="translate(628.441541, 689.482443)">
                <path d="M0.66175901,28.0920566 C0.29675901,27.8820566 0.23275901,27.5360566 0.24375901,27.1580566 C-0.0772409896,22.3240566 0.18275901,17.4860566 0.10375901,12.6490566 C0.0837590104,11.3770566 0.10375901,10.1060566 0.10075901,8.83305655 C0.0997590104,7.97405655 0.50375901,7.93005655 1.12275901,8.31505655 C1.38175901,8.47505655 1.58375901,8.70405655 1.78775901,8.92905655 C4.51675901,11.9370566 7.46475901,14.7290566 10.358759,17.5710566 C10.935759,18.3180566 10.372759,18.8190566 9.93775901,19.3020566 C9.16575901,20.1610566 8.31775901,20.9500566 7.50875901,21.7750566 C5.76875901,23.4340566 4.10475901,25.1700566 2.38775901,26.8530566 C1.87775901,27.3520566 1.43775901,27.9590566 0.66175901,28.0920566" id="Fill-320"></path>
                <path d="M10.658859,18.0178566 C9.82885901,18.0028566 9.36985901,17.3938566 8.87185901,16.8738566 C6.14685901,14.0288566 3.13185901,11.4668566 0.24385901,8.40685655 L0.24385901,27.1588566 C-0.0591409896,26.7278566 0.00585901039,26.2328566 0.00585901039,25.7528566 C0.00785901039,18.2428566 0.0108590104,10.7328566 0.0198590104,3.22285655 C0.0208590104,2.44185655 -0.0301409896,1.63485655 0.59385901,1.00985655 C2.42285901,1.44785655 3.15485901,3.21585655 4.51185901,4.22685655 C7.30685901,7.07985655 10.166859,9.86985655 12.971859,12.7128566 C13.512859,13.2618566 14.209859,13.7198566 14.291859,14.5988566 C13.348859,16.0228566 12.305859,17.3398566 10.658859,18.0178566" id="Fill-321"></path>
                <path d="M45.215459,17.8088566 C45.276459,17.8078566 45.336459,17.8078566 45.398459,17.8078566 C48.879459,17.8078566 49.262459,18.3178566 48.080459,21.6418566 C47.171459,24.1948566 45.203459,25.4808566 42.587459,25.7448566 C39.468459,26.0598566 36.979459,24.8488566 35.309459,22.2148566 C33.511459,19.3808566 34.037459,15.6908566 36.421459,13.3728566 C38.757459,11.1008566 42.668459,10.5548566 45.328459,12.2318566 C45.768459,12.5078566 47.042459,12.5638566 46.285459,13.6868566 C45.764459,14.4598566 45.249459,14.6548566 44.244459,14.0578566 C41.675459,12.5338566 38.622459,13.4668566 37.210459,15.9858566 C35.797459,18.5058566 36.668459,21.6008566 39.199459,23.0588566 C41.494459,24.3808566 44.731459,23.6098566 45.917459,21.4428566 C46.445459,20.4768566 46.613459,19.7088566 45.029459,19.8738566 C44.248459,19.9558566 43.450459,19.8558566 42.662459,19.8978566 C41.885459,19.9388566 41.607459,19.6508566 41.605459,18.8518566 C41.602459,18.0478566 41.897459,17.7688566 42.664459,17.8008566 C43.514459,17.8358566 44.364459,17.8088566 45.215459,17.8088566" id="Fill-322"></path>
                <path d="M14.218459,14.5461566 L4.29245901,4.46515655 C4.09345901,3.11515655 5.05945901,2.89215655 6.02945901,2.67315655 C9.62845901,4.63415655 13.232459,6.58915655 16.826459,8.56215655 C17.568459,8.96815655 18.275459,9.43915655 18.997459,9.87915655 C18.959459,11.2991566 17.673459,11.8141566 16.906459,12.6871566 C16.234459,13.4531566 15.566459,14.2681566 14.623459,14.7561566 C14.432459,14.7961566 14.299459,14.7201566 14.218459,14.5461566" id="Fill-323"></path>
                <path d="M14.488959,14.5441566 C15.991959,12.9891566 17.494959,11.4351566 18.997959,9.87915655 C20.788959,10.8631566 22.614959,11.7911566 24.360959,12.8491566 C26.051959,13.8731566 26.048959,15.1501566 24.347959,16.1671566 C22.594959,17.2151566 20.759959,18.1261566 18.960959,19.0981566 C17.112959,17.9301566 15.542959,16.4901566 14.488959,14.5441566" id="Fill-324"></path>
                <path d="M14.488959,14.5441566 C15.978959,16.0631566 17.468959,17.5801566 18.959959,19.0981566 C16.016959,20.9541566 12.974959,22.6361566 9.88695901,24.2381566 C8.56495901,23.8421566 7.32295901,23.3631566 7.23595901,21.6861566 C8.37695901,20.4631566 9.51795901,19.2401566 10.658959,18.0181566 C11.844959,16.8611566 13.031959,15.7041566 14.217959,14.5471566 C14.307959,14.5631566 14.398959,14.5621566 14.488959,14.5441566" id="Fill-325"></path>
                <path d="M122.858059,22.5041566 C123.544059,20.7981566 124.140059,19.2931566 124.755059,17.7961566 C124.932059,17.3651566 124.988059,16.7521566 125.542059,16.6801566 C126.123059,16.6051566 126.863059,16.5342855 127.288059,16.8231566 C127.739059,17.1301566 127.150059,17.6821566 126.973059,18.0951566 C125.547059,21.4311566 124.037059,24.7321566 122.676059,28.0931566 C122.120059,29.4711566 121.355059,30.0081566 119.929059,29.4941566 C119.917059,29.4101566 119.843059,29.2621566 119.889059,29.1951566 C121.894059,26.2761566 121.722059,23.4071566 119.791059,20.5191566 C119.361059,19.8761566 119.083059,19.1071566 118.861059,18.3581566 C118.702059,17.8191566 117.797059,17.0961566 118.634059,16.7271566 C119.459059,16.3641566 120.495059,16.4161566 120.919059,17.7441566 C121.411059,19.2871566 122.133059,20.7561566 122.858059,22.5041566" id="Fill-326"></path>
                <path d="M82.140259,18.5246566 C82.140259,20.4686566 82.117259,22.4146566 82.151259,24.3586566 C82.165259,25.1466566 82.038259,25.5926566 81.075259,25.5786566 C80.188259,25.5656566 79.929259,25.2656566 79.936259,24.4096566 C79.970259,20.5806566 79.966259,16.7526566 79.938259,12.9226566 C79.932259,12.1186566 80.089259,11.7106566 81.028259,11.7116547 C81.921259,11.7126566 82.176259,12.0206566 82.155259,12.8736566 C82.106259,14.7556566 82.139259,16.6406566 82.140259,18.5246566" id="Fill-327"></path>
                <path d="M108.902059,18.6945566 C108.902059,20.5755566 108.885059,22.4565566 108.910059,24.3375566 C108.920059,25.0975566 108.826059,25.5825566 107.845059,25.5785811 C106.887059,25.5755566 106.595059,25.2715566 106.606059,24.3195566 C106.653059,20.4985566 106.649059,16.6745566 106.610059,12.8525566 C106.601059,11.9575566 106.931059,11.7275566 107.778059,11.7145566 C108.668059,11.6995566 108.935059,12.0175566 108.916059,12.8705566 C108.871059,14.8105566 108.902059,16.7535566 108.902059,18.6945566" id="Fill-328"></path>
                <path d="M7.23605901,21.6857566 C7.79205901,22.8767566 9.09105901,23.2967566 9.88705901,24.2387566 C7.58705901,25.5607566 5.28905901,26.8907566 2.98105901,28.2017566 C2.20005901,28.6437566 1.40105901,28.8457566 0.66205901,28.0917566 C2.85305901,25.9567566 5.04505901,23.8217566 7.23605901,21.6857566" id="Fill-329"></path>
                <path d="M40.361959,4.57445655 C39.659959,3.89445655 38.031959,5.05845655 38.191959,3.65545655 C38.297959,2.73745655 39.764959,3.28745655 40.603959,3.25845655 C41.608959,3.22245655 41.872959,4.37345655 41.184959,5.55745655 C40.379959,6.94345655 38.666959,7.55145655 37.061959,7.01745655 C35.402959,6.46845655 34.457959,4.98445655 34.633959,3.21245655 C34.795959,1.59245655 36.101959,0.231456554 37.694959,0.101456554 C38.229959,0.0584565541 38.814959,0.0734565541 39.308959,0.250456554 C39.823959,0.434456554 40.744959,0.595456554 40.486959,1.34745655 C40.126959,2.39745655 39.541959,1.41445655 39.062959,1.28345655 C37.610959,0.886456554 36.534959,1.36645655 35.923959,2.71545655 C35.314959,4.05845655 35.915959,5.11045655 37.034959,5.81545655 C38.182959,6.53845655 39.397959,6.04045655 40.361959,4.57445655" id="Fill-330"></path>
                <path d="M73.269259,2.67895655 C73.269259,3.76895655 73.282259,4.85895655 73.263259,5.94895655 C73.255259,6.39595655 73.428259,7.01895655 72.638259,6.97495655 C71.980259,6.93795655 72.158259,6.38495655 72.153259,6.00695655 C72.132259,4.42995655 72.131259,2.85195655 72.151259,1.27595655 C72.156259,0.889956554 71.968259,0.369956554 72.556259,0.212956554 C73.093259,0.0709565541 73.457259,0.292956554 73.753259,0.778956554 C74.471259,1.95595655 75.239259,3.10395655 76.319259,4.25195655 C76.319259,3.21695655 76.320259,2.18095655 76.319259,1.14595655 C76.319259,0.707956554 76.323259,0.222956554 76.897259,0.196956554 C77.526259,0.167956554 77.471259,0.698956554 77.474259,1.10895655 C77.485259,2.56495655 77.506259,4.02195655 77.461259,5.47595655 C77.446259,5.97095655 77.784259,6.68195655 77.126259,6.92495655 C76.266259,7.24395655 76.027259,6.42095655 75.680259,5.88295655 C74.971259,4.78295655 74.274259,3.67395655 73.572259,2.56995655 C73.471259,2.60595655 73.370259,2.64295655 73.269259,2.67895655" id="Fill-331"></path>
                <path d="M42.297559,3.47875655 L42.297559,2.93475655 C42.297559,-0.0672434459 42.510559,-0.235243446 45.604559,0.150756554 C46.071559,0.208756554 46.479559,0.248756554 46.447559,0.820756554 C46.420559,1.33275655 45.975559,1.25775655 45.629559,1.29175655 C45.569559,1.29775655 45.497559,1.27275655 45.449559,1.29675655 C44.783559,1.63675655 43.447559,0.483756554 43.397559,2.14575655 C43.344559,3.85075655 44.700559,2.77575655 45.376559,3.03875655 C45.705559,3.16675655 46.151559,3.09875655 46.171559,3.57375655 C46.201559,4.26275655 45.639559,4.06675655 45.258559,4.08775655 C44.835559,4.11175655 44.410559,4.10375655 43.986559,4.09175655 C43.156559,4.06975655 43.420559,4.69175655 43.388559,5.11875655 C43.356559,5.54475655 43.323559,5.99875655 43.991559,5.95675655 C44.414559,5.92875655 44.841559,5.92775655 45.262559,5.95775655 C45.703559,5.99075655 46.372559,5.73375655 46.426559,6.44575655 C46.485559,7.24175655 45.777559,6.96675655 45.359559,6.99075655 C42.297559,7.16175655 42.297559,7.15475655 42.297559,3.47875655" id="Fill-332"></path>
                <path d="M49.689159,0.144756554 C50.052159,0.144756554 50.416159,0.127756554 50.778159,0.148756554 C51.231159,0.174756554 51.851159,-0.0362434459 51.970159,0.637756554 C52.109159,1.42175655 51.444159,1.32275655 51.003159,1.29775655 C50.173159,1.25175655 50.166159,1.77075655 50.169159,2.34875655 C50.175159,3.43675655 50.212159,4.52775655 50.154159,5.61275655 C50.126159,6.12375655 50.518159,7.02675655 49.514159,6.97275655 C48.567159,6.92075655 49.001159,6.04875655 48.960159,5.53175655 C48.892159,4.68975655 48.945159,3.83975655 48.941159,2.99375655 C48.936159,2.11975655 49.213159,1.04975655 47.670159,1.28375655 C47.392159,1.32675655 47.081159,1.12575655 47.112159,0.733756554 C47.139159,0.384756554 47.349159,0.177756554 47.694159,0.168756554 C48.358159,0.152756554 49.024159,0.164756554 49.689159,0.164756554 L49.689159,0.144756554 Z" id="Fill-333"></path>
                <path d="M61.714559,0.816656554 C61.693559,1.10365655 61.510559,1.28965655 61.253559,1.25865655 C59.468559,1.04565655 59.930559,2.33465655 59.903559,3.27165655 C59.877559,4.24265655 59.902559,5.21365655 59.891559,6.18465655 C59.887559,6.53765655 59.927559,6.94265655 59.404559,6.98465655 C58.787559,7.03365655 58.740559,6.61765655 58.741559,6.16165655 C58.743559,5.12865655 58.746559,4.09765655 58.738559,3.06665655 C58.732559,2.14065655 59.037559,0.983656554 57.389559,1.25565655 C57.166559,1.29265655 56.927559,1.13265655 56.911559,0.826656554 C56.899559,0.564656554 56.981559,0.263656554 57.232559,0.256656554 C58.618559,0.220656554 60.007559,0.217656554 61.395559,0.248656554 C61.650559,0.254656554 61.731559,0.553656554 61.714559,0.816656554" id="Fill-334"></path>
                <path d="M6.02895901,2.67305655 C5.60495901,3.42005655 4.52995901,3.53705655 4.29295901,4.46505655 C3.05895901,3.31405655 1.82595901,2.16205655 0.59295901,1.01105655 C1.11095901,0.129056554 1.92595901,0.256056554 2.60895901,0.598056554 C3.79895901,1.19405655 5.07895901,1.67305655 6.02895901,2.67305655" id="Fill-335"></path>
                <path d="M56.103159,3.61055655 C56.103159,4.45155655 56.103159,5.29255655 56.102159,6.13355655 C56.102159,6.56755655 56.107159,7.01555655 55.479159,6.97755655 C54.958159,6.94555655 54.999159,6.53255655 54.997159,6.18955655 C54.986159,4.50655655 54.983159,2.82455655 54.997159,1.14255655 C54.999159,0.749556554 54.899159,0.232556554 55.527159,0.199556554 C56.188159,0.165556554 56.091159,0.686556554 56.098159,1.08755655 C56.114159,1.92755655 56.103159,2.76855655 56.103159,3.61055655" id="Fill-336"></path>
                <path d="M74.387359,23.8283566 C72.975359,23.8623566 71.796359,22.6523566 71.780359,21.1523566 C71.763359,19.6343566 72.880359,18.3763566 74.274359,18.3453566 C75.593359,18.3163566 76.669359,19.4593566 76.727359,20.9513566 C76.790359,22.5853566 75.807359,23.7943566 74.387359,23.8283566 M78.724359,18.9753566 C78.728359,16.8323566 78.726359,16.8403566 76.464359,17.0973566 C76.281359,17.1173566 76.078359,16.9143566 75.877359,16.8363566 C73.692359,15.9993566 71.667359,16.5803566 70.446359,18.3903566 C69.219359,20.2083566 69.374359,22.6593566 70.820359,24.2713566 C72.318359,25.9433566 74.262359,26.2093566 76.493359,24.9693566 C76.771359,26.3463566 76.360359,27.2863566 75.233359,27.8073566 C74.103359,28.3283566 73.033359,28.0633566 72.329359,27.0563566 C71.610359,26.0243566 70.887359,26.6103566 70.366359,27.0473566 C69.631359,27.6613566 70.502359,28.0953566 70.833359,28.4723566 C72.188359,30.0123566 73.926359,30.3153566 75.811359,29.7303566 C77.840359,29.0993566 78.589359,27.4613566 78.681359,25.5273566 C78.784359,23.3483566 78.720359,21.1603566 78.724359,18.9753566" id="Fill-337"></path>
                <path d="M100.185259,18.3635566 C98.055259,18.5905566 98.306259,17.3485566 98.397259,16.0595566 C98.306259,14.7845566 98.048259,13.5605566 100.173259,13.7665566 C102.522259,13.9955566 103.583259,14.5355566 103.517259,16.1175566 C103.455259,17.5975566 102.354259,18.1345566 100.185259,18.3635566 M101.331259,11.7555566 C99.997259,11.7025566 98.656259,11.7925566 97.322259,11.7255566 C96.376259,11.6775566 96.028259,11.9915566 96.059259,12.9575566 C96.119259,14.8385566 96.077259,16.7215566 96.076259,18.6045566 C96.076259,20.3665566 96.068259,22.1285566 96.080259,23.8885566 C96.084259,24.6885566 95.772259,25.5895566 97.225259,25.586564 C98.682259,25.5845566 98.351259,24.6745566 98.370259,23.8805566 C98.394259,22.8485566 98.049259,21.6275566 98.488259,20.8305566 C99.076259,19.7605566 100.462259,20.5115566 101.492259,20.3855566 C103.933259,20.0875566 105.791259,18.2085566 105.751259,15.9635566 C105.710259,13.7235566 103.775259,11.8515566 101.331259,11.7555566" id="Fill-338"></path>
                <path d="M113.644259,23.8469566 C112.906259,23.7649566 112.012259,23.6109566 112.087259,22.7149566 C112.191259,21.4809566 113.291259,21.3439566 114.290259,21.3819566 C114.889259,21.4059566 115.919259,21.2649566 115.855259,22.0749566 C115.766259,23.1939566 114.811259,23.7639566 113.644259,23.8469566 M118.146259,20.3889566 C118.113259,18.7369566 117.475259,17.4479566 115.889259,16.7669566 C114.193259,16.0379566 112.562259,16.1649566 111.086259,17.2969566 C110.708259,17.5869566 109.975259,18.0479566 110.438259,18.5359566 C110.831259,18.9509566 111.552259,19.6149566 112.313259,18.9499566 C112.804259,18.5199566 113.350259,18.2949566 113.972259,18.3479566 C114.700259,18.4099566 115.707259,18.5639566 115.636259,19.3829566 C115.562259,20.2399566 114.703259,19.5559566 114.192259,19.5809566 C112.574259,19.6599566 111.010259,19.8769566 110.188259,21.5419566 C109.612259,22.7079566 109.809259,23.8349566 110.734259,24.7109566 C112.003259,25.9129566 113.477259,26.1239566 115.089259,25.3419566 C115.342259,25.2199566 115.513259,24.9009566 115.981259,25.0689566 C118.131259,25.8409566 118.143259,25.8089566 118.149259,23.6699566 C118.150259,23.1849566 118.149259,22.6989566 118.149259,22.2119566 C118.148259,21.6049566 118.159259,20.9959566 118.146259,20.3889566" id="Fill-339"></path>
                <path d="M64.154959,23.8352566 C62.720959,23.8522566 61.593959,22.6662566 61.572959,21.1222566 C61.551959,19.5622566 62.635959,18.3632566 64.081959,18.3492566 C65.504959,18.3342566 66.701959,19.5642566 66.717959,21.0562566 C66.733959,22.5642566 65.577959,23.8182566 64.154959,23.8352566 M64.156959,16.3932103 C61.415959,16.3822566 59.435959,18.3322566 59.4269277,21.0522566 C59.417959,23.7942566 61.348959,25.7572566 64.084959,25.7862566 C66.780959,25.8142566 68.847959,23.8012566 68.866959,21.1262566 C68.884959,18.4462566 66.852959,16.4032566 64.156959,16.3932103" id="Fill-340"></path>
                <path d="M53.796559,23.8400566 C52.372559,23.7980566 51.333559,22.5860566 51.369559,21.0070566 C51.404559,19.4400566 52.521559,18.3010566 53.973559,18.3520566 C55.360559,18.4010566 56.517559,19.7110566 56.467559,21.1820566 C56.417559,22.6720566 55.202559,23.8810566 53.796559,23.8400566 M53.820559,16.3920566 C51.098559,16.4140566 49.141559,18.4080566 49.162559,21.1410566 C49.182559,23.8440566 51.200559,25.8120566 53.931559,25.7900566 C56.575559,25.7690566 58.692559,23.6440566 58.666559,21.0380566 C58.639559,18.4260566 56.495559,16.3700566 53.820559,16.3920566" id="Fill-341"></path>
                <path d="M88.368859,18.4582566 C88.621859,18.5652566 88.980859,18.6102566 89.015859,18.9812566 C89.055859,19.3912566 88.684859,19.4242566 88.429859,19.5322566 C87.440859,19.9492566 86.445859,20.3522566 85.255859,20.8412566 C85.685859,18.7892566 86.979859,17.8682566 88.368859,18.4582566 M91.246859,23.3982566 C90.763859,22.9442566 90.265859,22.2862566 89.443859,23.1632566 C88.601859,24.0612566 87.489859,24.0322566 86.411859,23.4922566 C86.076859,23.3252566 85.792859,23.0432566 85.782859,22.6662566 C85.772859,22.2822566 86.194859,22.2952566 86.448859,22.1862566 C87.506859,21.7292566 88.573859,21.2942566 89.637859,20.8532566 C91.993859,19.8752566 92.110859,18.8322566 90.017859,17.2212566 C89.278859,16.6522566 88.428859,16.3432566 87.473859,16.3912566 C85.488859,16.4042566 83.779859,17.6772566 83.249859,19.5352566 C82.651859,21.6262566 83.432859,23.9572566 85.094859,25.0392566 C86.794859,26.1462566 89.208859,26.0552566 90.701859,24.7322566 C91.038859,24.4352566 92.069859,24.1712566 91.246859,23.3982566" id="Fill-342"></path>
                <path d="M67.854159,6.08815655 C66.441159,6.17315655 65.288159,5.07815655 65.2851562,3.65015655 C65.283159,2.31815655 66.343159,1.19715655 67.640159,1.16115655 C69.017159,1.12315655 70.000159,2.08415655 70.052159,3.51915655 C70.104159,4.95915655 69.207159,6.00815655 67.854159,6.08815655 M67.653159,0.0920941809 C65.603159,0.103156554 64.184159,1.57415655 64.199159,3.67515655 C64.213159,5.72215655 65.723159,7.23315655 67.732159,7.20915655 C69.750159,7.18615655 71.209159,5.66315655 71.2002004,3.59515655 C71.190159,1.52615655 69.727159,0.0811565541 67.653159,0.0920941809" id="Fill-343"></path>
            </g>
        </g>
    </g>
</svg>