<svg id="Layer_1" data-name="Layer 1" xmlns="http://www.w3.org/2000/svg" viewBox="0 0 162.63 162.63"><defs><style>.cls-1{fill:#e4e1f4;}.cls-2{fill:#b7a5ef;}.cls-3{fill:#8056e9;}.cls-4{fill:#fff;}.cls-5{fill:none;stroke:#8056e9;stroke-linecap:round;stroke-miterlimit:10;stroke-width:2.5px;}</style></defs><title>TSDBenefitIcons</title><circle class="cls-1" cx="81.32" cy="81.32" r="81.32"/><rect class="cls-2" x="73.25" y="88.09" width="64.81" height="16.57" rx="2.19"/><rect class="cls-2" x="73.25" y="35.74" width="64.81" height="5.89" rx="2.59"/><path class="cls-3" d="M94.2,34.38v11.4a2.14,2.14,0,0,0,.52,1.39l5.14,6.26a1.69,1.69,0,0,0,2.5,0l5.12-6.23a2.27,2.27,0,0,0,.54-1.45V34.4a1.61,1.61,0,0,0-1.7-1.49H95.88A1.59,1.59,0,0,0,94.2,34.38Z"/><rect class="cls-3" x="88.05" y="55.14" width="35.21" height="32.95"/><rect class="cls-2" x="27.46" y="66.94" width="32.41" height="64.27" rx="3.64"/><rect class="cls-4" x="29.94" y="72.78" width="27.44" height="52.58"/><path class="cls-5" d="M66.31,50.12a21.77,21.77,0,0,1,11,11"/><path class="cls-5" d="M64,55.25a16.11,16.11,0,0,1,8.13,8.13"/><path class="cls-5" d="M72.16,63.38A16.11,16.11,0,0,0,64,55.25"/><path class="cls-5" d="M67.42,65.49A11,11,0,0,0,61.91,60"/></svg>