<svg id="Layer_1" data-name="Layer 1" xmlns="http://www.w3.org/2000/svg" viewBox="0 0 162.63 162.63"><defs><style>.cls-1{fill:#e4e1f4;}.cls-2,.cls-3,.cls-4,.cls-6{fill:none;stroke-linecap:round;}.cls-2,.cls-3,.cls-4{stroke:#b7a5ef;stroke-miterlimit:10;stroke-width:4px;}.cls-3{stroke-dasharray:1.93 5.78;}.cls-4{stroke-dasharray:2.22 6.67;}.cls-5{fill:#8056e9;}.cls-6{stroke:#fff;stroke-linejoin:round;stroke-width:5px;}</style></defs><title>TSDBenefitIcons</title><circle class="cls-1" cx="81.32" cy="81.32" r="81.32"/><line class="cls-2" x1="42.73" y1="117.95" x2="43.73" y2="117.95"/><line class="cls-3" x1="49.51" y1="117.95" x2="116.02" y2="117.95"/><line class="cls-2" x1="118.91" y1="117.95" x2="119.91" y2="117.95"/><line class="cls-2" x1="81.32" y1="91.51" x2="81.32" y2="92.51"/><line class="cls-4" x1="81.32" y1="99.17" x2="81.32" y2="113.62"/><line class="cls-2" x1="81.32" y1="116.95" x2="81.32" y2="117.95"/><path class="cls-5" d="M80.26,23A119.7,119.7,0,0,1,53.51,34.34a2.1,2.1,0,0,0-1.52,2V59.83c0,10.88,7.33,31.33,28.7,38.06a2.05,2.05,0,0,0,1.25,0c21.38-6.73,28.71-27.18,28.71-38.06V36.36a2.1,2.1,0,0,0-1.52-2A119.7,119.7,0,0,1,82.38,23,2.11,2.11,0,0,0,80.26,23Z"/><polyline class="cls-6" points="66.77 59.47 77.62 70.32 97.15 51.07"/><circle class="cls-5" cx="42.73" cy="117.95" r="9.43"/><circle class="cls-5" cx="119.91" cy="117.95" r="9.43"/></svg>