<?xml version="1.0" encoding="UTF-8"?>
<svg width="386px" height="212px" viewBox="0 0 386 212" version="1.1" xmlns="http://www.w3.org/2000/svg" xmlns:xlink="http://www.w3.org/1999/xlink">
    <!-- Generator: Sketch 64 (93537) - https://sketch.com -->
    <title>Group</title>
    <desc>Created with Sketch.</desc>
    <g id="Page-1" stroke="none" stroke-width="1" fill="none" fill-rule="evenodd">
        <g id="Artboard-3" transform="translate(-210.000000, -639.000000)">
            <g id="Group" transform="translate(210.492200, 639.510200)">
                <path d="M345.99,74.3827 L345.99,210.6637 L-1.13686838e-13,210.6637 L-1.13686838e-13,74.3827 C-1.13686838e-13,47.4097 21.858,25.5417 48.831,25.5417 L297.158,25.5417 C324.122,25.5417 345.99,47.4097 345.99,74.3827" id="Fill-344" fill="#7561AF"></path>
                <path d="M384.6883,51.493 L384.6883,210.664 L19.9103,210.664 L19.9103,51.493 C19.9103,23.056 42.9563,0 71.3933,0 L333.2053,0 C361.6323,0 384.6883,23.056 384.6883,51.493" id="Fill-345" fill="#FFFFFF"></path>
                <path d="M354.2771,70.1161 L49.0481,70.1161 C46.5501,70.1161 44.5261,68.0921 44.5261,65.5941 L44.5261,30.0641 C44.5261,27.5661 46.5501,25.5421 49.0481,25.5421 L354.2771,25.5421 C356.7741,25.5421 358.7991,27.5661 358.7991,30.0641 L358.7991,65.5941 C358.7991,68.0921 356.7741,70.1161 354.2771,70.1161 Z" id="Stroke-346" stroke="#9965F4" stroke-width="2.035"></path>
                <polyline id="Stroke-347" stroke="#BABABA" stroke-width="2.035" points="67.6511 38.8514 58.5381 47.9644 67.3801 56.8064"></polyline>
                <line x1="74.7664" y1="47.8289" x2="58.5374" y2="47.8289" id="Stroke-348" stroke="#BABABA" stroke-width="2.035"></line>
                <polyline id="Stroke-349" stroke="#BABABA" stroke-width="2.035" points="346.243 38.8514 337.131 47.9644 345.972 56.8064"></polyline>
                <polyline id="Stroke-350" stroke="#BABABA" stroke-width="2.035" points="328.0174 56.8065 337.1304 47.6935 328.2884 38.8515"></polyline>
                <text id="the-spaghetti-detective" font-family="LucidaGrande, Lucida Grande" font-size="17.7922" font-weight="normal" fill="#282828">
                    <tspan x="108.5063" y="52.8898145">the s</tspan>
                    <tspan x="150.814901" y="52.8898145" letter-spacing="0.05159738">p</tspan>
                    <tspan x="162.064811" y="52.8898145">agh</tspan>
                    <tspan x="194.026483" y="52.8898145" letter-spacing="-0.0533766">e</tspan>
                    <tspan x="203.885655" y="52.8898145" letter-spacing="-0.088961">t</tspan>
                    <tspan x="210.451394" y="52.8898145">ti d</tspan>
                    <tspan x="239.077029" y="52.8898145" letter-spacing="-0.0533766">e</tspan>
                    <tspan x="248.936201" y="52.8898145" letter-spacing="0.0355844">t</tspan>
                    <tspan x="255.626485" y="52.8898145" letter-spacing="0.0177922">e</tspan>
                    <tspan x="265.556826" y="52.8898145" letter-spacing="0.1245454">c</tspan>
                    <tspan x="274.794662" y="52.8898145">ti</tspan>
                    <tspan x="286.592419" y="52.8898145" letter-spacing="-0.1245454">v</tspan>
                    <tspan x="295.676727" y="52.8898145">e</tspan>
                </text>
                <path d="M105.5906,194.8524 L105.5906,210.6644 L43.9426,210.6644 L43.9426,194.8524 C43.9426,188.2704 49.2746,182.9384 55.8576,182.9384 L93.6756,182.9384 C100.2586,182.9384 105.5906,188.2704 105.5906,194.8524" id="Fill-352" fill="#BABABA"></path>
                <path d="M93.6795,154.5516 L55.8535,154.5516 C49.2725,154.5516 43.9375,149.2166 43.9375,142.6366 L43.9375,104.8106 C43.9375,98.2296 49.2725,92.8946 55.8535,92.8946 L93.6795,92.8946 C100.2605,92.8946 105.5955,98.2296 105.5955,104.8106 L105.5955,142.6366 C105.5955,149.2166 100.2605,154.5516 93.6795,154.5516" id="Fill-354" fill="#9965F4"></path>
                <path d="M77.2,122.5155 C78.855,124.4725 81.812,123.9835 82.952,121.6215 C81.056,121.9165 79.132,122.2155 77.2,122.5155 M73.189,122.5135 C71.25,122.2145 69.322,121.9175 67.35,121.6155 C69.041,124.0795 71.538,124.4515 73.189,122.5135 M75.183,147.4205 C72.521,142.1495 68.644,138.1025 64.237,134.5015 C64.048,134.3465 64.024,133.9195 64.027,133.6205 C64.03,133.4125 64.21,133.2055 64.31,132.9975 C65.224,131.1115 65.232,131.1005 63.462,129.8635 C61.134,128.2365 58.49,127.3045 55.822,126.4295 C55.519,126.3305 55.218,126.2305 54.598,126.0265 C55.985,124.9375 57.149,123.9435 58.396,123.0685 C59.632,122.2025 60.952,121.4565 62.406,120.5525 C61.754,120.3815 61.241,120.2525 60.732,120.1125 C58.533,119.5035 56.351,118.8495 54.528,117.3925 C52.756,115.9755 52.743,114.2445 54.54,112.8665 C56.825,111.1145 59.553,110.4155 62.288,109.7795 C63.401,109.5215 64.535,109.3565 65.796,109.1235 C65.685,109.8315 65.66,110.4225 65.492,110.9695 C65.272,111.6865 65.523,111.9585 66.202,112.1455 C69.801,113.1335 73.469,113.5305 77.174,113.2185 C79.462,113.0265 81.723,112.5285 83.999,112.1785 C84.789,112.0575 85.17,111.7395 84.871,110.8655 C84.703,110.3745 84.689,109.8305 84.581,109.1495 C85.142,109.2375 85.652,109.2685 86.134,109.4015 C88.636,110.0925 91.153,110.7425 93.615,111.5565 C94.523,111.8565 95.377,112.4745 96.115,113.1105 C97.586,114.3765 97.519,116.0005 96.034,117.2535 C94.352,118.6725 92.313,119.3425 90.251,119.9505 C89.558,120.1545 88.853,120.3185 87.941,120.5555 C90.715,122.2125 93.402,123.7105 95.552,126.0105 C93.557,126.7825 91.616,127.4095 89.791,128.2785 C88.408,128.9365 87.166,129.8925 85.875,130.7385 C85.401,131.0485 85.3,131.4505 85.579,132.0095 C85.934,132.7245 86.519,133.5735 86.371,134.2195 C86.228,134.8445 85.269,135.2725 84.688,135.8085 C81.181,139.0395 77.941,142.4945 75.618,146.7105 C75.508,146.9115 75.379,147.1025 75.183,147.4205" id="Fill-356" fill="#FFFFFF"></path>
                <path d="M84.4597,109.0047 C78.2477,110.6767 72.1547,110.6467 65.9157,109.0257 C66.3217,106.8557 66.5717,104.7507 67.1697,102.7507 C67.3747,102.0657 68.3737,101.4607 69.1447,101.1277 C71.5847,100.0677 74.1987,99.8437 76.8107,100.1547 C78.4267,100.3477 80.0267,100.7957 81.5877,101.2827 C82.7237,101.6377 83.3697,102.4827 83.5207,103.7747 C83.7187,105.4697 84.1147,107.1427 84.4597,109.0047" id="Fill-358" fill="#FFFFFF"></path>
                <polygon id="Fill-360" fill="#9965F4" points="126.2127 94.8914 122.3277 94.8914 122.3277 106.4314 120.5887 106.4314 120.5887 94.8914 116.7027 94.8914 116.7027 93.2874 126.2127 93.2874"></polygon>
                <path d="M127.2,102.701 L128.939,102.701 C128.939,104.286 129.964,105.078 131.955,105.078 C133.868,105.078 134.835,104.364 134.835,102.972 C134.835,101.56 133.984,100.903 131.568,100.575 C128.553,100.169 127.431,99.144 127.431,96.883 C127.431,94.37 129.036,93.055 131.993,93.055 C134.892,93.055 136.361,94.331 136.361,96.902 L134.622,96.902 C134.622,95.376 133.752,94.641 131.935,94.641 C130.138,94.641 129.152,95.376 129.152,96.709 C129.152,98.023 129.964,98.641 132.186,98.931 C135.356,99.338 136.554,100.42 136.554,102.816 C136.554,105.389 135.009,106.663 131.935,106.663 C128.804,106.663 127.2,105.349 127.2,102.701" id="Fill-362" fill="#9965F4"></path>
                <path d="M146.8396,98.41 C146.8396,95.878 145.8536,94.873 143.3796,94.873 L140.8086,94.873 L140.8086,104.847 L143.3796,104.847 C145.8536,104.847 146.8396,103.841 146.8396,101.309 L146.8396,98.41 Z M148.5786,98.39 L148.5786,101.328 C148.5786,104.827 147.0326,106.431 143.5916,106.431 L139.0686,106.431 L139.0686,93.288 L143.5916,93.288 C147.0326,93.288 148.5786,94.891 148.5786,98.39 L148.5786,98.39 Z" id="Fill-364" fill="#9965F4"></path>
                <polygon id="Fill-366" fill="#9965F4" points="126.2127 118.0897 122.3277 118.0897 122.3277 129.6287 120.5887 129.6287 120.5887 118.0897 116.7027 118.0897 116.7027 116.4857 126.2127 116.4857"></polygon>
                <path d="M127.2,125.8993 L128.939,125.8993 C128.939,127.4843 129.964,128.2763 131.955,128.2763 C133.868,128.2763 134.835,127.5613 134.835,126.1703 C134.835,124.7583 133.984,124.1003 131.568,123.7733 C128.553,123.3663 127.431,122.3413 127.431,120.0813 C127.431,117.5683 129.036,116.2533 131.993,116.2533 C134.892,116.2533 136.361,117.5293 136.361,120.1003 L134.622,120.1003 C134.622,118.5733 133.752,117.8383 131.935,117.8383 C130.138,117.8383 129.152,118.5733 129.152,119.9073 C129.152,121.2213 129.964,121.8393 132.186,122.1293 C135.356,122.5363 136.554,123.6183 136.554,126.0143 C136.554,128.5863 135.009,129.8603 131.935,129.8603 C128.804,129.8603 127.2,128.5463 127.2,125.8993" id="Fill-368" fill="#9965F4"></path>
                <path d="M146.8396,121.6073 C146.8396,119.0763 145.8536,118.0703 143.3796,118.0703 L140.8086,118.0703 L140.8086,128.0443 L143.3796,128.0443 C145.8536,128.0443 146.8396,127.0393 146.8396,124.5063 L146.8396,121.6073 Z M148.5786,121.5883 L148.5786,124.5263 C148.5786,128.0243 147.0326,129.6283 143.5916,129.6283 L139.0686,129.6283 L139.0686,116.4863 L143.5916,116.4863 C147.0326,116.4863 148.5786,118.0893 148.5786,121.5883 L148.5786,121.5883 Z" id="Fill-370" fill="#9965F4"></path>
                <polygon id="Fill-372" fill="#9965F4" points="164.5271 118.0897 160.6421 118.0897 160.6421 129.6287 158.9031 129.6287 158.9031 118.0897 155.0171 118.0897 155.0171 116.4857 164.5271 116.4857"></polygon>
                <path d="M166.2683,123.6952 L171.3513,123.6952 C171.3513,121.7822 170.5593,120.8922 168.8193,120.8922 C167.0613,120.8922 166.2683,121.7822 166.2683,123.6952 L166.2683,123.6952 Z M166.2683,125.5502 C166.2683,127.5032 167.0803,128.3922 168.8583,128.3922 C170.3663,128.3922 171.1593,127.7352 171.2743,126.6522 L172.9163,126.6522 C172.7823,128.7782 171.2933,129.8602 168.8973,129.8602 C166.0943,129.8602 164.5673,128.3732 164.5673,125.6282 L164.5673,123.6562 C164.5673,120.9122 166.0553,119.4242 168.7813,119.4242 C171.5063,119.4242 172.9953,120.9122 172.9953,123.6562 L172.9953,125.1062 L166.2683,125.1062 L166.2683,125.5502 Z" id="Fill-374" fill="#9965F4"></path>
                <path d="M175.1795,125.6278 L175.1795,123.6558 C175.1795,120.8928 176.6295,119.4238 179.3355,119.4238 C181.8475,119.4238 183.2405,120.6998 183.3175,123.1148 L181.6735,123.1148 C181.5585,121.5118 180.7455,120.9118 179.3545,120.9118 C177.6735,120.9118 176.8805,121.7818 176.8805,123.6948 L176.8805,125.5888 C176.8805,127.5028 177.6735,128.3728 179.3545,128.3728 C180.7455,128.3728 181.5585,127.7738 181.6735,126.1698 L183.3175,126.1698 C183.2405,128.5858 181.8475,129.8598 179.3355,129.8598 C176.6295,129.8598 175.1795,128.3928 175.1795,125.6278" id="Fill-376" fill="#9965F4"></path>
                <path d="M193.6404,123.076 L193.6404,129.629 L191.9394,129.629 L191.9394,123.231 C191.9394,121.666 191.3594,120.989 190.1994,120.989 C189.0004,120.989 188.0924,121.685 187.3764,123.154 L187.3764,129.629 L185.6764,129.629 L185.6764,115.519 L187.3764,115.519 L187.3764,120.97 C188.2084,119.907 189.2134,119.424 190.5084,119.424 C192.5964,119.424 193.6404,120.68 193.6404,123.076" id="Fill-378" fill="#9965F4"></path>
                <path d="M204.659,123.076 L204.659,129.629 L202.958,129.629 L202.958,123.231 C202.958,121.666 202.379,120.989 201.199,120.989 C200.02,120.989 199.111,121.685 198.396,123.154 L198.396,129.629 L196.695,129.629 L196.695,119.655 L198.145,119.655 L198.203,121.222 C199.073,119.984 200.137,119.424 201.528,119.424 C203.615,119.424 204.659,120.68 204.659,123.076" id="Fill-380" fill="#9965F4"></path>
                <path d="M214.1316,125.3963 L214.1316,123.8693 C214.1316,121.8593 213.2806,120.9123 211.5226,120.9123 C209.7636,120.9123 208.9126,121.8593 208.9126,123.8693 L208.9126,125.3963 C208.9126,127.4063 209.7636,128.3733 211.5226,128.3733 C213.2806,128.3733 214.1316,127.4063 214.1316,125.3963 M207.2116,125.4543 L207.2116,123.8313 C207.2116,120.9313 208.6996,119.4233 211.5226,119.4233 C214.3446,119.4233 215.8326,120.9313 215.8326,123.8313 L215.8326,125.4543 C215.8326,128.3533 214.3446,129.8603 211.5226,129.8603 C208.6996,129.8603 207.2116,128.3533 207.2116,125.4543" id="Fill-382" fill="#9965F4"></path>
                <polygon id="Fill-384" fill="#9965F4" points="218.5398 129.6288 220.2408 129.6288 220.2408 115.5198 218.5398 115.5198"></polygon>
                <path d="M229.8679,125.3963 L229.8679,123.8693 C229.8679,121.8593 229.0169,120.9123 227.2589,120.9123 C225.4999,120.9123 224.6489,121.8593 224.6489,123.8693 L224.6489,125.3963 C224.6489,127.4063 225.4999,128.3733 227.2589,128.3733 C229.0169,128.3733 229.8679,127.4063 229.8679,125.3963 M222.9479,125.4543 L222.9479,123.8313 C222.9479,120.9313 224.4359,119.4233 227.2589,119.4233 C230.0809,119.4233 231.5689,120.9313 231.5689,123.8313 L231.5689,125.4543 C231.5689,128.3533 230.0809,129.8603 227.2589,129.8603 C224.4359,129.8603 222.9479,128.3533 222.9479,125.4543" id="Fill-386" fill="#9965F4"></path>
                <path d="M240.5974,125.5887 L240.5974,123.1347 C239.9404,121.7247 238.9154,120.9117 237.6594,120.9117 C236.2864,120.9117 235.4744,121.8597 235.4744,123.6377 L235.4744,125.0877 C235.4744,126.8647 236.2864,127.8117 237.6594,127.8117 C238.9154,127.8117 239.9404,126.9997 240.5974,125.5887 L240.5974,125.5887 Z M242.2974,119.6547 L242.2974,129.4167 C242.2974,132.0647 240.8874,133.3787 238.0454,133.3787 C235.5134,133.3787 234.1214,132.3347 233.9874,130.2857 L235.5724,130.2857 C235.6674,131.4457 236.6154,131.9087 238.0064,131.9087 C239.7854,131.9087 240.5974,131.1557 240.5974,129.4167 L240.5974,127.7737 C239.7854,128.8177 238.7804,129.3007 237.4474,129.3007 C235.1264,129.3007 233.7744,127.8707 233.7744,125.1457 L233.7744,123.5787 C233.7744,120.8537 235.1264,119.4237 237.4474,119.4237 C238.8764,119.4237 239.9404,119.9847 240.7714,121.2007 L240.8484,119.6547 L242.2974,119.6547 Z" id="Fill-387" fill="#9965F4"></path>
                <path d="M252.7761,119.6551 L248.8721,130.8271 C248.2531,132.5861 247.5571,133.1461 246.0301,133.1461 L245.0251,133.1461 L245.0251,131.6771 L245.8761,131.6771 C246.6491,131.6771 246.9771,131.4461 247.2481,130.6341 L247.7121,129.2431 L244.1171,119.6551 L245.9331,119.6551 L248.5821,127.0201 L251.0361,119.6551 L252.7761,119.6551 Z" id="Fill-388" fill="#9965F4"></path>
                <polygon id="Fill-389" fill="#BABABA" points="260.8948 126.0728 264.9548 126.0728 264.9548 121.8398 260.8948 121.8398"></polygon>
                <path d="M282.2361,120.5252 C282.2361,118.7662 281.5021,118.0702 279.4721,118.0702 L276.3801,118.0702 L276.3801,122.9612 L279.4721,122.9612 C281.5021,122.9612 282.2361,122.2842 282.2361,120.5252 M283.9761,120.5252 C283.9761,123.3472 282.6611,124.5462 279.5881,124.5462 L276.3801,124.5462 L276.3801,129.6292 L274.6401,129.6292 L274.6401,116.4862 L279.5881,116.4862 C282.6611,116.4862 283.9761,117.7032 283.9761,120.5252" id="Fill-390" fill="#BABABA"></path>
                <path d="M291.3806,119.4627 L291.3806,121.1437 L290.8776,121.1437 C289.2546,121.1437 288.3456,121.9757 288.0176,123.8887 L288.0176,129.6287 L286.3166,129.6287 L286.3166,119.6547 L287.7666,119.6547 L287.8436,121.5117 C288.3456,120.1007 289.2546,119.4627 290.7036,119.4627 L291.3806,119.4627 Z" id="Fill-391" fill="#BABABA"></path>
                <path d="M299.615,125.3963 L299.615,123.8693 C299.615,121.8593 298.764,120.9123 297.006,120.9123 C295.247,120.9123 294.396,121.8593 294.396,123.8693 L294.396,125.3963 C294.396,127.4063 295.247,128.3733 297.006,128.3733 C298.764,128.3733 299.615,127.4063 299.615,125.3963 M292.696,125.4543 L292.696,123.8313 C292.696,120.9313 294.183,119.4233 297.006,119.4233 C299.828,119.4233 301.316,120.9313 301.316,123.8313 L301.316,125.4543 C301.316,128.3533 299.828,129.8603 297.006,129.8603 C294.183,129.8603 292.696,128.3533 292.696,125.4543" id="Fill-392" fill="#BABABA"></path>
                <path d="M310.3641,126.1121 L310.3641,123.1741 C309.7071,121.7431 308.6821,120.9121 307.4071,120.9121 C306.0341,120.9121 305.2221,121.8591 305.2221,123.6371 L305.2221,125.6471 C305.2221,127.4251 306.0341,128.3731 307.4071,128.3731 C308.6821,128.3731 309.7071,127.5421 310.3641,126.1121 L310.3641,126.1121 Z M312.0641,115.5191 L312.0641,129.6291 L310.6151,129.6291 L310.5571,128.0451 C309.7071,129.3001 308.6431,129.8601 307.1941,129.8601 C304.8751,129.8601 303.5211,128.4301 303.5211,125.7051 L303.5211,123.5791 C303.5211,120.8531 304.8751,119.4241 307.1941,119.4241 C308.5271,119.4241 309.5521,119.9071 310.3641,120.9691 L310.3641,115.5191 L312.0641,115.5191 Z" id="Fill-393" fill="#BABABA"></path>
                <path d="M323.1609,119.6551 L323.1609,129.6291 L321.7109,129.6291 L321.6529,128.0451 C320.7839,129.3011 319.7009,129.8601 318.2899,129.8601 C316.1829,129.8601 315.1199,128.6041 315.1199,126.2081 L315.1199,119.6551 L316.8209,119.6551 L316.8209,126.0531 C316.8209,127.6191 317.4009,128.2961 318.5989,128.2961 C319.7979,128.2961 320.7249,127.5991 321.4599,126.1311 L321.4599,119.6551 L323.1609,119.6551 Z" id="Fill-394" fill="#BABABA"></path>
                <path d="M325.868,125.6278 L325.868,123.6558 C325.868,120.8928 327.318,119.4238 330.024,119.4238 C332.537,119.4238 333.929,120.6998 334.006,123.1148 L332.363,123.1148 C332.247,121.5118 331.435,120.9118 330.043,120.9118 C328.362,120.9118 327.569,121.7818 327.569,123.6948 L327.569,125.5888 C327.569,127.5028 328.362,128.3728 330.043,128.3728 C331.435,128.3728 332.247,127.7738 332.363,126.1698 L334.006,126.1698 C333.929,128.5858 332.537,129.8598 330.024,129.8598 C327.318,129.8598 325.868,128.3928 325.868,125.6278" id="Fill-395" fill="#BABABA"></path>
                <path d="M341.1395,128.161 L341.1395,129.629 L339.5925,129.629 C337.6785,129.629 336.8675,128.701 336.8675,126.517 L336.8675,121.048 L335.1475,121.048 L335.1475,119.655 L336.9065,119.655 L337.0415,117.027 L338.5685,117.027 L338.5685,119.655 L341.0235,119.655 L341.0235,121.048 L338.5685,121.048 L338.5685,126.537 C338.5685,127.832 338.8585,128.161 339.9985,128.161 L341.1395,128.161 Z" id="Fill-396" fill="#BABABA"></path>
                <path d="M343.0928,129.6288 L344.7928,129.6288 L344.7928,119.6548 L343.0928,119.6548 L343.0928,129.6288 Z M343.0158,117.8588 L344.8708,117.8588 L344.8708,115.9638 L343.0158,115.9638 L343.0158,117.8588 Z" id="Fill-397" fill="#BABABA"></path>
                <polygon id="Fill-398" fill="#BABABA" points="355.4441 119.6551 351.9461 129.6291 350.1091 129.6291 346.6111 119.6551 348.4271 119.6551 351.0561 127.5031 353.6851 119.6551"></polygon>
                <path d="M357.2618,129.6288 L358.9628,129.6288 L358.9628,119.6548 L357.2618,119.6548 L357.2618,129.6288 Z M357.1858,117.8588 L359.0408,117.8588 L359.0408,115.9638 L357.1858,115.9638 L357.1858,117.8588 Z" id="Fill-399" fill="#BABABA"></path>
                <path d="M366.8113,128.161 L366.8113,129.629 L365.2653,129.629 C363.3513,129.629 362.5403,128.701 362.5403,126.517 L362.5403,121.048 L360.8193,121.048 L360.8193,119.655 L362.5783,119.655 L362.7133,117.027 L364.2413,117.027 L364.2413,119.655 L366.6953,119.655 L366.6953,121.048 L364.2413,121.048 L364.2413,126.537 C364.2413,127.832 364.5313,128.161 365.6703,128.161 L366.8113,128.161 Z" id="Fill-400" fill="#BABABA"></path>
                <path d="M376.032,119.6551 L372.128,130.8271 C371.51,132.5861 370.813,133.1461 369.287,133.1461 L368.282,133.1461 L368.282,131.6771 L369.132,131.6771 C369.905,131.6771 370.233,131.4461 370.505,130.6341 L370.969,129.2431 L367.373,119.6551 L369.19,119.6551 L371.838,127.0201 L374.293,119.6551 L376.032,119.6551 Z" id="Fill-401" fill="#BABABA"></path>
                <path d="M127.1209,148.6131 C127.1209,151.5901 125.4209,153.0581 122.4049,153.0581 C119.4859,153.0581 117.8829,151.6861 117.8439,149.4251 L119.5059,149.4251 C119.5629,150.7391 120.6269,151.5121 122.3859,151.5121 C124.3379,151.5121 125.4209,150.5651 125.4209,148.6521 C125.4209,146.7771 124.3769,145.7911 122.5209,145.7911 C121.4579,145.7911 120.6069,146.1201 119.8339,146.7971 L118.2679,146.7971 L118.7139,139.6831 L126.5219,139.6831 L126.5219,141.2871 L120.2399,141.2871 L119.9889,145.1731 C120.7629,144.5541 121.7279,144.2451 122.9069,144.2451 C125.5749,144.2451 127.1209,145.7911 127.1209,148.6131" id="Fill-402" fill="#BABABA"></path>
                <path d="M164.2937,151.2225 L164.2937,152.8265 L156.1377,152.8265 L156.1377,151.2225 L159.3647,151.2225 L159.3647,141.9245 C158.2827,142.6795 157.0457,142.8335 155.7507,142.8725 L155.7507,141.3655 C157.4127,141.3075 158.5717,140.8045 159.4417,139.6835 L161.0657,139.6835 L161.0657,151.2225 L164.2937,151.2225 Z" id="Fill-403" fill="#BABABA"></path>
                <path d="M173.9988,148.5741 L173.9988,143.9361 C173.9988,141.9641 173.0708,140.9981 171.1768,140.9981 C169.2828,140.9981 168.3538,141.9641 168.3538,143.9361 L168.3538,148.5741 C168.3538,150.5471 169.2828,151.5121 171.1768,151.5121 C173.0708,151.5121 173.9988,150.5471 173.9988,148.5741 M166.6538,148.6901 L166.6538,143.8201 C166.6538,140.9781 168.2388,139.4511 171.1768,139.4511 C174.1148,139.4511 175.6998,140.9781 175.6998,143.8201 L175.6998,148.6901 C175.6998,151.5321 174.1148,153.0581 171.1768,153.0581 C168.2388,153.0581 166.6538,151.5321 166.6538,148.6901" id="Fill-404" fill="#BABABA"></path>
                <path d="M185.6365,148.5741 L185.6365,143.9361 C185.6365,141.9641 184.7085,140.9981 182.8145,140.9981 C180.9205,140.9981 179.9915,141.9641 179.9915,143.9361 L179.9915,148.5741 C179.9915,150.5471 180.9205,151.5121 182.8145,151.5121 C184.7085,151.5121 185.6365,150.5471 185.6365,148.5741 M178.2915,148.6901 L178.2915,143.8201 C178.2915,140.9781 179.8765,139.4511 182.8145,139.4511 C185.7525,139.4511 187.3375,140.9781 187.3375,143.8201 L187.3375,148.6901 C187.3375,151.5321 185.7525,153.0581 182.8145,153.0581 C179.8765,153.0581 178.2915,151.5321 178.2915,148.6901" id="Fill-405" fill="#BABABA"></path>
                <polygon id="Fill-406" fill="#BABABA" points="193.6599 148.1493 191.9389 149.9463 191.9389 152.8273 190.2379 152.8273 190.2379 138.7163 191.9389 138.7163 191.9389 147.7623 196.5399 142.8533 198.6659 142.8533 194.8389 146.9123 198.7429 152.8273 196.7139 152.8273"></polygon>
                <polygon id="Fill-407" fill="#BABABA" points="209.3748 147.5887 205.3938 147.5887 205.3938 151.8027 203.8858 151.8027 203.8858 147.5887 199.9038 147.5887 199.9038 146.1197 203.8858 146.1197 203.8858 141.9057 205.3938 141.9057 205.3938 146.1197 209.3748 146.1197"></polygon>
                <polygon id="Fill-408" fill="#BABABA" points="138.116 144.078 142.148 144.816 139.109 147.567 139.653 151.631 136.097 149.591 132.401 151.364 133.242 147.351 130.414 144.385 134.49 143.944 136.438 140.338"></polygon>
                <polygon id="Fill-409" fill="#BABABA" points="117.8428 205.5228 252.7758 205.5228 252.7758 201.4978 117.8428 201.4978"></polygon>
                <polygon id="Fill-410" fill="#BABABA" points="117.8438 195.4598 198.7428 195.4598 198.7428 191.4358 117.8438 191.4358"></polygon>
                <polygon id="Fill-411" fill="#BABABA" points="258.2458 205.5228 262.2698 205.5228 262.2698 201.4978 258.2458 201.4978"></polygon>
                <polygon id="Fill-412" fill="#BABABA" points="267.3938 205.5228 363.8148 205.5228 363.8148 201.4978 267.3938 201.4978"></polygon>
            </g>
        </g>
    </g>
</svg>