<?xml version="1.0" encoding="UTF-8"?> <svg width="139px" height="279px" viewBox="0 0 139 279" version="1.1" xmlns="http://www.w3.org/2000/svg" xmlns:xlink="http://www.w3.org/1999/xlink"><g id="Page-1" stroke="none" stroke-width="1" fill="none" fill-rule="evenodd"> <g id="Artboard-3" transform="translate(-450.000000, -167.000000)"> <g id="Group" transform="translate(454.000000, 171.000000)"> <g id="Group-160"> <path d="M109.4434,270.8285 L21.3784,270.8285 C9.8874,270.8285 0.5734,261.5145 0.5734,250.0245 L0.5734,21.3775 C0.5734,9.8885 9.8874,0.5735 21.3784,0.5735 L109.4434,0.5735 C120.9324,0.5735 130.2474,9.8885 130.2474,21.3775 L130.2474,250.0245 C130.2474,261.5145 120.9324,270.8285 109.4434,270.8285" id="Fill-156" fill="#2C3E4F"></path> <path d="M109.4434,270.8285 L21.3784,270.8285 C9.8874,270.8285 0.5734,261.5145 0.5734,250.0245 L0.5734,21.3775 C0.5734,9.8885 9.8874,0.5735 21.3784,0.5735 L109.4434,0.5735 C120.9324,0.5735 130.2474,9.8885 130.2474,21.3775 L130.2474,250.0245 C130.2474,261.5145 120.9324,270.8285 109.4434,270.8285 Z" id="Stroke-158" stroke="#282828" stroke-width="7.659"></path> </g> <polyline id="Stroke-162" stroke="#FFFFFF" stroke-width="1.035" stroke-linecap="round" stroke-linejoin="round" points="22.6055 21.2934 17.8285 26.0704 22.3325 30.5754"></polyline> <text id="Link-Printer" font-family="LucidaGrande, Lucida Grande" font-size="11.4879" font-weight="normal" fill="#FFFFFF"> <tspan x="34.3555" y="27.2984053">Link </tspan> <tspan x="61.2802656" y="27.2984053" letter-spacing="-0.1838064">P</tspan> <tspan x="67.4462165" y="27.2984053" letter-spacing="0.0459516">r</tspan> <tspan x="72.1927834" y="27.2984053">i</tspan> <tspan x="75.5135045" y="27.2984053" letter-spacing="-0.0459516">n</tspan> <tspan x="82.5970064" y="27.2984053" letter-spacing="-0.0689274">t</tspan> <tspan x="86.8248229" y="27.2984053">er</tspan> </text> <g id="Group-222" transform="translate(17.000000, 35.000000)"> <path d="M28.3712,5.4149 C28.3712,7.3969 26.7642,9.0039 24.7822,9.0039 C22.8002,9.0039 21.1932,7.3969 21.1932,5.4149 C21.1932,3.4329 22.8002,1.8259 24.7822,1.8259 C26.7642,1.8259 28.3712,3.4329 28.3712,5.4149" id="Fill-163" fill="#9965F4"></path> <path d="M44.1612,5.4135 C44.1612,7.3955 42.5532,9.0045 40.5702,9.0045 C38.5882,9.0045 36.9822,7.3955 36.9822,5.4135 C36.9822,3.4345 38.5882,1.8255 40.5702,1.8255 C41.5332,1.8255 42.4072,2.2035 43.0532,2.8225 C43.2982,3.0565 43.5122,3.3285 43.6822,3.6245 C43.9882,4.1515 44.1612,4.7635 44.1612,5.4135" id="Fill-165" fill="#9965F4"></path> <path d="M59.9493,5.4149 C59.9493,7.3969 58.3433,9.0039 56.3603,9.0039 C54.3793,9.0039 52.7713,7.3969 52.7713,5.4149 C52.7713,3.4329 54.3793,1.8259 56.3603,1.8259 C58.3433,1.8259 59.9493,3.4329 59.9493,5.4149" id="Fill-167" fill="#9965F4"></path> <path d="M75.628,5.4149 C75.628,7.3969 74.022,9.0039 72.039,9.0039 C70.057,9.0039 68.45,7.3969 68.45,5.4149 C68.45,3.4329 70.057,1.8259 72.039,1.8259 C74.022,1.8259 75.628,3.4329 75.628,5.4149" id="Fill-169" fill="#9965F4"></path> <line x1="28.3712" y1="5.4149" x2="36.9822" y2="5.4149" id="Stroke-171" stroke="#9965F4" stroke-width="0.467"></line> <line x1="44.1602" y1="5.4149" x2="52.7712" y2="5.4149" id="Stroke-173" stroke="#9965F4" stroke-width="0.467"></line> <line x1="59.9493" y1="5.4149" x2="68.5613" y2="5.4149" id="Stroke-175" stroke="#9965F4" stroke-width="0.467"></line> <polyline id="Stroke-177" stroke="#FFFFFF" stroke-width="1.532" points="22.7325 4.227 24.4695 5.964 29.5195 0.914"></polyline> <polyline id="Stroke-179" stroke="#FFFFFF" stroke-width="1.532" points="38.5684 4.227 40.3054 5.964 45.3544 0.914"></polyline> <polyline id="Stroke-181" stroke="#FFFFFF" stroke-width="1.532" points="54.4034 4.227 56.1404 5.964 61.1904 0.914"></polyline> <path d="M84.3135,46.3676 L12.5075,46.3676 C9.3285,46.3676 6.7505,43.7896 6.7505,40.6106 C6.7505,37.4316 9.3285,34.8546 12.5075,34.8546 L84.3135,34.8546 C87.4925,34.8546 90.0695,37.4316 90.0695,40.6106 C90.0695,43.7896 87.4925,46.3676 84.3135,46.3676" id="Fill-183" fill="#FFFFFF"></path> <path d="M87.1915,62.1225 L9.6295,62.1225 C8.0405,62.1225 6.7515,60.8335 6.7515,59.2445 C6.7515,57.6545 8.0405,56.3655 9.6295,56.3655 L87.1915,56.3655 C88.7815,56.3655 90.0695,57.6545 90.0695,59.2445 C90.0695,60.8335 88.7815,62.1225 87.1915,62.1225" id="Fill-185" fill="#FFFFFF"></path> <path d="M87.1915,73.0292 L9.6295,73.0292 C8.0405,73.0292 6.7515,71.7402 6.7515,70.1512 C6.7515,68.5612 8.0405,67.2732 9.6295,67.2732 L87.1915,67.2732 C88.7815,67.2732 90.0695,68.5612 90.0695,70.1512 C90.0695,71.7402 88.7815,73.0292 87.1915,73.0292" id="Fill-187" fill="#FFFFFF"></path> <path d="M88.6309,87.0834 L8.1909,87.0834 C7.3959,87.0834 6.7509,86.4384 6.7509,85.6444 C6.7509,84.8494 7.3959,84.2054 8.1909,84.2054 L88.6309,84.2054 C89.4259,84.2054 90.0689,84.8494 90.0689,85.6444 C90.0689,86.4384 89.4259,87.0834 88.6309,87.0834" id="Fill-189" fill="#DDD3D6"></path> <path d="M88.6309,94.5526 L8.1909,94.5526 C7.3959,94.5526 6.7509,93.9076 6.7509,93.1136 C6.7509,92.3186 7.3959,91.6746 8.1909,91.6746 L88.6309,91.6746 C89.4259,91.6746 90.0689,92.3186 90.0689,93.1136 C90.0689,93.9076 89.4259,94.5526 88.6309,94.5526" id="Fill-191" fill="#DDD3D6"></path> <path d="M89.3506,134.4579 L7.4706,134.4579 C7.0736,134.4579 6.7506,134.1359 6.7506,133.7379 C6.7506,133.3409 7.0736,133.0189 7.4706,133.0189 L89.3506,133.0189 C89.7476,133.0189 90.0696,133.3409 90.0696,133.7379 C90.0696,134.1359 89.7476,134.4579 89.3506,134.4579" id="Fill-193" fill="#C1C4C8"></path> <path d="M90.0694,124.2406 L6.7514,124.2406 C3.0704,124.2406 0.0864,121.2566 0.0864,117.5756 L0.0864,109.0926 C0.0864,105.4106 3.0704,102.4266 6.7514,102.4266 L90.0694,102.4266 C93.7514,102.4266 96.7354,105.4106 96.7354,109.0926 L96.7354,117.5756 C96.7354,121.2566 93.7514,124.2406 90.0694,124.2406" id="Fill-195" fill="#1A1A1A"></path> <path d="M74.3907,209.7572 L22.4307,209.7572 C19.6277,209.7572 17.3557,207.4852 17.3557,204.6822 L17.3557,195.1542 C17.3557,192.3522 19.6277,190.0792 22.4307,190.0792 L74.3907,190.0792 C77.1937,190.0792 79.4657,192.3522 79.4657,195.1542 L79.4657,204.6822 C79.4657,207.4852 77.1937,209.7572 74.3907,209.7572" id="Fill-197" fill="#9F68FB"></path> <polygon id="Fill-199" fill="#FFFFFF" points="15.3018 117.9452 13.5518 114.7982 11.9638 117.9452 9.7948 117.9452 12.4258 113.1302 9.8898 108.7222 12.2368 108.7222 13.8768 111.6522 15.3828 108.7222 17.5528 108.7222 15.0028 113.3742 17.6478 117.9452"></polygon> <polygon id="Fill-201" fill="#FFFFFF" points="29.1221 117.9452 27.3731 114.7982 25.7861 117.9452 23.6151 117.9452 26.2471 113.1302 23.7111 108.7222 26.0581 108.7222 27.6981 111.6522 29.2031 108.7222 31.3741 108.7222 28.8241 113.3742 31.4691 117.9452"></polygon> <polygon id="Fill-203" fill="#FFFFFF" points="42.9434 117.9452 41.1944 114.7982 39.6064 117.9452 37.4364 117.9452 40.0684 113.1302 37.5324 108.7222 39.8784 108.7222 41.5184 111.6522 43.0244 108.7222 45.1954 108.7222 42.6444 113.3742 45.2904 117.9452"></polygon> <polygon id="Fill-205" fill="#FFFFFF" points="56.7647 117.9452 55.0147 114.7982 53.4277 117.9452 51.2577 117.9452 53.8887 113.1302 51.3527 108.7222 53.6997 108.7222 55.3397 111.6522 56.8457 108.7222 59.0157 108.7222 56.4657 113.3742 59.1107 117.9452"></polygon> <polygon id="Fill-207" fill="#FFFFFF" points="70.585 117.9452 68.836 114.7982 67.248 117.9452 65.078 117.9452 67.71 113.1302 65.174 108.7222 67.52 108.7222 69.161 111.6522 70.666 108.7222 72.837 108.7222 70.287 113.3742 72.932 117.9452"></polygon> <polygon id="Fill-209" fill="#FFFFFF" points="84.4063 117.9452 82.6563 114.7982 81.0703 117.9452 78.8993 117.9452 81.5313 113.1302 78.9943 108.7222 81.3413 108.7222 82.9813 111.6522 84.4873 108.7222 86.6583 108.7222 84.1073 113.3742 86.7523 117.9452"></polygon> <g id="Group-221" transform="translate(20.000000, 106.000000)" fill="#6D6D6D"> <polygon id="Fill-211" points="0.249 15.203 1.057 15.203 1.057 0.155 0.249 0.155"></polygon> <polygon id="Fill-213" points="14.387 15.203 15.196 15.203 15.196 0.155 14.387 0.155"></polygon> <polygon id="Fill-215" points="28.526 15.203 29.335 15.203 29.335 0.155 28.526 0.155"></polygon> <polygon id="Fill-217" points="42.666 15.203 43.474 15.203 43.474 0.155 42.666 0.155"></polygon> <polygon id="Fill-219" points="56.804 15.203 57.612 15.203 57.612 0.155 56.804 0.155"></polygon> </g> </g> </g> </g> </g> </svg>