<svg width="701" height="256" viewBox="0 0 701 256" fill="none" xmlns="http://www.w3.org/2000/svg">
<path fill-rule="evenodd" clip-rule="evenodd" d="M700.204 0.498535V148.229H493.934C475.294 148.229 458.774 160.439 453.564 178.339C451.694 184.779 449.234 190.959 446.254 196.839C428.504 231.869 392.154 255.869 350.194 255.869C301.204 255.869 259.854 223.129 246.824 178.339C241.624 160.439 225.095 148.229 206.464 148.229H0.203857V0.498535H700.204Z" fill="#9965F4"/>
<path d="M27.2443 42.734H19.8643V32.234H47.8243V42.734H40.4443V72.2541H27.2443V42.734ZM34.6243 67.454V38.474H43.2043V37.034H24.4843V38.474H33.0643V67.454H34.6243Z" fill="#333399"/>
<path d="M49.9135 32.234H62.6935V45.854H69.8335V32.234H82.6735V72.2541H69.8335V57.434H62.6935V72.2541H49.9135V32.234ZM57.4735 67.454V52.274H75.1135V67.454H76.6735V37.034H75.1135V50.834H57.4735V37.034H55.9135V67.454H57.4735Z" fill="#333399"/>
<path d="M86.8861 32.234H110.466V42.734H99.6661V47.174H110.286V57.1341H99.6661V61.754H110.886V72.2541H86.8861V32.234ZM106.446 67.454V66.014H94.4461V52.874H105.846V51.434H94.4461V38.474H106.446V37.034H92.8861V67.454H106.446Z" fill="#333399"/>
<path d="M130.456 67.034C131.016 67.154 131.616 67.254 132.256 67.334C132.816 67.414 133.396 67.4941 133.996 67.5741C134.636 67.6141 135.276 67.634 135.916 67.634C137.036 67.634 138.116 67.514 139.156 67.274C140.236 66.994 141.196 66.554 142.036 65.954C142.876 65.354 143.536 64.594 144.016 63.674C144.536 62.714 144.796 61.554 144.796 60.194C144.796 59.034 144.496 57.934 143.896 56.894C143.336 55.854 142.596 54.854 141.676 53.894C140.796 52.934 139.836 52.014 138.796 51.134C137.796 50.254 136.836 49.374 135.916 48.494C135.036 47.574 134.296 46.674 133.696 45.794C133.136 44.874 132.856 43.934 132.856 42.974C132.856 41.534 133.316 40.434 134.236 39.674C135.156 38.874 136.636 38.474 138.676 38.474C138.996 38.474 139.316 38.494 139.636 38.534C139.996 38.534 140.336 38.554 140.656 38.594C140.976 38.634 141.296 38.654 141.616 38.654V37.094C141.336 37.094 141.036 37.074 140.716 37.034C140.436 36.994 140.116 36.974 139.756 36.974C139.436 36.934 139.096 36.914 138.736 36.914C136.576 36.914 134.796 37.414 133.396 38.414C131.996 39.374 131.296 40.894 131.296 42.974C131.296 44.094 131.576 45.154 132.136 46.154C132.736 47.114 133.476 48.074 134.356 49.034C135.276 49.954 136.236 50.854 137.236 51.734C138.276 52.614 139.236 53.514 140.116 54.434C141.036 55.3141 141.776 56.234 142.336 57.194C142.936 58.154 143.236 59.154 143.236 60.194C143.236 62.114 142.576 63.5741 141.256 64.5741C139.976 65.5741 138.196 66.0741 135.916 66.0741C134.556 66.0741 133.316 65.974 132.196 65.774C131.596 65.694 131.016 65.5941 130.456 65.4741V67.034ZM125.416 59.834C126.296 60.114 127.216 60.334 128.176 60.494C128.976 60.694 129.876 60.8541 130.876 60.9741C131.916 61.0941 132.956 61.1541 133.996 61.1541C135.836 61.1541 136.756 60.4741 136.756 59.114C136.756 58.5941 136.476 58.074 135.916 57.554C135.356 56.994 134.636 56.394 133.756 55.754C132.916 55.074 131.996 54.334 130.996 53.534C130.036 52.734 129.116 51.814 128.236 50.774C127.396 49.7341 126.696 48.5741 126.136 47.2941C125.576 45.974 125.296 44.474 125.296 42.794C125.296 40.914 125.636 39.254 126.316 37.814C126.996 36.374 127.936 35.174 129.136 34.214C130.336 33.254 131.736 32.534 133.336 32.054C134.976 31.534 136.716 31.274 138.556 31.274C139.516 31.274 140.476 31.334 141.436 31.454C142.396 31.534 143.256 31.614 144.016 31.694C144.896 31.814 145.756 31.934 146.596 32.054V43.274C146.276 43.234 145.916 43.194 145.516 43.154C145.196 43.114 144.836 43.074 144.436 43.034C144.036 42.994 143.616 42.974 143.176 42.974C142.936 42.974 142.636 42.994 142.276 43.034C141.916 43.034 141.576 43.074 141.256 43.154C140.936 43.234 140.656 43.374 140.416 43.574C140.176 43.774 140.056 44.054 140.056 44.414C140.056 44.734 140.316 45.134 140.836 45.614C141.396 46.094 142.056 46.6541 142.816 47.2941C143.616 47.9341 144.476 48.674 145.396 49.514C146.356 50.354 147.216 51.314 147.976 52.394C148.776 53.474 149.436 54.694 149.956 56.054C150.516 57.414 150.796 58.934 150.796 60.614C150.796 62.374 150.516 64.034 149.956 65.594C149.396 67.114 148.516 68.4541 147.316 69.6141C146.156 70.7341 144.656 71.6141 142.816 72.2541C140.976 72.9341 138.796 73.274 136.276 73.274C134.756 73.274 133.336 73.1941 132.016 73.034C130.736 72.9141 129.596 72.754 128.596 72.554C127.436 72.354 126.376 72.1141 125.416 71.8341V59.834Z" fill="#333399"/>
<path d="M184.647 47.474C184.647 50.234 184.167 52.594 183.207 54.554C182.247 56.474 180.927 58.034 179.247 59.234C177.607 60.434 175.667 61.314 173.427 61.874C171.227 62.434 168.847 62.714 166.287 62.714V72.2541H153.507V32.234H166.287C168.847 32.234 171.227 32.514 173.427 33.074C175.667 33.634 177.607 34.514 179.247 35.714C180.927 36.914 182.247 38.494 183.207 40.454C184.167 42.374 184.647 44.714 184.647 47.474ZM178.827 47.474C178.827 45.674 178.507 44.114 177.867 42.794C177.267 41.474 176.407 40.394 175.287 39.554C174.167 38.714 172.827 38.094 171.267 37.694C169.747 37.254 168.087 37.034 166.287 37.034H159.507V67.454H161.067V57.914H166.287C168.087 57.914 169.747 57.714 171.267 57.314C172.827 56.874 174.167 56.234 175.287 55.394C176.407 54.554 177.267 53.474 177.867 52.154C178.507 50.834 178.827 49.274 178.827 47.474ZM177.147 47.474C177.147 49.194 176.847 50.634 176.247 51.794C175.647 52.954 174.847 53.874 173.847 54.554C172.847 55.234 171.687 55.734 170.367 56.054C169.087 56.334 167.727 56.4741 166.287 56.4741H161.067V38.474H166.287C167.727 38.474 169.087 38.634 170.367 38.954C171.687 39.234 172.847 39.714 173.847 40.394C174.847 41.074 175.647 41.994 176.247 43.154C176.847 44.314 177.147 45.754 177.147 47.474ZM166.287 51.914H166.827C168.507 51.914 169.707 51.534 170.427 50.774C171.187 49.974 171.567 48.874 171.567 47.474C171.567 46.074 171.187 44.994 170.427 44.234C169.707 43.434 168.507 43.034 166.827 43.034H166.287V51.914Z" fill="#333399"/>
<path d="M194.747 32.234H204.347L219.527 72.2541H206.927L205.607 68.6541H193.487L192.167 72.2541H179.567L194.747 32.234ZM202.247 59.834L199.547 52.8141L196.847 59.834H202.247ZM188.507 67.454L189.647 64.454H209.447L210.587 67.454H212.267L200.687 37.034H198.407L186.827 67.454H188.507ZM199.547 38.474L208.907 63.014H190.187L199.547 38.474Z" fill="#333399"/>
<path d="M242.926 45.854C242.206 45.214 241.306 44.734 240.226 44.414C239.146 44.054 238.086 43.874 237.046 43.874C235.886 43.874 234.826 44.094 233.866 44.534C232.906 44.934 232.066 45.514 231.346 46.274C230.666 46.994 230.126 47.874 229.726 48.914C229.326 49.9541 229.126 51.074 229.126 52.274C229.126 53.474 229.346 54.5941 229.786 55.6341C230.226 56.6741 230.826 57.574 231.586 58.334C232.346 59.054 233.226 59.634 234.226 60.074C235.266 60.474 236.366 60.674 237.526 60.674C238.886 60.674 240.126 60.394 241.246 59.834C242.366 59.234 243.326 58.434 244.126 57.434H240.526V49.034H255.946V62.354C255.026 63.994 253.926 65.494 252.646 66.854C251.366 68.174 249.926 69.314 248.326 70.274C246.766 71.234 245.066 71.974 243.226 72.494C241.386 73.014 239.486 73.274 237.526 73.274C234.646 73.274 231.926 72.7341 229.366 71.6541C226.806 70.5741 224.566 69.0941 222.646 67.2141C220.766 65.3341 219.266 63.114 218.146 60.554C217.066 57.994 216.526 55.234 216.526 52.274C216.526 49.394 217.046 46.674 218.086 44.114C219.126 41.554 220.546 39.334 222.346 37.454C224.186 35.534 226.346 34.034 228.826 32.954C231.346 31.834 234.046 31.274 236.926 31.274C239.166 31.274 241.106 31.494 242.746 31.934C244.386 32.374 245.766 32.874 246.886 33.434C248.206 34.074 249.306 34.774 250.186 35.534L242.926 45.854ZM243.526 38.114C243.006 37.874 242.426 37.674 241.786 37.514C241.226 37.354 240.566 37.214 239.806 37.094C239.046 36.974 238.206 36.914 237.286 36.914C235.166 36.914 233.186 37.294 231.346 38.054C229.506 38.814 227.906 39.874 226.546 41.234C225.186 42.554 224.106 44.154 223.306 46.034C222.546 47.914 222.166 49.994 222.166 52.274C222.166 54.554 222.566 56.634 223.366 58.514C224.166 60.394 225.266 62.014 226.666 63.374C228.066 64.694 229.686 65.734 231.526 66.494C233.406 67.254 235.406 67.634 237.526 67.634C240.286 67.634 242.786 66.9941 245.026 65.7141C247.266 64.3941 249.086 62.654 250.486 60.494V52.634H244.126V54.074H248.926V60.074C247.686 61.914 246.066 63.374 244.066 64.454C242.106 65.534 239.926 66.0741 237.526 66.0741C235.606 66.0741 233.806 65.7541 232.126 65.1141C230.486 64.4341 229.026 63.4941 227.746 62.2941C226.506 61.0541 225.526 59.594 224.806 57.914C224.086 56.194 223.726 54.314 223.726 52.274C223.726 50.234 224.066 48.374 224.746 46.694C225.466 44.974 226.426 43.514 227.626 42.314C228.866 41.074 230.306 40.134 231.946 39.494C233.586 38.814 235.366 38.474 237.286 38.474C238.006 38.474 238.686 38.534 239.326 38.654C239.966 38.774 240.526 38.894 241.006 39.014C241.566 39.174 242.086 39.334 242.566 39.494L243.526 38.114Z" fill="#333399"/>
<path d="M259.262 32.234H272.042V45.854H279.182V32.234H292.022V72.2541H279.182V57.434H272.042V72.2541H259.262V32.234ZM266.822 67.454V52.274H284.462V67.454H286.022V37.034H284.462V50.834H266.822V37.034H265.262V67.454H266.822Z" fill="#333399"/>
<path d="M296.235 32.234H319.815V42.734H309.015V47.174H319.635V57.1341H309.015V61.754H320.235V72.2541H296.235V32.234ZM315.795 67.454V66.014H303.795V52.874H315.195V51.434H303.795V38.474H315.795V37.034H302.235V67.454H315.795Z" fill="#333399"/>
<path d="M329.112 42.734H321.732V32.234H349.692V42.734H342.312V72.2541H329.112V42.734ZM336.492 67.454V38.474H345.072V37.034H326.352V38.474H334.932V67.454H336.492Z" fill="#333399"/>
<path d="M358.861 42.734H351.481V32.234H379.441V42.734H372.061V72.2541H358.861V42.734ZM366.241 67.454V38.474H374.821V37.034H356.101V38.474H364.681V67.454H366.241Z" fill="#333399"/>
<path d="M381.531 32.234H395.091V72.2541H381.531V32.234ZM389.091 67.454V37.034H387.531V67.454H389.091Z" fill="#333399"/>
<path d="M411.296 72.2541V32.234H422.396C426.156 32.234 429.496 32.654 432.416 33.494C435.376 34.334 437.856 35.594 439.856 37.274C441.896 38.954 443.436 41.054 444.476 43.574C445.556 46.054 446.096 48.934 446.096 52.214C446.096 55.494 445.556 58.394 444.476 60.914C443.436 63.394 441.896 65.4741 439.856 67.1541C437.856 68.8341 435.376 70.114 432.416 70.994C429.496 71.834 426.156 72.2541 422.396 72.2541H411.296ZM418.856 66.014V38.474H422.396C427.476 38.474 431.416 39.634 434.216 41.9541C437.056 44.234 438.476 47.654 438.476 52.214C438.476 56.774 437.056 60.214 434.216 62.534C431.416 64.854 427.476 66.014 422.396 66.014H418.856ZM417.296 67.454H422.396C428.236 67.454 432.636 66.134 435.596 63.494C438.596 60.814 440.096 57.054 440.096 52.214C440.096 47.374 438.596 43.634 435.596 40.994C432.636 38.354 428.236 37.034 422.396 37.034H417.296V67.454ZM424.076 60.854C427.076 60.854 429.396 60.154 431.036 58.754C432.676 57.314 433.496 55.134 433.496 52.214C433.496 49.294 432.676 47.134 431.036 45.734C429.396 44.334 427.076 43.634 424.076 43.634V60.854Z" fill="#333399"/>
<path d="M449.382 32.234H472.962V42.734H462.162V47.174H472.782V57.1341H462.162V61.754H473.382V72.2541H449.382V32.234ZM468.942 67.454V66.014H456.942V52.874H468.342V51.434H456.942V38.474H468.942V37.034H455.382V67.454H468.942Z" fill="#333399"/>
<path d="M482.26 42.734H474.88V32.234H502.84V42.734H495.46V72.2541H482.26V42.734ZM489.64 67.454V38.474H498.22V37.034H479.5V38.474H488.08V67.454H489.64Z" fill="#333399"/>
<path d="M504.929 32.234H528.509V42.734H517.709V47.174H528.329V57.1341H517.709V61.754H528.929V72.2541H504.929V32.234ZM524.489 67.454V66.014H512.489V52.874H523.889V51.434H512.489V38.474H524.489V37.034H510.929V67.454H524.489Z" fill="#333399"/>
<path d="M538.287 52.274C538.287 50.354 538.607 48.554 539.247 46.874C539.927 45.194 540.867 43.734 542.067 42.494C543.267 41.254 544.727 40.274 546.447 39.554C548.167 38.834 550.087 38.474 552.207 38.474C553.247 38.474 554.167 38.554 554.967 38.714C555.807 38.834 556.507 38.994 557.067 39.194C557.747 39.394 558.327 39.634 558.807 39.914L559.647 38.474C559.007 38.194 558.327 37.934 557.607 37.694C556.927 37.494 556.147 37.314 555.267 37.154C554.387 36.994 553.367 36.914 552.207 36.914C550.167 36.914 548.207 37.274 546.327 37.994C544.487 38.714 542.847 39.754 541.407 41.114C540.007 42.434 538.867 44.054 537.987 45.974C537.147 47.854 536.727 49.954 536.727 52.274C536.727 54.634 537.127 56.7541 537.927 58.6341C538.767 60.5141 539.907 62.134 541.347 63.494C542.787 64.814 544.467 65.834 546.387 66.554C548.307 67.274 550.347 67.634 552.507 67.634C553.707 67.634 554.787 67.534 555.747 67.334C556.707 67.134 557.527 66.914 558.207 66.674C558.967 66.394 559.647 66.0741 560.247 65.7141L559.407 64.274C558.887 64.634 558.287 64.934 557.607 65.174C557.007 65.414 556.287 65.634 555.447 65.834C554.607 65.994 553.627 66.0741 552.507 66.0741C550.307 66.0741 548.327 65.714 546.567 64.994C544.807 64.274 543.307 63.294 542.067 62.054C540.867 60.814 539.927 59.354 539.247 57.674C538.607 55.994 538.287 54.194 538.287 52.274ZM530.727 52.274C530.727 49.074 531.287 46.194 532.407 43.634C533.527 41.034 535.047 38.814 536.967 36.974C538.887 35.134 541.127 33.734 543.687 32.774C546.247 31.774 548.967 31.274 551.847 31.274C554.127 31.274 556.147 31.494 557.907 31.934C559.707 32.374 561.247 32.874 562.527 33.434C564.007 34.074 565.287 34.774 566.367 35.534L560.067 46.634C559.427 46.154 558.727 45.694 557.967 45.254C557.287 44.934 556.467 44.634 555.507 44.354C554.587 44.034 553.527 43.874 552.327 43.874C551.087 43.874 549.947 44.094 548.907 44.534C547.867 44.974 546.947 45.574 546.147 46.334C545.387 47.094 544.787 47.994 544.347 49.034C543.907 50.034 543.687 51.114 543.687 52.274C543.687 53.434 543.907 54.534 544.347 55.574C544.827 56.574 545.467 57.454 546.267 58.214C547.067 58.974 548.007 59.574 549.087 60.014C550.167 60.454 551.347 60.674 552.627 60.674C553.907 60.674 555.047 60.514 556.047 60.194C557.047 59.874 557.887 59.5141 558.567 59.114C559.367 58.6741 560.067 58.154 560.667 57.554L566.967 68.6541C565.887 69.5341 564.607 70.314 563.127 70.994C561.847 71.554 560.307 72.074 558.507 72.554C556.707 73.034 554.647 73.274 552.327 73.274C549.207 73.274 546.327 72.774 543.687 71.774C541.047 70.734 538.767 69.294 536.847 67.454C534.927 65.614 533.427 63.414 532.347 60.854C531.267 58.254 530.727 55.394 530.727 52.274Z" fill="#333399"/>
<path d="M574.662 42.734H567.282V32.234H595.242V42.734H587.862V72.2541H574.662V42.734ZM582.042 67.454V38.474H590.622V37.034H571.902V38.474H580.482V67.454H582.042Z" fill="#333399"/>
<path d="M597.331 32.234H610.891V72.2541H597.331V32.234ZM604.891 67.454V37.034H603.331V67.454H604.891Z" fill="#333399"/>
<path d="M625.765 32.234L632.545 49.6341L639.385 32.234H653.365L637.765 72.2541H627.385L611.785 32.234H625.765ZM633.205 67.454L645.085 37.034H643.405L632.545 64.694L621.745 37.034H620.065L631.945 67.454H633.205Z" fill="#333399"/>
<path d="M654.285 32.234H677.865V42.734H667.065V47.174H677.685V57.1341H667.065V61.754H678.285V72.2541H654.285V32.234ZM673.845 67.454V66.014H661.845V52.874H673.245V51.434H661.845V38.474H673.845V37.034H660.285V67.454H673.845Z" fill="#333399"/>
<path fill-rule="evenodd" clip-rule="evenodd" d="M355.27 149.007C359.445 153.943 366.905 152.709 369.78 146.753C364.997 147.496 360.143 148.25 355.27 149.007M345.154 149.003C340.264 148.249 335.4 147.5 330.428 146.735C334.692 152.952 340.989 153.888 345.154 149.003M350.184 211.823C343.47 198.528 333.692 188.321 322.577 179.238C322.098 178.847 322.039 177.772 322.046 177.019C322.052 176.492 322.506 175.97 322.76 175.445C325.066 170.688 325.085 170.66 320.619 167.539C314.748 163.437 308.081 161.085 301.351 158.88C300.588 158.63 299.827 158.377 298.265 157.861C301.763 155.116 304.698 152.607 307.844 150.401C310.96 148.216 314.29 146.337 317.956 144.057C316.312 143.625 315.019 143.3 313.735 142.945C308.189 141.411 302.685 139.761 298.086 136.085C293.617 132.511 293.584 128.146 298.118 124.67C303.88 120.25 310.759 118.488 317.661 116.884C320.466 116.232 323.328 115.817 326.506 115.231C326.229 117.017 326.164 118.506 325.741 119.886C325.187 121.693 325.819 122.382 327.532 122.852C336.608 125.344 345.858 126.343 355.204 125.558C360.975 125.072 366.68 123.817 372.419 122.936C374.411 122.631 375.373 121.826 374.618 119.623C374.194 118.385 374.161 117.013 373.886 115.294C375.303 115.516 376.589 115.594 377.803 115.93C384.113 117.675 390.462 119.312 396.673 121.365C398.964 122.123 401.116 123.682 402.978 125.285C406.689 128.478 406.52 132.577 402.774 135.737C398.533 139.315 393.389 141.005 388.187 142.537C386.441 143.052 384.665 143.465 382.363 144.064C389.359 148.243 396.135 152.023 401.558 157.823C396.527 159.767 391.631 161.348 387.027 163.541C383.54 165.201 380.406 167.614 377.151 169.747C375.957 170.53 375.7 171.542 376.403 172.954C377.301 174.756 378.776 176.898 378.403 178.527C378.041 180.103 375.624 181.183 374.158 182.534C365.314 190.686 357.139 199.397 351.28 210.033C351.001 210.539 350.677 211.02 350.184 211.823" fill="white"/>
<path fill-rule="evenodd" clip-rule="evenodd" d="M373.582 114.931C357.913 119.146 342.547 119.069 326.809 114.985C327.835 109.508 328.465 104.201 329.974 99.1572C330.491 97.4262 333.011 95.9042 334.952 95.0612C341.109 92.3912 347.703 91.8242 354.288 92.6082C358.364 93.0942 362.403 94.2242 366.338 95.4532C369.203 96.3492 370.832 98.4792 371.213 101.737C371.712 106.014 372.713 110.233 373.582 114.931" fill="white"/>
</svg>
