<svg width="701" height="256" viewBox="0 0 701 256" fill="none" xmlns="http://www.w3.org/2000/svg">
<path fill-rule="evenodd" clip-rule="evenodd" d="M700.204 0.498535V148.229H493.934C475.294 148.229 458.774 160.439 453.564 178.339C451.694 184.779 449.234 190.959 446.254 196.839C428.504 231.869 392.154 255.869 350.194 255.869C301.204 255.869 259.854 223.129 246.824 178.339C241.624 160.439 225.095 148.229 206.464 148.229H0.203857V0.498535H700.204Z" fill="#9965F4"/>
<path d="M30.2559 102V62.59H21.1559V53.84H49.0159V62.59H39.9159V102H30.2559Z" fill="#775BC4"/>
<path d="M72.8137 102V82.19H62.9437V102H53.3537V53.84H62.9437V73.3H72.8137V53.84H82.4037V102H72.8137Z" fill="#775BC4"/>
<path d="M89.6525 102V53.84H113.033V62.31H99.3125V73.44H111.143V81.91H99.3125V93.53H113.033V102H89.6525Z" fill="#775BC4"/>
<path d="M143.455 102.56C141.495 102.56 139.349 102.443 137.015 102.21C134.729 102.023 132.699 101.743 130.925 101.37V93.53C135.685 93.9034 138.975 94.09 140.795 94.09C142.429 94.09 143.665 93.9967 144.505 93.81C145.345 93.6234 145.975 93.2967 146.395 92.83C146.769 92.4567 147.002 91.9434 147.095 91.29C147.235 90.59 147.305 89.61 147.305 88.35C147.305 86.6234 147.212 85.41 147.025 84.71C146.839 83.9634 146.442 83.4267 145.835 83.1C145.275 82.7267 144.272 82.4 142.825 82.12L136.245 80.93C133.912 80.51 132.302 79.2267 131.415 77.08C130.529 74.9334 130.085 71.83 130.085 67.77C130.085 63.8034 130.645 60.77 131.765 58.67C132.932 56.57 134.519 55.1467 136.525 54.4C138.532 53.6534 141.075 53.28 144.155 53.28C146.302 53.28 148.355 53.42 150.315 53.7C152.322 53.98 153.955 54.26 155.215 54.54V62.38C152.695 61.96 149.872 61.75 146.745 61.75C145.065 61.75 143.759 61.82 142.825 61.96C141.939 62.1 141.285 62.3567 140.865 62.73C140.352 63.1034 140.025 63.64 139.885 64.34C139.745 65.04 139.675 66.0667 139.675 67.42C139.675 68.8667 139.745 69.9167 139.885 70.57C140.072 71.2234 140.375 71.69 140.795 71.97C141.215 72.25 141.939 72.4834 142.965 72.67L149.125 73.79C150.759 74.0234 152.135 74.5367 153.255 75.33C154.422 76.0767 155.332 77.3367 155.985 79.11C156.639 80.9767 156.965 83.6134 156.965 87.02C156.965 91.4534 156.429 94.79 155.355 97.03C154.282 99.27 152.789 100.763 150.875 101.51C149.009 102.21 146.535 102.56 143.455 102.56Z" fill="#775BC4"/>
<path d="M162.66 53.84H178.55C181.957 53.84 184.524 54.4467 186.25 55.66C188.024 56.8734 189.214 58.6467 189.82 60.98C190.427 63.2667 190.73 66.3234 190.73 70.15C190.73 73.8367 190.45 76.8467 189.89 79.18C189.33 81.4667 188.164 83.2867 186.39 84.64C184.617 85.9467 181.98 86.6 178.48 86.6H172.32V102H162.66V53.84ZM176.1 78.13C177.687 78.13 178.807 77.9434 179.46 77.57C180.114 77.1967 180.534 76.4967 180.72 75.47C180.954 74.3967 181.07 72.6234 181.07 70.15C181.07 67.6767 180.954 65.9267 180.72 64.9C180.534 63.8734 180.114 63.1967 179.46 62.87C178.854 62.4967 177.757 62.31 176.17 62.31H172.32V78.13H176.1Z" fill="#775BC4"/>
<path d="M214.343 102L212.453 92.13H201.673L199.783 102H190.193L200.133 53.84H214.203L224.143 102H214.343ZM207.273 62.94H206.853L203.073 83.8H210.983L207.273 62.94Z" fill="#775BC4"/>
<path d="M242.631 82.26V74H255.861V101.09C254.228 101.51 252.245 101.86 249.911 102.14C247.578 102.42 245.408 102.56 243.401 102.56C238.968 102.56 235.655 101.907 233.461 100.6C231.315 99.2467 229.821 96.8667 228.981 93.46C228.188 90.0067 227.791 84.8267 227.791 77.92C227.791 71.06 228.211 65.9267 229.051 62.52C229.938 59.0667 231.525 56.6634 233.811 55.31C236.098 53.9567 239.528 53.28 244.101 53.28C245.968 53.28 247.998 53.42 250.191 53.7C252.385 53.98 254.251 54.3067 255.791 54.68V62.59C251.778 62.03 248.861 61.75 247.041 61.75C243.868 61.75 241.675 62.0067 240.461 62.52C239.295 63.0334 238.478 64.3634 238.011 66.51C237.591 68.61 237.381 72.4134 237.381 77.92C237.381 83.0534 237.521 86.7167 237.801 88.91C238.081 91.0567 238.618 92.5034 239.411 93.25C240.251 93.9967 241.651 94.37 243.611 94.37C244.031 94.37 245.151 94.3 246.971 94.16V82.26H242.631Z" fill="#775BC4"/>
<path d="M282.273 102V82.19H272.403V102H262.813V53.84H272.403V73.3H282.273V53.84H291.863V102H282.273Z" fill="#775BC4"/>
<path d="M299.112 102V53.84H322.491V62.31H308.771V73.44H320.602V81.91H308.771V93.53H322.491V102H299.112Z" fill="#775BC4"/>
<path d="M336.345 102V62.59H327.245V53.84H355.105V62.59H346.005V102H336.345Z" fill="#775BC4"/>
<path d="M368.123 102V62.59H359.023V53.84H386.883V62.59H377.783V102H368.123Z" fill="#775BC4"/>
<path d="M391.291 102V53.84H400.881V102H391.291Z" fill="#775BC4"/>
<path d="M420.752 53.84H433.772C438.719 53.84 442.242 54.54 444.342 55.94C446.489 57.2934 447.819 59.51 448.332 62.59C448.846 65.6234 449.102 70.7334 449.102 77.92C449.102 85.1067 448.846 90.24 448.332 93.32C447.819 96.3534 446.489 98.57 444.342 99.97C442.242 101.323 438.719 102 433.772 102H420.752V53.84ZM433.632 93.53C435.686 93.53 437.062 93.2967 437.762 92.83C438.509 92.3167 438.976 91.08 439.162 89.12C439.396 87.16 439.512 83.4267 439.512 77.92C439.512 72.46 439.396 68.75 439.162 66.79C438.929 64.7834 438.462 63.5467 437.762 63.08C437.062 62.5667 435.686 62.31 433.632 62.31H430.342V93.53H433.632Z" fill="#775BC4"/>
<path d="M455.479 102V53.84H478.859V62.31H465.139V73.44H476.969V81.91H465.139V93.53H478.859V102H455.479Z" fill="#775BC4"/>
<path d="M492.722 102V62.59H483.622V53.84H511.482V62.59H502.382V102H492.722Z" fill="#775BC4"/>
<path d="M515.82 102V53.84H539.2V62.31H525.48V73.44H537.31V81.91H525.48V93.53H539.2V102H515.82Z" fill="#775BC4"/>
<path d="M567.852 101.37C566.872 101.697 565.589 101.977 564.002 102.21C562.462 102.443 560.992 102.56 559.592 102.56C555.206 102.56 551.986 101.837 549.932 100.39C547.879 98.9434 546.502 96.54 545.802 93.18C545.149 89.82 544.822 84.7334 544.822 77.92C544.822 71.1534 545.172 66.09 545.872 62.73C546.572 59.3234 547.949 56.8967 550.002 55.45C552.102 54.0034 555.299 53.28 559.592 53.28C561.132 53.28 562.649 53.3967 564.142 53.63C565.682 53.8167 566.872 54.0734 567.712 54.4V62.24C565.006 61.9134 562.952 61.75 561.552 61.75C559.172 61.75 557.516 62.0767 556.582 62.73C555.696 63.3367 555.112 64.6667 554.832 66.72C554.599 68.7734 554.482 72.5067 554.482 77.92C554.482 83.3334 554.599 87.0667 554.832 89.12C555.112 91.1734 555.696 92.5267 556.582 93.18C557.516 93.7867 559.172 94.09 561.552 94.09C563.699 94.09 565.799 93.9267 567.852 93.6V101.37Z" fill="#775BC4"/>
<path d="M580.987 102V62.59H571.887V53.84H599.747V62.59H590.647V102H580.987Z" fill="#775BC4"/>
<path d="M604.155 102V53.84H613.745V102H604.155Z" fill="#775BC4"/>
<path d="M627.407 102L618.167 53.84H627.967L634.267 91.92H634.897L640.987 53.84H650.647L641.407 102H627.407Z" fill="#775BC4"/>
<path d="M654.721 102V53.84H678.101V62.31H664.381V73.44H676.211V81.91H664.381V93.53H678.101V102H654.721Z" fill="#775BC4"/>
<path fill-rule="evenodd" clip-rule="evenodd" d="M355.27 149.007C359.445 153.943 366.905 152.709 369.78 146.753C364.997 147.496 360.143 148.25 355.27 149.007M345.154 149.003C340.264 148.249 335.4 147.5 330.428 146.735C334.692 152.952 340.989 153.888 345.154 149.003M350.184 211.823C343.47 198.528 333.692 188.321 322.577 179.238C322.098 178.847 322.039 177.772 322.046 177.019C322.052 176.492 322.506 175.97 322.76 175.445C325.066 170.688 325.085 170.66 320.619 167.539C314.748 163.437 308.081 161.085 301.351 158.88C300.588 158.63 299.827 158.377 298.265 157.861C301.763 155.116 304.698 152.607 307.844 150.401C310.96 148.216 314.29 146.337 317.956 144.057C316.312 143.625 315.019 143.3 313.735 142.945C308.189 141.411 302.685 139.761 298.086 136.085C293.617 132.511 293.584 128.146 298.118 124.67C303.88 120.25 310.759 118.488 317.661 116.884C320.466 116.232 323.328 115.817 326.506 115.231C326.229 117.017 326.164 118.506 325.741 119.886C325.187 121.693 325.819 122.382 327.532 122.852C336.608 125.344 345.858 126.343 355.204 125.558C360.975 125.072 366.68 123.817 372.419 122.936C374.411 122.631 375.373 121.826 374.618 119.623C374.194 118.385 374.161 117.013 373.886 115.294C375.303 115.516 376.589 115.594 377.803 115.93C384.113 117.675 390.462 119.312 396.673 121.365C398.964 122.123 401.116 123.682 402.978 125.285C406.689 128.478 406.52 132.577 402.774 135.737C398.533 139.315 393.389 141.005 388.187 142.537C386.441 143.052 384.665 143.465 382.363 144.064C389.359 148.243 396.135 152.023 401.558 157.823C396.527 159.767 391.631 161.348 387.027 163.541C383.54 165.201 380.406 167.614 377.151 169.747C375.957 170.53 375.7 171.542 376.403 172.954C377.301 174.756 378.776 176.898 378.403 178.527C378.041 180.103 375.624 181.183 374.158 182.534C365.314 190.686 357.139 199.397 351.28 210.033C351.001 210.539 350.677 211.02 350.184 211.823" fill="white"/>
<path fill-rule="evenodd" clip-rule="evenodd" d="M373.582 114.931C357.913 119.146 342.547 119.069 326.809 114.985C327.835 109.508 328.465 104.201 329.974 99.1572C330.491 97.4262 333.011 95.9042 334.952 95.0612C341.109 92.3912 347.703 91.8242 354.288 92.6082C358.364 93.0942 362.403 94.2242 366.338 95.4532C369.203 96.3492 370.832 98.4792 371.213 101.737C371.712 106.014 372.713 110.233 373.582 114.931" fill="white"/>
</svg>
