<?xml version="1.0" encoding="UTF-8"?> <svg width="701px" height="256px" viewBox="0 0 701 256" version="1.1" xmlns="http://www.w3.org/2000/svg" xmlns:xlink="http://www.w3.org/1999/xlink"> <g id="Page-1" stroke="none" stroke-width="1" fill="none" fill-rule="evenodd"> <g id="Artboard-1" transform="translate(-190.000000, -227.000000)"> <g id="Group-2" transform="translate(190.203900, 227.498500)"> <path d="M700,0 L700,147.73 L493.73,147.73 C475.09,147.73 458.57,159.94 453.36,177.84 C451.49,184.28 449.03,190.46 446.05,196.34 C428.3,231.37 391.95,255.37 349.99,255.37 C301,255.37 259.65,222.63 246.62,177.84 C241.42,159.94 224.891,147.73 206.26,147.73 L0,147.73 L0,0 L700,0 Z" id="Fill-3" fill="#9965F4"></path> <text id="THE-SPAGHETTI-DETECT" font-family="DINCondensed-Bold, DIN Condensed" font-size="80" font-style="condensed" font-weight="bold" fill="#775BC4"> <tspan x="28.7985" y="99.4693063">THE S</tspan> <tspan x="166.3985" y="99.4693063" letter-spacing="-2.32">P</tspan> <tspan x="193.6785" y="99.4693063" letter-spacing="0.32">A</tspan> <tspan x="226.5585" y="99.4693063">GH</tspan> <tspan x="294.7185" y="99.4693063" letter-spacing="1.432">E</tspan> <tspan x="325.7505" y="99.4693063" letter-spacing="2.24">T</tspan> <tspan x="354.5505" y="99.4693063">TI D</tspan> <tspan x="446.3905" y="99.4693063" letter-spacing="1.44">E</tspan> <tspan x="477.4305" y="99.4693063">T</tspan> <tspan x="503.9905" y="99.4693063" letter-spacing="0.4">E</tspan> <tspan x="533.9905" y="99.4693063" letter-spacing="1.192">C</tspan> <tspan x="567.7425" y="99.4693063">TI</tspan> <tspan x="610.6225" y="99.4693063" letter-spacing="-0.32">V</tspan> <tspan x="642.8625" y="99.4693063">E</tspan> </text> <g id="Group" transform="translate(294.522275, 91.784925)" fill="#FFFFFF"> <path d="M60.544125,56.7238747 C64.719125,61.6598747 72.179125,60.4258747 75.054125,54.4698747 C70.271125,55.2128747 65.417125,55.9668747 60.544125,56.7238747 M50.428125,56.7198747 C45.538125,55.9658747 40.674125,55.2168747 35.702125,54.4518747 C39.966125,60.6688747 46.263125,61.6048747 50.428125,56.7198747 M55.458125,119.539875 C48.744125,106.244875 38.966125,96.0378747 27.851125,86.9548747 C27.372125,86.5638747 27.313125,85.4888747 27.320125,84.7358747 C27.326125,84.2088747 27.780125,83.6868747 28.034125,83.1618747 C30.340125,78.4048747 30.359125,78.3768747 25.893125,75.2558747 C20.022125,71.1538747 13.355125,68.8018747 6.62512501,66.5968747 C5.86212501,66.3468747 5.10112501,66.0938747 3.53912501,65.5778747 C7.03712501,62.8328747 9.97212501,60.3238747 13.118125,58.1178747 C16.234125,55.9328747 19.564125,54.0538747 23.230125,51.7738747 C21.586125,51.3418747 20.293125,51.0168747 19.009125,50.6618747 C13.463125,49.1278747 7.95912501,47.4778747 3.36012501,43.8018747 C-1.10887499,40.2278747 -1.14187499,35.8628747 3.39212501,32.3868747 C9.15412501,27.9668747 16.033125,26.2048747 22.935125,24.6008747 C25.740125,23.9488747 28.602125,23.5338747 31.780125,22.9478747 C31.503125,24.7338747 31.438125,26.2228747 31.015125,27.6028747 C30.461125,29.4098747 31.093125,30.0988747 32.806125,30.5688747 C41.882125,33.0608747 51.132125,34.0598747 60.478125,33.2748747 C66.249125,32.7888747 71.954125,31.5338747 77.693125,30.6528747 C79.685125,30.3478747 80.647125,29.5428747 79.892125,27.3398747 C79.468125,26.1018747 79.435125,24.7298747 79.160125,23.0108747 C80.577125,23.2328747 81.863125,23.3108747 83.077125,23.6468747 C89.387125,25.3918747 95.736125,27.0288747 101.947125,29.0818747 C104.238125,29.8398747 106.390125,31.3988747 108.252125,33.0018747 C111.963125,36.1948747 111.794125,40.2938747 108.048125,43.4538747 C103.807125,47.0318747 98.663125,48.7218747 93.461125,50.2538747 C91.715125,50.7688747 89.939125,51.1818747 87.637125,51.7808747 C94.633125,55.9598747 101.409125,59.7398747 106.832125,65.5398747 C101.801125,67.4838747 96.905125,69.0648747 92.301125,71.2578747 C88.814125,72.9178747 85.680125,75.3308747 82.425125,77.4638747 C81.231125,78.2468747 80.974125,79.2588747 81.677125,80.6708747 C82.575125,82.4728747 84.050125,84.6148747 83.677125,86.2438747 C83.315125,87.8198747 80.898125,88.8998747 79.432125,90.2508747 C70.588125,98.4028747 62.413125,107.113875 56.554125,117.749875 C56.275125,118.255875 55.951125,118.736875 55.458125,119.539875" id="Fill-19"></path> <path d="M78.855625,22.6477747 C63.186625,26.8627747 47.820625,26.7857747 32.082625,22.7017747 C33.108625,17.2247747 33.738625,11.9177747 35.247625,6.87377475 C35.764625,5.14277475 38.284625,3.62077475 40.225625,2.77777475 C46.382625,0.107774747 52.976625,-0.459225253 59.561625,0.324774747 C63.637625,0.810774747 67.676625,1.94077475 71.611625,3.16977475 C74.476625,4.06577475 76.105625,6.19577475 76.486625,9.45377475 C76.985625,13.7307747 77.986625,17.9497747 78.855625,22.6477747" id="Fill-21"></path> </g> </g> </g> </g> </svg>