<?xml version="1.0" encoding="UTF-8"?>
<svg width="123px" height="33px" viewBox="0 0 123 33" version="1.1" xmlns="http://www.w3.org/2000/svg" xmlns:xlink="http://www.w3.org/1999/xlink">
    <!-- Generator: Sketch 64 (93537) - https://sketch.com -->
    <title>Group 3</title>
    <desc>Created with Sketch.</desc>
    <g id="Page-1" stroke="none" stroke-width="1" fill="none" fill-rule="evenodd">
        <g id="Artboard-3" transform="translate(-629.000000, -773.000000)" fill="#FFFFFF">
            <g id="Group-3" transform="translate(628.994537, 773.895357)">
                <path d="M21.8324635,9.29824318 C17.5524635,12.2662432 18.0454635,18.0112432 22.5744635,20.2182432 C22.4854635,20.4832432 22.4054635,20.7602432 22.3004635,21.0272432 C21.5814635,22.8472432 20.5244635,24.4652432 19.2474635,25.9312432 C17.8924635,27.4862432 16.4474635,27.8622432 14.5704635,27.0272432 C12.6664635,26.1812432 10.8424635,26.1882432 8.97346347,27.0662432 C7.29346347,27.8542432 5.82246347,27.4942432 4.59246347,26.1352432 C1.59446347,22.8222432 -0.031536534,18.9552432 0.00046346603,14.4602432 C0.014463466,12.5292432 0.558463466,10.7352432 1.79146347,9.20324318 C3.63946347,6.90924318 6.41646347,6.14824318 9.17446347,7.16624318 C9.22046347,7.18424318 9.26946347,7.19424318 9.31146347,7.21724318 C10.7304635,8.00524318 12.1144635,7.94324318 13.5814635,7.24524318 C15.4154635,6.37324318 17.3244635,6.35924318 19.2104635,7.16424318 C20.2694635,7.61624318 21.1454635,8.29924318 21.8324635,9.29824318" id="Fill-297"></path>
                <path d="M85.4808635,16.7152432 C85.1158635,16.7152432 84.8478635,16.6962432 84.5848635,16.7182432 C83.7788635,16.7832432 83.0988635,16.7812432 82.8428635,15.7282432 C82.7438635,15.3182432 82.1958635,14.9202432 81.7588635,14.7082432 C80.5778635,14.1352432 79.3348635,14.1562432 78.1308635,14.6822432 C77.3298635,15.0322432 76.8358635,15.6532432 76.8328635,16.5622432 C76.8288635,17.4512432 77.3958635,17.9662432 78.1528635,18.2312432 C79.0968635,18.5612432 80.0778635,18.7852432 81.0388635,19.0702432 C81.8108635,19.3002432 82.5988635,19.5012432 83.3408635,19.8072432 C84.7038635,20.3662432 85.6158635,21.3292432 85.7288635,22.8742432 C85.8518635,24.5472432 85.2808635,25.9162432 83.8478635,26.8432432 C82.4078635,27.7752432 80.7748635,28.0202432 79.1198635,27.8162432 C78.1208635,27.6932432 77.0938635,27.4052432 76.1918635,26.9622432 C74.8318635,26.2932432 74.1318635,25.0762432 74.0008635,23.4892432 L76.2248635,23.4892432 C77.3738635,25.6162432 79.2088635,26.4062432 81.4428635,25.6782432 C81.8938635,25.5312432 82.3498635,25.2782432 82.6998635,24.9582432 C83.6508635,24.0902432 83.5438635,22.6682432 82.4348635,22.0202432 C81.7518635,21.6202432 80.9528635,21.4022432 80.1858635,21.1652432 C79.1128635,20.8322432 77.9938635,20.6302432 76.9448635,20.2372432 C75.4638635,19.6832432 74.4818635,18.6502432 74.4048635,16.9692432 C74.3248635,15.2212432 75.0988635,13.9132432 76.6238635,13.1332432 C78.7568635,12.0402432 80.9718635,12.0102432 83.1308635,13.0602432 C84.5728635,13.7612432 85.3988635,14.9462432 85.4808635,16.7152432" id="Fill-298"></path>
                <path d="M47.4798635,22.0209432 C47.7088635,22.8289432 47.8338635,23.5869432 48.1388635,24.2629432 C48.5888635,25.2579432 49.4408635,25.7759432 50.5478635,25.7719662 C51.6518635,25.7679432 52.4958635,25.2589432 52.9668635,24.2669432 C53.6818635,22.7629432 53.7028635,21.2139432 52.9118635,19.7429432 C51.8938635,17.8519432 49.2748635,17.8149432 48.2358635,19.6899432 C47.8458635,20.3919432 47.7228635,21.2419432 47.4798635,22.0209432 L47.4798635,22.0209432 Z M47.6458635,31.2459432 L45.4098635,31.2459432 L45.4098635,16.5409432 L47.5448635,16.5409432 L47.5448635,18.2239432 C47.7508635,18.0279432 47.8348635,17.9589432 47.9058635,17.8769432 C49.8268635,15.6819432 53.3428635,15.8809432 54.8288635,18.3859432 C56.2498635,20.7819432 56.2458635,23.3329432 54.8258635,25.7269432 C53.3378635,28.2359432 49.7948635,28.4049432 47.9338635,26.1689432 C47.8768635,26.1019432 47.8118635,26.0409432 47.6458635,25.8669432 L47.6458635,31.2459432 Z" id="Fill-299"></path>
                <path d="M39.5199635,21.8080432 C38.7539635,19.5530432 38.0309635,17.4230432 37.3059635,15.2930432 C37.2499635,15.2950432 37.1939635,15.2980432 37.1379635,15.3000432 C36.4079635,17.4530432 35.6769635,19.6060432 34.9299635,21.8080432 L39.5199635,21.8080432 Z M43.9869635,27.8140432 C43.8399635,27.8490432 43.7919635,27.8690432 43.7449635,27.8700432 C41.5679635,27.9800432 41.5729635,27.9780432 40.8759635,25.9400432 C40.6319635,25.2240432 40.5479635,24.2480432 40.0389635,23.8850432 C39.5279635,23.5210432 38.5789635,23.7610432 37.8219635,23.7540432 C36.8409635,23.7450432 35.8599635,23.7760432 34.8799635,23.7420432 C34.4269635,23.7260432 34.2359635,23.9040432 34.1079635,24.3150432 C33.7879635,25.3430432 33.4129635,26.3550432 33.0869635,27.3820432 C32.9749635,27.7370432 32.8119635,27.9080432 32.4169635,27.8880432 C31.8079635,27.8580432 31.1979635,27.8800432 30.4849635,27.8800432 C30.5779635,27.5780432 30.6369635,27.3500432 30.7159635,27.1300432 C32.3859635,22.4980432 34.0649635,17.8700432 35.7209635,13.2330432 C35.8829635,12.7770432 36.0739635,12.5790432 36.5949635,12.5839509 C38.5159635,12.6000432 38.5169635,12.5770432 39.1649635,14.3660432 C40.6969635,18.6040432 42.2289635,22.8430432 43.7589635,27.0820432 C43.8399635,27.3080432 43.9019635,27.5390432 43.9869635,27.8140432 L43.9869635,27.8140432 Z" id="Fill-300"></path>
                <path d="M66.0443635,22.0541432 C65.7953635,21.2391432 65.6773635,20.4141432 65.3073635,19.7261432 C64.3093635,17.8661432 61.7233635,17.8191432 60.6703635,19.6441432 C59.7593635,21.2211432 59.7623635,22.9021432 60.6783635,24.4761432 C61.7203635,26.2671432 64.2763635,26.2411432 65.2773635,24.4281432 C65.6663635,23.7241432 65.7883635,22.8741432 66.0443635,22.0541432 M60.0563635,25.9191432 L60.0563635,31.2231432 L57.8303635,31.2231432 L57.8303635,16.5571432 L59.9783635,16.5571432 L59.9783635,18.2781432 C60.9653635,17.0241432 62.0723635,16.4001432 63.4843635,16.3941003 C65.3943635,16.3871432 66.8053635,17.2371432 67.5843635,18.9641432 C68.5083635,21.0101432 68.5143635,23.1251432 67.5743635,25.1641432 C66.1983635,28.1521432 62.4213635,28.6151432 60.3073635,26.1041432 C60.2663635,26.0551432 60.2023635,26.0261432 60.0563635,25.9191432" id="Fill-301"></path>
                <path d="M120.272863,20.9818432 C120.251863,19.3628432 119.203863,18.2718432 117.676863,18.2248432 C116.097863,18.1758432 114.918863,19.2908432 114.806863,20.9818432 L120.272863,20.9818432 Z M122.675863,22.6308432 L114.841863,22.6308432 C114.624863,23.8578432 115.244863,25.0628432 116.322863,25.5918432 C117.484863,26.1618432 119.183863,25.9918432 119.847863,25.0578432 C120.312863,24.4058432 120.825863,24.2998432 121.502863,24.3508432 C121.792863,24.3738432 122.084863,24.3548432 122.455863,24.3548432 C122.342863,25.2878432 121.922863,25.9838432 121.267863,26.5108432 C119.573863,27.8758432 117.647863,28.0628432 115.651863,27.3868432 C113.764863,26.7498432 112.837863,25.2668432 112.528863,23.3748432 C112.316863,22.0758432 112.396863,20.7848432 112.874863,19.5408432 C113.727863,17.3158432 115.699863,16.1838432 118.282863,16.4268432 C120.464863,16.6318432 122.080863,18.1418432 122.477863,20.4078432 C122.598863,21.0958432 122.605863,21.8058432 122.675863,22.6308432 L122.675863,22.6308432 Z" id="Fill-302"></path>
                <path d="M96.2240635,22.0941432 C96.3490635,22.7271432 96.4120635,23.3651432 96.6080635,23.9611432 C97.0230635,25.2281432 97.9690635,25.8681432 99.2650635,25.8551432 C100.505063,25.8421432 101.433063,25.1821432 101.845063,23.9461432 C102.260063,22.7041432 102.260063,21.4391432 101.850063,20.1961432 C101.434063,18.9361432 100.468063,18.2521432 99.2080635,18.25909 C97.9420635,18.2661432 96.9950635,18.9401432 96.5910635,20.2181432 C96.4020635,20.8161432 96.3440635,21.4551432 96.2240635,22.0941432 M104.454063,22.2511432 C104.415063,22.5741432 104.386063,23.0891432 104.288063,23.5901432 C103.773063,26.2381432 101.849063,27.7781432 99.1300635,27.7411432 C96.4400635,27.7051432 94.4930635,26.0741432 94.1320635,23.4151432 C94.0000635,22.4391432 94.0020635,21.4001432 94.1820635,20.4341432 C94.6870635,17.7191432 96.8030635,16.2331432 99.7100635,16.4111432 C102.314063,16.5711432 104.127063,18.4131432 104.399063,21.1821432 C104.427063,21.4731432 104.430063,21.7681432 104.454063,22.2511432" id="Fill-303"></path>
                <path d="M92.6322635,16.4516432 L92.6322635,18.2636432 L90.6012635,18.2636432 C90.6012635,20.4536432 90.5832635,22.5546432 90.6132635,24.6536432 C90.6212635,25.2026432 91.0022635,25.5446432 91.5542635,25.6216432 C91.8912635,25.6686432 92.2342635,25.6636432 92.5682635,25.6806432 C92.5982635,25.7346432 92.6412635,25.7766432 92.6422635,25.8196432 C92.6742635,27.7006432 92.9042635,27.4676432 91.1272635,27.4616432 C89.1492635,27.4546432 88.3122635,26.6066432 88.2822635,24.6236432 C88.2522635,22.5456432 88.2762635,20.4656432 88.2762635,18.3046432 C87.7292635,18.2756432 87.2332635,18.2496432 86.6982635,18.2226432 L86.6982635,16.5226432 C87.2102635,16.4966432 87.6892635,16.4716432 88.2462635,16.4416432 L88.2462635,13.9726432 L90.5522635,13.9726432 L90.5522635,16.4516432 L92.6322635,16.4516432 Z" id="Fill-304"></path>
                <path d="M106.476963,16.5277432 L108.573963,16.5277432 C108.597963,17.0137432 108.621963,17.4677432 108.653963,18.0917432 C108.857963,17.8117432 108.970963,17.6507432 109.088963,17.4937432 C109.756963,16.5977432 110.676963,16.2987432 111.744963,16.4297432 C111.902963,16.4497432 112.132963,16.7067432 112.150963,16.8727432 C112.204963,17.3777432 112.169963,17.8917432 112.169963,18.4547432 C111.853963,18.4547432 111.594963,18.4617432 111.336963,18.4537432 C109.705963,18.4027432 108.765963,19.2717432 108.720963,20.9357432 C108.686963,22.1847432 108.711963,23.4357432 108.710963,24.6857432 L108.710963,27.4307432 L106.476963,27.4307432 L106.476963,16.5277432 Z" id="Fill-305"></path>
                <path d="M33.1751635,7.48284318 C34.3981635,7.47784318 35.6501635,7.77584318 36.4681635,6.53484318 C37.0611635,5.63384318 37.0381635,4.02584318 36.4161635,3.17384318 C35.5751635,2.02484318 34.3661635,2.28384318 33.1751635,2.31184318 L33.1751635,7.48284318 Z M32.0451635,8.52384318 L32.0451635,1.15284318 C33.4001635,1.26184318 34.7211635,1.36284318 36.0411635,1.48384318 C36.2001635,1.49884318 36.3561635,1.61484318 36.5031635,1.70084318 C37.7721635,2.43984318 38.3391635,4.23584318 37.8961635,6.09284318 C37.5441635,7.56284318 36.5111635,8.44284318 34.9631635,8.51584318 C34.0151635,8.55984318 33.0641635,8.52384318 32.0451635,8.52384318 L32.0451635,8.52384318 Z" id="Fill-306"></path>
                <path d="M16.7679635,0.000443178772 C17.2859635,3.09344318 14.3159635,6.44544318 11.2559635,6.27944318 C10.3739635,3.81444318 13.7389635,-0.0475568212 16.7679635,0.000443178772" id="Fill-307"></path>
                <path d="M49.1859635,4.39104318 C48.8829635,5.43604318 48.5609635,6.47604318 48.2869635,7.52804318 C48.1729635,7.96504318 48.0199635,8.18004318 47.5109635,8.18604318 C46.9909635,8.19304318 46.9119635,7.89604318 46.8099635,7.53004318 C46.3859635,6.00004318 45.9569635,4.47204318 45.5289635,2.94704318 C46.4739635,2.64204318 46.5499635,2.68404318 46.7619635,3.56904318 C47.0129635,4.61604318 47.2669635,5.66104318 47.6759635,6.74004318 C47.8259635,6.19704318 47.9749635,5.65404318 48.1239635,5.11204318 C48.2669635,4.59204318 48.4059635,4.07204318 48.5539635,3.55304318 C48.6649635,3.16604318 48.6799635,2.75704318 49.3049635,2.77104318 C49.8889635,2.78404318 49.8959635,3.16004318 49.9979635,3.52404318 C50.2979635,4.60004318 50.5969635,5.67604318 51.0349635,6.75304318 C51.2899635,5.68704318 51.5939635,4.63004318 51.7849635,3.55304318 C51.9209635,2.77904318 52.3029635,2.65304318 53.0369635,2.89604318 C52.5659635,4.56604318 52.1129635,6.23804318 51.6009635,7.89004318 C51.5529635,8.04104318 51.1219635,8.15904318 50.8799635,8.13804318 C50.6829635,8.12104318 50.3979635,7.91204318 50.3359635,7.72704318 C50.0399635,6.84604318 49.8089635,5.94304318 49.5499635,5.04904318 C49.4859635,4.82904318 49.4029635,4.61504318 49.3289635,4.39704318 C49.2809635,4.39504318 49.2339635,4.39304318 49.1859635,4.39104318" id="Fill-308"></path>
                <path d="M77.0580635,5.66644318 C77.0940635,6.32244318 77.2170635,6.94144318 77.8590635,7.29644318 C78.4370635,7.61644318 79.1760635,7.46444318 79.5880635,6.95844318 C80.1150635,6.31244318 80.1190635,4.99044318 79.5970635,4.33244318 C79.1850635,3.81244318 78.4610635,3.64844318 77.8740635,3.96944318 C77.2040635,4.33444318 77.0820635,4.97944318 77.0580635,5.66644318 M79.9870635,3.80644318 L79.9870635,0.899443179 L80.9880635,0.899443179 L80.9880635,8.29344318 L80.0670635,8.29344318 C80.0340635,8.07644318 80.0020635,7.86744318 79.9670635,7.63344318 C79.8990635,7.65944318 79.8200635,7.66444318 79.7830635,7.70644318 C79.1550635,8.40844318 78.3630635,8.55644318 77.5070635,8.29844318 C76.6160635,8.02944318 76.1870635,7.32244318 76.0360635,6.45044318 C75.9640635,6.04644318 75.9500635,5.62144318 75.9820635,5.21144318 C76.0580635,4.26044318 76.3960635,3.42644318 77.3480635,3.03844318 C78.3020635,2.65044318 79.1620635,2.86244318 79.9870635,3.80644318" id="Fill-309"></path>
                <path d="M115.696663,5.10884318 C115.544663,4.14184318 115.110663,3.73384318 114.321663,3.74884318 C113.539663,3.76284318 113.074663,4.21984318 112.980663,5.10884318 L115.696663,5.10884318 Z M116.776663,6.79584318 C116.338663,8.22584318 114.992663,8.82884318 113.578663,8.44784318 C112.207663,8.07984318 111.476663,6.55384318 111.860663,4.85984318 C112.196663,3.37584318 113.374663,2.58684318 114.860663,2.85084318 C116.251663,3.09984318 117.025663,4.30184318 116.796663,5.95084318 L112.979663,5.95084318 C112.884663,6.64784318 113.131663,7.12584318 113.654663,7.41384318 C114.257663,7.74484318 114.859663,7.66184318 115.461663,7.30084318 C115.813663,7.08884318 116.237663,6.99684318 116.776663,6.79584318 L116.776663,6.79584318 Z" id="Fill-310"></path>
                <path d="M73.4935635,5.94374318 C72.8655635,6.00474318 72.2665635,5.98774318 71.7185635,6.14574318 C71.4485635,6.22274318 71.0845635,6.63974318 71.1045635,6.87374318 C71.1265635,7.13074318 71.5035635,7.48974318 71.7905635,7.56874318 C72.7915635,7.84074318 73.5345635,7.16074318 73.4935635,5.94374318 M73.6895635,5.06174318 C73.4675635,4.62374318 73.3535635,4.04074318 73.0935635,3.96474318 C72.6045635,3.82274318 72.0205635,3.92274318 71.4965635,4.02074318 C71.0865635,4.09774318 70.7055635,4.32574318 70.1295635,4.56074318 C70.2365635,4.14574318 70.2485635,3.97574318 70.3215635,3.83874318 C70.7645635,3.00374318 71.9595635,2.61374318 73.1845635,2.89074318 C74.1695635,3.11474318 74.6225635,3.68974318 74.6395635,4.80174318 C74.6565635,5.99574318 74.6425635,7.18974318 74.6425635,8.42274318 L73.6575635,8.42274318 C73.6035635,8.23174318 73.5485635,8.03274318 73.4725635,7.76674318 C72.8985635,8.40974318 72.2035635,8.62574318 71.4005635,8.50274318 C70.5555635,8.37374318 69.9955635,7.79374318 69.9485635,7.00074318 C69.9015635,6.19174318 70.2885635,5.60474318 71.1585635,5.40274318 C71.9115635,5.22774318 72.6955635,5.18974318 73.6895635,5.06174318" id="Fill-311"></path>
                <path d="M105.751363,0.863743179 L106.818363,0.863743179 L106.818363,2.22374318 L106.818363,3.51574318 C107.420363,3.30174318 107.994363,2.96774318 108.595363,2.91074318 C109.621363,2.81274318 110.363363,3.47174318 110.419363,4.50474318 C110.487363,5.77074318 110.436363,7.04574318 110.436363,8.36574318 L109.384363,8.36574318 C109.384363,7.27874318 109.410363,6.20974318 109.376363,5.14174318 C109.344363,4.09774318 108.638363,3.61774318 107.685363,3.94574318 C107.095363,4.14874318 106.859363,4.61374318 106.845363,5.19874318 C106.825363,5.98174318 106.833363,6.76674318 106.830363,7.55074318 C106.829363,7.81174318 106.830363,8.07374318 106.830363,8.36974318 L105.751363,8.36974318 L105.751363,1.72474318 L105.751363,0.863743179 Z" id="Fill-312"></path>
                <path d="M89.7660635,5.68014318 C89.7220635,5.37914318 89.7100635,5.10814318 89.6400635,4.85214318 C89.4430635,4.13914318 88.9400635,3.76214318 88.2570635,3.78314318 C87.5400635,3.80314318 87.0910635,4.21714318 86.9750635,4.87014318 C86.8790635,5.40914318 86.8890635,5.99414318 86.9930635,6.53214318 C87.1210635,7.19814318 87.6110635,7.57714318 88.3120635,7.57317452 C88.9760635,7.56914318 89.4160635,7.21214318 89.6060635,6.58314318 C89.6960635,6.28414318 89.7180635,5.96314318 89.7660635,5.68014318 M90.8550635,5.69714318 C90.8450635,7.46814318 89.8700635,8.54214318 88.2800635,8.53418756 C86.7020635,8.52514318 85.7420635,7.43314318 85.7500139,5.65414318 C85.7580635,3.89614318 86.7590635,2.78414318 88.3230635,2.79814318 C89.8820635,2.81214318 90.8660635,3.93614318 90.8550635,5.69714318" id="Fill-313"></path>
                <path d="M67.5540635,5.79634318 C67.5010635,5.41434318 67.4910635,5.14234318 67.4220635,4.88634318 C67.2230635,4.13634318 66.7030635,3.74534318 65.9920635,3.78134318 C65.3320635,3.81634318 64.7940635,4.24034318 64.7280635,4.97834318 C64.6730635,5.59034318 64.6880635,6.27434318 64.9160635,6.82234318 C65.0620635,7.17134318 65.6540635,7.51834318 66.0510635,7.52534318 C66.4490635,7.53234318 66.9440635,7.19234318 67.2290635,6.86134318 C67.4700635,6.58134318 67.4720635,6.09534318 67.5540635,5.79634318 M63.52802,5.69734318 C63.5190635,3.63134318 64.9080635,2.43334318 66.7790635,2.89334318 C66.9210635,2.92834318 67.0620635,2.97534318 67.1950635,3.03534318 C68.4590635,3.60334318 69.0080635,5.43834318 68.3900635,7.02134318 C67.8990635,8.27934318 66.5170635,8.86734318 65.1570635,8.39834318 C64.1160635,8.03734318 63.5330635,7.07334318 63.52802,5.69734318" id="Fill-314"></path>
                <path d="M40.4076635,5.58924318 C40.4576635,5.90124318 40.4786635,6.19524318 40.5536635,6.47624318 C40.7466635,7.19724318 41.2456635,7.60024318 41.9126635,7.57424318 C42.6136635,7.54824318 43.1026635,7.16724318 43.2036635,6.49724318 C43.2916635,5.91124318 43.2806635,5.27924318 43.1566635,4.70224318 C43.0276635,4.10724318 42.5426635,3.78524318 41.8996635,3.78120578 C41.2606635,3.77724318 40.8296635,4.09424318 40.6136635,4.67824318 C40.5056635,4.97124318 40.4716635,5.29124318 40.4076635,5.58924318 M44.4256635,5.67324318 C44.4246635,7.40724318 43.5376635,8.47024318 42.0366635,8.53024318 C41.0256635,8.57124318 40.1586635,8.25724318 39.7156635,7.30624318 C39.1416635,6.07824318 39.1206635,4.81124318 39.9546635,3.68224318 C40.5896635,2.82124318 41.5356635,2.66924318 42.5396635,2.88524318 C43.7496635,3.14424318 44.4256635,4.15924318 44.4256635,5.67324318" id="Fill-315"></path>
                <path d="M59.0882635,8.49354318 L57.9772635,8.49354318 C57.9772635,7.50754318 57.9792635,6.53854318 57.9762635,5.56954318 C57.9722635,4.30054318 57.6612635,3.83454318 56.8172635,3.82254318 C55.9152635,3.81054318 55.4652635,4.39954318 55.4602635,5.60754318 C55.4552635,6.55554318 55.4592635,7.50354318 55.4592635,8.49354318 L54.4252635,8.49354318 L54.4252635,2.95454318 L55.3842635,2.95454318 C55.4112635,3.18754318 55.4372635,3.39854318 55.4622635,3.61754318 C55.7932635,3.37954318 56.0732635,3.08854318 56.4152635,2.94654318 C57.6522635,2.43654318 58.8242635,3.10954318 59.0372635,4.43254318 C59.0962635,4.79154318 59.0832635,5.16354318 59.0862635,5.52954318 C59.0922635,6.50354318 59.0882635,7.47654318 59.0882635,8.49354318" id="Fill-316"></path>
                <path d="M96.8636635,8.49064318 L95.7606635,8.49064318 C95.7606635,7.39764318 95.7696635,6.35164318 95.7596635,5.30464318 C95.7496635,4.26364318 95.3736635,3.81064318 94.5596635,3.82364318 C93.7426635,3.83764318 93.2676635,4.37664318 93.2526635,5.35464318 C93.2366635,6.37764318 93.2496635,7.40064318 93.2496635,8.48064318 L92.2236635,8.48064318 L92.2236635,2.96864318 L93.1646635,2.96864318 C93.1946635,3.17064318 93.2246635,3.37964318 93.2596635,3.61864318 C93.3286635,3.58464318 93.4006635,3.57064318 93.4356635,3.52664318 C94.0366635,2.76664318 94.8266635,2.66164318 95.6836635,2.92564318 C96.5376635,3.18764318 96.8256635,3.89964318 96.8516635,4.69764318 C96.8936635,5.93964318 96.8636635,7.18264318 96.8636635,8.49064318" id="Fill-317"></path>
                <path d="M104.138063,7.58734318 L104.138063,8.28334318 C102.635063,8.66434318 101.928063,8.14334318 101.918063,6.67634318 C101.912063,5.75334318 101.917063,4.82934318 101.917063,3.87234318 C101.619063,3.82934318 101.385063,3.79634318 101.099063,3.75534318 L101.099063,2.95334318 C101.334063,2.92034318 101.569063,2.88734318 101.869063,2.84534318 C101.898063,2.43234318 101.927063,2.00734318 101.959063,1.53934318 L102.951063,1.53934318 C102.978063,1.97734318 103.004063,2.38234318 103.034063,2.84534318 C103.385063,2.87334318 103.715063,2.90034318 104.130063,2.93634318 C104.146063,3.18234318 104.162063,3.43434318 104.182063,3.74934318 C103.786063,3.78634318 103.436063,3.81834318 103.025063,3.85634318 C103.025063,4.87934318 102.953063,5.88234318 103.067063,6.86234318 C103.102063,7.16034318 103.648063,7.39934318 103.959063,7.66434318 C104.019063,7.63934318 104.078063,7.61234318 104.138063,7.58734318" id="Fill-318"></path>
                <polygon id="Fill-319" points="60.7774635 8.36764318 61.8364635 8.36764318 61.8364635 0.869643179 60.7774635 0.869643179"></polygon>
            </g>
        </g>
    </g>
</svg>