<?xml version="1.0" encoding="UTF-8"?> <svg width="162px" height="57px" viewBox="0 0 162 57" version="1.1" xmlns="http://www.w3.org/2000/svg" xmlns:xlink="http://www.w3.org/1999/xlink"> <g id="Page-1" stroke="none" stroke-width="1" fill="none" fill-rule="evenodd"> <g id="Artboard-3" transform="translate(-318.000000, -135.000000)" fill="#A679F5"> <path d="M479.6358,143.0365 C454.0398,133.7015 425.7448,132.7575 399.4208,139.2895 C397.7698,139.6745 396.1528,140.1935 394.5168,140.6405 C392.8928,141.1275 391.2368,141.5145 389.6398,142.0845 C386.4388,143.2045 383.1978,144.2155 380.0768,145.5505 C373.7458,147.9895 367.6588,151.0165 361.7238,154.2845 L357.3148,156.8165 L353.0148,159.5275 C351.5648,160.4065 350.1968,161.4085 348.7928,162.3585 L346.6988,163.7985 L344.6568,165.3105 C341.9158,167.3045 339.2738,169.4265 336.6628,171.5845 L333.1948,174.5585 L325.5268,165.8965 C322.3158,174.6305 319.8698,183.3595 318.2948,191.9895 C326.5518,189.0405 334.8408,186.9685 342.9648,185.5955 L335.2978,176.9345 L338.6998,174.0165 C341.2618,171.9005 343.8538,169.8175 346.5418,167.8635 L348.5448,166.3795 L350.5978,164.9675 C351.9738,164.0375 353.3158,163.0525 354.7368,162.1915 L358.9518,159.5335 L363.2738,157.0525 C369.0898,153.8515 375.0518,150.8855 381.2508,148.4975 C384.3058,147.1895 387.4798,146.2025 390.6128,145.1045 C392.1768,144.5445 393.7968,144.1685 395.3858,143.6915 C396.9878,143.2555 398.5698,142.7445 400.1858,142.3695 C413.0808,139.2395 426.3978,137.7535 439.6588,138.3795 C452.9038,138.9765 466.1008,141.4525 478.5358,146.0125 L479.6358,143.0365 Z" id="Fill-278"></path> </g> </g> </svg>