<svg width="162" height="57" viewBox="0 0 162 57" fill="none" xmlns="http://www.w3.org/2000/svg">
<path fill-rule="evenodd" clip-rule="evenodd" d="M161.636 8.03653C136.04 -1.29847 107.745 -2.24246 81.4209 4.28954C79.7699 4.67454 78.1529 5.19354 76.5169 5.64054C74.8929 6.12754 73.2369 6.51454 71.6399 7.08454C68.4389 8.20454 65.1979 9.21554 62.0769 10.5505C55.7459 12.9895 49.6589 16.0165 43.7239 19.2845L39.3149 21.8165L35.0149 24.5275C33.5649 25.4065 32.1969 26.4085 30.7929 27.3585L28.6989 28.7985L26.6569 30.3105C23.9159 32.3045 21.2739 34.4265 18.6629 36.5845L15.1949 39.5585L7.52692 30.8965C4.31592 39.6305 1.86992 48.3595 0.294922 56.9895C8.55192 54.0405 16.8409 51.9685 24.9649 50.5955L17.2979 41.9345L20.6999 39.0165C23.2619 36.9005 25.8539 34.8175 28.5419 32.8635L30.5449 31.3795L32.5979 29.9675C33.9739 29.0375 35.3159 28.0525 36.7369 27.1915L40.9519 24.5335L45.2739 22.0525C51.0899 18.8515 57.0519 15.8855 63.2509 13.4975C66.3059 12.1895 69.4799 11.2025 72.6129 10.1045C74.1769 9.54454 75.7969 9.16853 77.3859 8.69153C78.9879 8.25553 80.5699 7.74454 82.1859 7.36954C95.0809 4.23954 108.398 2.75353 121.659 3.37953C134.904 3.97653 148.101 6.45253 160.536 11.0125L161.636 8.03653Z" fill="#01A299"/>
</svg>
