<svg width="512" height="512" viewBox="0 0 512 512" fill="none" xmlns="http://www.w3.org/2000/svg">
<g clip-path="url(#clip0_5_22)">
<path d="M503.816 236.107L318.915 51.2016C313.637 45.9235 306.602 43.0264 299.101 43.0264C291.592 43.0264 284.561 45.9277 279.283 51.2016L262.496 67.9934C257.222 73.2633 254.316 80.3022 254.316 87.8073C254.316 95.3082 257.222 102.584 262.496 107.854L370.364 215.96H27.6603C12.2088 215.96 0 228.057 0 243.512V267.251C0 282.707 12.2088 296.023 27.6603 296.023H371.588L262.5 404.733C257.226 410.011 254.32 416.858 254.32 424.363C254.32 431.86 257.226 438.807 262.5 444.081L279.287 460.819C284.566 466.097 291.596 468.974 299.105 468.974C306.606 468.974 313.641 466.06 318.919 460.782L503.821 275.88C509.111 270.586 512.021 263.518 512 256.004C512.017 248.466 509.111 241.394 503.816 236.107Z" fill="white"/>
</g>
<defs>
<clipPath id="clip0_5_22">
<rect width="512" height="512" fill="white"/>
</clipPath>
</defs>
</svg>
