<svg width="162" height="57" viewBox="0 0 162 57" fill="none" xmlns="http://www.w3.org/2000/svg">
<path fill-rule="evenodd" clip-rule="evenodd" d="M161.636 8.03653C136.04 -1.29847 107.745 -2.24246 81.4208 4.28954C79.7698 4.67454 78.1528 5.19354 76.5168 5.64054C74.8928 6.12754 73.2368 6.51454 71.6398 7.08454C68.4388 8.20454 65.1978 9.21554 62.0768 10.5505C55.7458 12.9895 49.6588 16.0165 43.7238 19.2845L39.3148 21.8165L35.0148 24.5275C33.5648 25.4065 32.1968 26.4085 30.7928 27.3585L28.6988 28.7985L26.6568 30.3105C23.9158 32.3045 21.2738 34.4265 18.6628 36.5845L15.1948 39.5585L7.52679 30.8965C4.31579 39.6305 1.8698 48.3595 0.2948 56.9895C8.5518 54.0405 16.8408 51.9685 24.9648 50.5955L17.2978 41.9345L20.6998 39.0165C23.2618 36.9005 25.8538 34.8175 28.5418 32.8635L30.5448 31.3795L32.5978 29.9675C33.9738 29.0375 35.3158 28.0525 36.7368 27.1915L40.9518 24.5335L45.2738 22.0525C51.0898 18.8515 57.0518 15.8855 63.2508 13.4975C66.3058 12.1895 69.4798 11.2025 72.6128 10.1045C74.1768 9.54454 75.7968 9.16853 77.3858 8.69153C78.9878 8.25553 80.5698 7.74454 82.1858 7.36954C95.0808 4.23954 108.398 2.75353 121.659 3.37953C134.904 3.97653 148.101 6.45253 160.536 11.0125L161.636 8.03653Z" fill="#00B1A4"/>
</svg>
