<svg width="45" height="53" viewBox="0 0 45 53" fill="none" xmlns="http://www.w3.org/2000/svg">
<path fill-rule="evenodd" clip-rule="evenodd" d="M44.9699 22.9504C44.9699 35.4011 34.9443 45.4959 22.5778 45.4959C10.2104 45.4959 0.184753 35.4011 0.184753 22.9504C0.184753 10.4997 10.2104 0.404907 22.5778 0.404907C34.9443 0.404907 44.9699 10.4997 44.9699 22.9504Z" fill="#00B1A4"/>
<path fill-rule="evenodd" clip-rule="evenodd" d="M43.373 31.3276L33.5308 52.3917L25.064 45.3564L43.373 31.3276Z" fill="#00B1A4"/>
<path fill-rule="evenodd" clip-rule="evenodd" d="M38.2961 23.4429C38.2961 27.9428 34.6723 31.5998 30.1944 31.5998H14.9615C10.4921 31.5998 6.85895 27.9428 6.85895 23.4429C6.85895 18.9345 10.4921 15.2758 14.9615 15.2758H30.1944C34.6723 15.2758 38.2961 18.9345 38.2961 23.4429Z" fill="#2D3E4F"/>
<path fill-rule="evenodd" clip-rule="evenodd" d="M17.5589 23.4379C17.5589 24.5338 16.6768 25.4212 15.5883 25.4212C14.4998 25.4212 13.6176 24.5338 13.6176 23.4379C13.6176 22.3429 14.4998 21.4547 15.5883 21.4547C16.6768 21.4547 17.5589 22.3429 17.5589 23.4379Z" fill="#00B1A4"/>
<path fill-rule="evenodd" clip-rule="evenodd" d="M24.5478 23.4379C24.5478 24.5338 23.6657 25.4212 22.578 25.4212C21.4887 25.4212 20.6065 24.5338 20.6065 23.4379C20.6065 22.3429 21.4887 21.4547 22.578 21.4547C23.6657 21.4547 24.5478 22.3429 24.5478 23.4379Z" fill="#00B1A4"/>
<path fill-rule="evenodd" clip-rule="evenodd" d="M31.5368 23.4379C31.5368 24.5338 30.6546 25.4212 29.567 25.4212C28.4785 25.4212 27.5963 24.5338 27.5963 23.4379C27.5963 22.3429 28.4785 21.4547 29.567 21.4547C30.6546 21.4547 31.5368 22.3429 31.5368 23.4379Z" fill="#00B1A4"/>
<path fill-rule="evenodd" clip-rule="evenodd" d="M36.8352 28.1119L30.6914 36.851L24.5476 28.7975L36.8352 28.1119Z" fill="#2D3E4F"/>
</svg>
