<svg width="45" height="53" viewBox="0 0 45 53" fill="none" xmlns="http://www.w3.org/2000/svg">
<path fill-rule="evenodd" clip-rule="evenodd" d="M44.97 22.9504C44.97 35.4011 34.9444 45.4959 22.5779 45.4959C10.2105 45.4959 0.184814 35.4011 0.184814 22.9504C0.184814 10.4997 10.2105 0.404907 22.5779 0.404907C34.9444 0.404907 44.97 10.4997 44.97 22.9504Z" fill="#01A299"/>
<path fill-rule="evenodd" clip-rule="evenodd" d="M43.373 31.3276L33.5308 52.3917L25.064 45.3564L43.373 31.3276Z" fill="#01A299"/>
<path fill-rule="evenodd" clip-rule="evenodd" d="M38.296 23.4429C38.296 27.9428 34.6722 31.5998 30.1943 31.5998H14.9614C10.492 31.5998 6.85889 27.9428 6.85889 23.4429C6.85889 18.9345 10.492 15.2758 14.9614 15.2758H30.1943C34.6722 15.2758 38.296 18.9345 38.296 23.4429Z" fill="#2D3E4F"/>
<path fill-rule="evenodd" clip-rule="evenodd" d="M17.559 23.4379C17.559 24.5338 16.6769 25.4212 15.5884 25.4212C14.4999 25.4212 13.6177 24.5338 13.6177 23.4379C13.6177 22.3429 14.4999 21.4547 15.5884 21.4547C16.6769 21.4547 17.559 22.3429 17.559 23.4379Z" fill="#01A299"/>
<path fill-rule="evenodd" clip-rule="evenodd" d="M24.5477 23.4379C24.5477 24.5338 23.6656 25.4212 22.5779 25.4212C21.4886 25.4212 20.6064 24.5338 20.6064 23.4379C20.6064 22.3429 21.4886 21.4547 22.5779 21.4547C23.6656 21.4547 24.5477 22.3429 24.5477 23.4379Z" fill="#01A299"/>
<path fill-rule="evenodd" clip-rule="evenodd" d="M31.5367 23.4379C31.5367 24.5338 30.6545 25.4212 29.5669 25.4212C28.4784 25.4212 27.5962 24.5338 27.5962 23.4379C27.5962 22.3429 28.4784 21.4547 29.5669 21.4547C30.6545 21.4547 31.5367 22.3429 31.5367 23.4379Z" fill="#01A299"/>
<path fill-rule="evenodd" clip-rule="evenodd" d="M36.8352 28.1119L30.6914 36.851L24.5476 28.7975L36.8352 28.1119Z" fill="#2D3E4F"/>
</svg>
