<?xml version="1.0" encoding="UTF-8"?> <svg width="53px" height="62px" viewBox="0 0 53 62" version="1.1" xmlns="http://www.w3.org/2000/svg" xmlns:xlink="http://www.w3.org/1999/xlink"> <g id="Page-1" stroke="none" stroke-width="1" fill="none" fill-rule="evenodd"> <g id="Artboard-1" transform="translate(-258.000000, -774.000000)"> <g id="Group-3" transform="translate(258.217600, 774.473700)"> <path d="M52.747,26.374 C52.747,40.939 40.939,52.748 26.374,52.748 C11.808,52.748 3.19744231e-14,40.939 3.19744231e-14,26.374 C3.19744231e-14,11.809 11.808,1.42108547e-14 26.374,1.42108547e-14 C40.939,1.42108547e-14 52.747,11.809 52.747,26.374" id="Fill-23" fill="#9965F4"></path> <polygon id="Fill-25" fill="#9965F4" points="50.8662 36.1738 39.2742 60.8148 29.3022 52.5848"></polygon> <path d="M44.8867,26.9501 C44.8867,32.2141 40.6187,36.4921 35.3447,36.4921 L17.4037,36.4921 C12.1397,36.4921 7.8607,32.2141 7.8607,26.9501 C7.8607,21.6761 12.1397,17.3961 17.4037,17.3961 L35.3447,17.3961 C40.6187,17.3961 44.8867,21.6761 44.8867,26.9501" id="Fill-27" fill="#FFFFFF"></path> <path d="M20.4629,26.9443 C20.4629,28.2263 19.4239,29.2643 18.1419,29.2643 C16.8599,29.2643 15.8209,28.2263 15.8209,26.9443 C15.8209,25.6633 16.8599,24.6243 18.1419,24.6243 C19.4239,24.6243 20.4629,25.6633 20.4629,26.9443" id="Fill-29" fill="#9965F4"></path> <path d="M28.6943,26.9443 C28.6943,28.2263 27.6553,29.2643 26.3743,29.2643 C25.0913,29.2643 24.0523,28.2263 24.0523,26.9443 C24.0523,25.6633 25.0913,24.6243 26.3743,24.6243 C27.6553,24.6243 28.6943,25.6633 28.6943,26.9443" id="Fill-31" fill="#9965F4"></path> <path d="M36.9257,26.9443 C36.9257,28.2263 35.8867,29.2643 34.6057,29.2643 C33.3237,29.2643 32.2847,28.2263 32.2847,26.9443 C32.2847,25.6633 33.3237,24.6243 34.6057,24.6243 C35.8867,24.6243 36.9257,25.6633 36.9257,26.9443" id="Fill-33" fill="#9965F4"></path> <polygon id="Fill-35" fill="#FFFFFF" points="43.166 32.412 35.93 42.635 28.694 33.214"></polygon> </g> </g> </g> </svg>