<svg width="114" height="103" viewBox="0 0 114 103" fill="none" xmlns="http://www.w3.org/2000/svg">
<path fill-rule="evenodd" clip-rule="evenodd" d="M51.6963 4.61688C25.6263 4.61688 4.41632 25.8259 4.41632 51.8969C4.41632 77.9669 25.6263 99.1769 51.6963 99.1769C77.7663 99.1769 98.9753 77.9669 98.9753 51.8969C98.9753 25.8259 77.7663 4.61688 51.6963 4.61688ZM51.6963 102.888C23.5793 102.888 0.705322 80.0129 0.705322 51.8969C0.705322 23.7799 23.5793 0.905884 51.6963 0.905884C79.8123 0.905884 102.686 23.7799 102.686 51.8969C102.686 80.0129 79.8123 102.888 51.6963 102.888Z" fill="white"/>
<path fill-rule="evenodd" clip-rule="evenodd" d="M50.084 67.2863L28.321 45.5233L30.945 42.8993L50.084 62.0383L110.674 1.44934L113.297 4.07334L50.084 67.2863Z" fill="white"/>
</svg>
