<svg width="122" height="95" viewBox="0 0 122 95" fill="none" xmlns="http://www.w3.org/2000/svg">
<path fill-rule="evenodd" clip-rule="evenodd" d="M118.783 14.7437V50.8897C118.783 57.3437 113.55 62.5757 107.092 62.5757H71.0511V82.0467H84.3511C86.1541 82.0467 87.6161 83.5087 87.6161 85.3107V88.8127C87.6161 90.6157 86.1541 92.0777 84.3511 92.0777H37.1581C35.3551 92.0777 33.8931 90.6157 33.8931 88.8127V85.3107C33.8931 83.5087 35.3551 82.0467 37.1581 82.0467H50.4591V62.5757H14.4181C7.96006 62.5757 2.72607 57.3437 2.72607 50.8897V14.7437C2.72607 8.28573 7.96006 3.05273 14.4181 3.05273H107.092C113.55 3.05273 118.783 8.28573 118.783 14.7437Z" stroke="white" stroke-width="5"/>
</svg>
