<?xml version="1.0" encoding="UTF-8"?>
<svg width="32px" height="36px" viewBox="0 0 32 36" version="1.1" xmlns="http://www.w3.org/2000/svg" xmlns:xlink="http://www.w3.org/1999/xlink">
    <!-- Generator: Sketch 64 (93537) - https://sketch.com -->
    <title>Group</title>
    <desc>Created with Sketch.</desc>
    <g id="Page-1" stroke="none" stroke-width="1" fill="none" fill-rule="evenodd">
        <g id="Artboard-1" transform="translate(-21.000000, -518.000000)" fill="#FFFFFF">
            <g id="Group" transform="translate(21.499150, 518.465700)">
                <path d="M12.83825,8.305 C10.93325,7.831 7.83825,9.081 7.30725,10.657 C6.45625,13.184 5.71125,15.768 5.20425,18.383 C4.79725,20.478 5.38525,21.271 7.29825,22.231 C7.84325,22.504 8.45125,22.652 9.02825,22.862 C10.37725,23.354 11.18125,22.797 11.68425,21.485 C11.03525,21.129 10.42225,20.793 9.80925,20.456 C13.69325,21.971 17.50425,21.993 21.37325,20.486 C20.72825,20.827 20.08325,21.168 19.44325,21.507 C19.93225,22.89 20.82325,23.363 22.12325,22.844 C23.05525,22.474 23.97925,22.057 24.84225,21.55 C25.74125,21.024 26.23025,20.207 25.99225,19.104 C25.49525,16.789 25.02025,14.471 24.48225,12.166 C23.82225,9.339 21.59625,8.497 19.09925,8.057 C18.84425,8.012 18.56025,8.133 17.90525,8.242 C18.90925,8.705 19.55625,9.004 20.20325,9.304 C16.80025,8.329 13.47725,8.543 10.12825,9.467 C10.97825,9.103 11.82725,8.739 12.83825,8.305 L12.83825,8.305 Z M30.90525,35.017 C28.10625,32.513 25.59425,30.265 23.08325,28.018 C23.00225,28.047 22.92125,28.077 22.84025,28.107 C23.04925,28.993 23.25825,29.88 23.51325,30.958 L22.07425,30.958 C16.07525,30.958 10.07525,30.963 4.07625,30.955 C1.31825,30.952 0.00825,29.658 0.00525,26.927 C-0.00175,19.29 -0.00175,11.653 0.00525,4.016 C0.00725,1.229 1.24125,0.009 4.06625,0.006 C11.65325,-0.002 19.24125,-0.002 26.82925,0.006 C29.71325,0.009 30.90325,1.223 30.90425,4.131 C30.90725,13.887 30.90525,23.643 30.90525,33.399 L30.90525,35.017 Z" id="Fill-44"></path>
                <path d="M13.93595,16.68 C13.92195,17.694 13.15995,18.496 12.22095,18.485 C11.25195,18.473 10.57195,17.707 10.57795,16.638 C10.58395,15.535 11.22395,14.869 12.26495,14.879 C13.27895,14.888 13.94995,15.611 13.93595,16.68" id="Fill-45"></path>
                <path d="M20.41195,16.5921 C20.44095,17.6321 19.74595,18.4451 18.79595,18.4831 C17.86495,18.5201 17.06695,17.7281 17.02395,16.7231 C16.98095,15.7071 17.68895,14.9111 18.66495,14.8791 C19.69695,14.8461 20.38195,15.5171 20.41195,16.5921" id="Fill-46"></path>
            </g>
        </g>
    </g>
</svg>