<svg width="32" height="36" viewBox="0 0 32 36" fill="none" xmlns="http://www.w3.org/2000/svg">
<path fill-rule="evenodd" clip-rule="evenodd" d="M13.3374 8.7707C11.4324 8.2967 8.3374 9.5467 7.8064 11.1227C6.9554 13.6497 6.2104 16.2337 5.7034 18.8487C5.2964 20.9437 5.8844 21.7367 7.7974 22.6967C8.3424 22.9697 8.9504 23.1177 9.5274 23.3277C10.8764 23.8197 11.6804 23.2627 12.1834 21.9507C11.5344 21.5947 10.9214 21.2587 10.3084 20.9217C14.1924 22.4367 18.0034 22.4587 21.8724 20.9517C21.2274 21.2927 20.5824 21.6337 19.9424 21.9727C20.4314 23.3557 21.3224 23.8287 22.6224 23.3097C23.5544 22.9397 24.4784 22.5227 25.3414 22.0157C26.2404 21.4897 26.7294 20.6727 26.4914 19.5697C25.9944 17.2547 25.5194 14.9367 24.9814 12.6317C24.3214 9.8047 22.0954 8.9627 19.5984 8.5227C19.3434 8.4777 19.0594 8.5987 18.4044 8.7077C19.4084 9.1707 20.0554 9.4697 20.7024 9.7697C17.2994 8.7947 13.9764 9.0087 10.6274 9.9327C11.4774 9.5687 12.3264 9.2047 13.3374 8.7707ZM31.4044 35.4827C28.6054 32.9787 26.0934 30.7307 23.5824 28.4837C23.5014 28.5127 23.4204 28.5427 23.3394 28.5727C23.5484 29.4587 23.7574 30.3457 24.0124 31.4237H22.5734C16.5744 31.4237 10.5744 31.4287 4.5754 31.4207C1.8174 31.4177 0.507396 30.1237 0.504396 27.3927C0.497396 19.7557 0.497396 12.1187 0.504396 4.4817C0.506396 1.6947 1.7404 0.474698 4.5654 0.471698C12.1524 0.463698 19.7404 0.463698 27.3284 0.471698C30.2124 0.474698 31.4024 1.6887 31.4034 4.5967C31.4064 14.3527 31.4044 24.1087 31.4044 33.8647V35.4827Z" fill="white"/>
<path fill-rule="evenodd" clip-rule="evenodd" d="M14.4351 17.1457C14.4211 18.1597 13.6591 18.9617 12.7201 18.9507C11.7511 18.9387 11.0711 18.1727 11.0771 17.1037C11.0831 16.0007 11.7231 15.3347 12.7641 15.3447C13.7781 15.3537 14.4491 16.0767 14.4351 17.1457Z" fill="white"/>
<path fill-rule="evenodd" clip-rule="evenodd" d="M20.9111 17.0578C20.9401 18.0978 20.2451 18.9108 19.2951 18.9488C18.3641 18.9858 17.5661 18.1938 17.5231 17.1888C17.4801 16.1728 18.1881 15.3768 19.1641 15.3448C20.1961 15.3118 20.8811 15.9828 20.9111 17.0578Z" fill="white"/>
</svg>
