<svg id="Layer_1" data-name="Layer 1" xmlns="http://www.w3.org/2000/svg" viewBox="0 0 162.63 162.63"><defs><style>.cls-1{fill:#e4e1f4;}.cls-2{fill:#8056e9;}.cls-3{fill:#f6f7f9;}.cls-4{fill:#b7a5ef;}</style></defs><title>TSDBenefitIcons</title><circle class="cls-1" cx="81.32" cy="81.32" r="81.32"/><path class="cls-2" d="M77.55,31.28,32.77,108.83a4.36,4.36,0,0,0,3.77,6.53h89.55a4.35,4.35,0,0,0,3.77-6.53L85.09,31.28A4.35,4.35,0,0,0,77.55,31.28Z"/><path class="cls-3" d="M70.32,71.43s-19,23.4,8.56,35.36c0,0-5.94-3.39-1.66-14.23s4.46-15,3.74-17.06S94.92,92,87.73,106c0,0,17.5-8.92,8.26-31.4A11,11,0,0,1,93.85,81a25.88,25.88,0,0,0-5-9.6c-3.7-4.18-3.5-11.75-2-15.59,0,0-11.86,3-14.59,20.9C72.26,76.74,70.32,75.16,70.32,71.43Z"/><circle class="cls-4" cx="81.44" cy="36.37" r="2.04"/><circle class="cls-4" cx="124.34" cy="110.47" r="2.04"/><circle class="cls-4" cx="37.61" cy="110.47" r="2.04"/></svg>