<svg id="Layer_1" data-name="Layer 1" xmlns="http://www.w3.org/2000/svg" viewBox="0 0 162.63 162.63"><defs><style>.cls-1{fill:#e4e1f4;}.cls-2{fill:#b7a5ef;}.cls-3{fill:none;stroke:#fff;stroke-linecap:round;stroke-linejoin:round;stroke-width:5.5px;}.cls-4{fill:#8056e9;}.cls-5{fill:#fff;}</style></defs><title>TSDBenefitIcons</title><circle class="cls-1" cx="81.32" cy="81.32" r="81.32"/><circle class="cls-2" cx="63.57" cy="71.24" r="34.95"/><polyline class="cls-3" points="63.57 50.43 63.57 71.24 42.78 71.24"/><path class="cls-4" d="M129,120.07c5.44-34.29-19.11-49.56-19.11-49.56A154.91,154.91,0,0,1,118,51.06c-19.71-9.19-32.24,0-32.24,0a169.26,169.26,0,0,1,8.15,19.45S69.38,85.76,74.79,120A6.25,6.25,0,0,0,81,125.26h41.88A6.19,6.19,0,0,0,129,120.07Z"/><path class="cls-5" d="M109,92a7.76,7.76,0,0,0-.94-.7,10.36,10.36,0,0,0-1.64-.84,19.63,19.63,0,0,0-2.09-.71,9,9,0,0,0-2.3-.31,5.21,5.21,0,0,0-3.09.77,2.52,2.52,0,0,0-1,2.15A2.18,2.18,0,0,0,98.54,94a5.54,5.54,0,0,0,2,1.06c.88.29,2,.6,3.29.94a23.34,23.34,0,0,1,4.43,1.52,7.2,7.2,0,0,1,2.88,2.33,6.54,6.54,0,0,1,1,3.82,7.63,7.63,0,0,1-.77,3.55,6.33,6.33,0,0,1-2.11,2.39,9.4,9.4,0,0,1-3.08,1.33,15.42,15.42,0,0,1-3.63.42,19.1,19.1,0,0,1-3.89-.4,19.85,19.85,0,0,1-3.72-1.15,17.68,17.68,0,0,1-3.26-1.8l2.22-4.34a7.79,7.79,0,0,0,1.17.85,15.68,15.68,0,0,0,2,1.06,16.08,16.08,0,0,0,2.62.89,11.48,11.48,0,0,0,2.9.37,5.7,5.7,0,0,0,3.1-.69,2.38,2.38,0,0,0,.22-3.8,7.9,7.9,0,0,0-2.35-1.15c-1-.32-2.19-.68-3.52-1.07a21.55,21.55,0,0,1-4.13-1.55,6.12,6.12,0,0,1-2.44-2.17,6.26,6.26,0,0,1-.8-3.29A7.46,7.46,0,0,1,94,88.66a7.93,7.93,0,0,1,3.42-2.74,12,12,0,0,1,4.78-.93,14.19,14.19,0,0,1,3.45.4,17.13,17.13,0,0,1,3.05,1.06,19.1,19.1,0,0,1,2.55,1.42Zm-8.07-10.62h2.45v6l-2.45.37Zm0,27.4h2.45v6.6h-2.45Zm.33-.59v-20l1.75-.4v20.43Z"/></svg>