<svg xmlns="http://www.w3.org/2000/svg" viewBox="0 0 628.75 187.34"><defs><style>.cls-1{fill:#00b1a4;fill-rule:evenodd;}.cls-2{fill:#fff;}</style></defs><g id="Layer_2" data-name="Layer 2"><g id="Layer_1-2" data-name="Layer 1"><path class="cls-1" d="M95.73,0a95.74,95.74,0,0,1,46.33,179.52c1.32-27.09,1-59.37-14.59-70.29a5,5,0,0,1-.12-1.26A33,33,0,0,0,142.16,80.5V78.24a32.82,32.82,0,0,0-9.47-23c3.79-4.62,6.54-10.53,7.13-19a76,76,0,0,1-8.78,7.4,65.47,65.47,0,0,1-13.36,7.5c-22.15,9.15-46.78,4.18-66.29-14.9C52,44.93,54.91,51,58.89,55.63a32.81,32.81,0,0,0-9,22.61V80.5A33,33,0,0,0,65,108.2q0,.81-.12,1.68a1.46,1.46,0,0,0-.16.19C47.3,123.34,48.28,162,67.87,187.34A95.74,95.74,0,0,1,95.73,0Z"/><path class="cls-2" d="M587.52,89a25,25,0,0,0-10.18,2.06,25.81,25.81,0,0,0-13.65,13.78,25.72,25.72,0,0,0,0,20,25.81,25.81,0,0,0,13.65,13.78,25.94,25.94,0,0,0,20.26,0,26.26,26.26,0,0,0,13.73-13.8,25.62,25.62,0,0,0,0-20,26.26,26.26,0,0,0-13.73-13.8A24.8,24.8,0,0,0,587.52,89Zm41.23,25.84a39.51,39.51,0,0,1-12.07,29.19,41.24,41.24,0,0,1-70.41-29.19,41.26,41.26,0,0,1,70.41-29.16,40.47,40.47,0,0,1,9,13.35,41.9,41.9,0,0,1,3.07,15.81Zm-102.19,17.9a7.41,7.41,0,0,1,7.65,7.67,7.72,7.72,0,0,1-2.42,5.65,41.18,41.18,0,0,1-56-2,39.78,39.78,0,0,1-12.07-29.19,41.19,41.19,0,0,1,41.22-41.22,39.27,39.27,0,0,1,26.9,10,7.44,7.44,0,0,1,2.64,5.8A7.63,7.63,0,0,1,532.27,95a7.36,7.36,0,0,1-5.5,2.22,7.82,7.82,0,0,1-5-1.76,27.54,27.54,0,0,0-7.87-4.8,24.25,24.25,0,0,0-9-1.64,25.11,25.11,0,0,0-10.07,2,26.37,26.37,0,0,0-8.25,5.5,25.63,25.63,0,0,0-5.56,8.22A26.12,26.12,0,0,0,481,125a25.63,25.63,0,0,0,5.56,8.22,26.37,26.37,0,0,0,8.25,5.5,26.13,26.13,0,0,0,19.07.46,26.59,26.59,0,0,0,7.8-4.75,8.09,8.09,0,0,1,4.87-1.64Zm-94,15.61v-67a7.67,7.67,0,0,1,13.07-5.49A7.81,7.81,0,0,1,448,81.37v67a7.87,7.87,0,0,1-2.31,5.51,7.69,7.69,0,0,1-10.83,0,7.56,7.56,0,0,1-2.24-5.51Zm16.69-97.65a9.05,9.05,0,1,1-9.05-9,9,9,0,0,1,9.05,9Zm-99.72,32a39.18,39.18,0,0,1,25.84-9.12A40.15,40.15,0,0,1,404.6,85.71a40.64,40.64,0,0,1,9,13.3,41.36,41.36,0,0,1,3,15.86,39.54,39.54,0,0,1-12.06,29.19,40.13,40.13,0,0,1-29.16,12.06,41.23,41.23,0,0,1-41.25-41.25V46a7.39,7.39,0,0,1,7.66-7.67,7.7,7.7,0,0,1,5.48,2.16A7.39,7.39,0,0,1,349.57,46V82.77Zm25.87,58a24.83,24.83,0,0,0,10.08-2.06,26.2,26.2,0,0,0,13.72-13.8,25.51,25.51,0,0,0,0-20,26.2,26.2,0,0,0-13.72-13.8,25.94,25.94,0,0,0-20.26,0,25.81,25.81,0,0,0-13.65,13.78,25.6,25.6,0,0,0,0,20,25.68,25.68,0,0,0,5.48,8.22,25.94,25.94,0,0,0,8.17,5.56,25,25,0,0,0,10.18,2.06ZM281.17,89A25,25,0,0,0,271,91.09a25.81,25.81,0,0,0-13.65,13.78,25.6,25.6,0,0,0,0,20A25.81,25.81,0,0,0,271,138.68a25.94,25.94,0,0,0,20.26,0,26.26,26.26,0,0,0,8.22-5.61,26.66,26.66,0,0,0,5.51-8.19,25.62,25.62,0,0,0,0-20,26.26,26.26,0,0,0-13.73-13.8A24.8,24.8,0,0,0,281.17,89Zm41.23,25.84a39.55,39.55,0,0,1-12.07,29.19,41.24,41.24,0,0,1-70.41-29.19,41.26,41.26,0,0,1,70.41-29.16,40.63,40.63,0,0,1,9,13.35A41.9,41.9,0,0,1,322.4,114.87Z"/></g></g></svg>