<svg xmlns="http://www.w3.org/2000/svg" viewBox="0 0 89.25 87.33"><defs><style>.cls-1{fill:#98d1a6;fill-rule:evenodd;}</style></defs><g id="Layer_2" data-name="Layer 2"><g id="Warstwa_1" data-name="Warstwa 1"><path class="cls-1" d="M44.63,0A44.63,44.63,0,0,1,66.22,83.68c.62-12.63.47-27.67-6.8-32.76a2.68,2.68,0,0,1-.06-.59,15.36,15.36,0,0,0,6.91-12.8V36.47a15.32,15.32,0,0,0-4.42-10.75,15,15,0,0,0,3.33-8.86,36,36,0,0,1-4.09,3.45,31.27,31.27,0,0,1-6.23,3.5c-10.33,4.26-21.81,2-30.91-6.95a15,15,0,0,0,3.5,9.07,15.31,15.31,0,0,0-4.22,10.54v1.06a15.37,15.37,0,0,0,7.08,12.91q0,.38-.06.78l-.07.09c-8.13,6.19-7.68,24.21,1.46,36A44.63,44.63,0,0,1,44.63,0Z"/></g></g></svg>