<svg width="262" height="78" viewBox="0 0 262 78" fill="none" xmlns="http://www.w3.org/2000/svg">
<g clip-path="url(#clip0_1_309)">
<path fill-rule="evenodd" clip-rule="evenodd" d="M39.8958 0C48.7389 0.00369378 57.3302 2.94284 64.3197 8.3556C71.3091 13.7684 76.3006 21.348 78.5099 29.9034C80.7191 38.4588 80.0208 47.5051 76.5248 55.6209C73.0288 63.7367 66.9331 70.462 59.1956 74.74C59.7498 63.4593 59.6157 50.0261 53.1169 45.4799C53.0796 45.3068 53.0616 45.13 53.0633 44.9529C54.9582 43.7057 56.5142 42.0086 57.5921 40.0136C58.6701 38.0185 59.2363 35.7876 59.2403 33.5204V32.5737C59.2367 28.9789 57.8174 25.5298 55.2892 22.9722C57.1102 20.7245 58.1545 17.9484 58.2659 15.0587C57.1254 16.1751 55.9033 17.2051 54.6098 18.1402C52.8791 19.3914 51.0105 20.4403 49.0406 21.2662C39.8064 25.0711 29.5442 23.0526 21.4095 15.0587C21.5233 18.0312 22.6241 20.8813 24.5382 23.1597C22.1197 25.6987 20.7693 29.0686 20.7658 32.5737V33.5204C20.7707 35.8181 21.3527 38.0777 22.4585 40.0923C23.5642 42.1069 25.1584 43.8119 27.0948 45.0512C27.0948 45.2775 27.0769 45.5097 27.0412 45.7479L26.9786 45.8282C19.711 51.3569 20.1133 67.4517 28.2837 77.9821C19.1464 75.1911 11.3151 69.2162 6.21381 61.144C1.11254 53.0718 -0.919844 43.4385 0.486241 33.9958C1.89233 24.5531 6.64349 15.9281 13.8758 9.68936C21.108 3.45061 30.341 0.0124146 39.8958 0V0Z" fill="#74EED1"/>
<path d="M244.819 37.0663C243.359 37.0649 241.916 37.3692 240.582 37.9595C238.01 39.0597 235.968 41.116 234.887 43.6936C234.329 45.0135 234.042 46.4318 234.042 47.8647C234.042 49.2975 234.329 50.7158 234.887 52.0357C235.422 53.3154 236.199 54.4799 237.176 55.4655C238.155 56.4423 239.31 57.2243 240.582 57.7698C241.915 58.3399 243.35 58.6338 244.801 58.6338C246.251 58.6338 247.687 58.3399 249.02 57.7698C250.306 57.2007 251.468 56.3878 252.444 55.3762C253.424 54.403 254.212 53.2548 254.768 51.9911C255.329 50.6764 255.617 49.2623 255.617 47.8334C255.617 46.4045 255.329 44.9903 254.768 43.6757C253.667 41.0985 251.62 39.0404 249.047 37.9237C247.724 37.336 246.293 37.0318 244.846 37.0306L244.819 37.0663ZM262 47.7843C262.042 50.0451 261.618 52.2904 260.753 54.3802C259.889 56.47 258.603 58.3596 256.976 59.9313C254.572 62.3342 251.509 63.9707 248.174 64.6337C244.838 65.2968 241.381 64.9567 238.24 63.6563C235.098 62.356 232.413 60.1539 230.524 57.3287C228.636 54.5034 227.628 51.1819 227.629 47.7843C227.645 44.3943 228.666 41.085 230.561 38.2734C232.457 35.4618 235.143 33.2735 238.281 31.9843C241.419 30.695 244.869 30.3624 248.195 31.0283C251.522 31.6943 254.577 33.329 256.976 35.7266C258.584 37.3093 259.858 39.1985 260.722 41.282C261.573 43.3722 262.007 45.6082 262 47.8647V47.7843ZM219.422 55.2333C219.847 55.2217 220.27 55.2979 220.664 55.4572C221.058 55.6166 221.415 55.8555 221.712 56.1591C222.009 56.4627 222.24 56.8244 222.391 57.2215C222.541 57.6185 222.608 58.0424 222.587 58.4665C222.588 58.9076 222.5 59.3443 222.326 59.7498C222.152 60.1554 221.897 60.5211 221.577 60.8245C218.298 63.6612 214.065 65.1509 209.731 64.9934C205.396 64.836 201.283 63.0431 198.219 59.976C196.595 58.4014 195.312 56.5112 194.448 54.4221C193.584 52.333 193.157 50.0891 193.195 47.8289C193.192 45.5739 193.635 43.3406 194.498 41.2568C195.36 39.173 196.626 37.2796 198.222 35.6851C199.818 34.0905 201.713 32.8261 203.798 31.9643C205.884 31.1024 208.119 30.66 210.376 30.6623C214.509 30.5857 218.517 32.0761 221.595 34.8334C221.946 35.1279 222.228 35.4974 222.418 35.9146C222.608 36.3319 222.703 36.7865 222.694 37.2449C222.705 37.669 222.632 38.0911 222.478 38.4866C222.325 38.8822 222.094 39.2434 221.8 39.5493C221.499 39.8476 221.14 40.0808 220.744 40.2345C220.349 40.3881 219.927 40.4589 219.503 40.4425C218.744 40.4499 218.007 40.1906 217.42 39.7101C216.444 38.8676 215.336 38.1916 214.139 37.7094C212.944 37.2515 211.674 37.0213 210.394 37.0306C208.947 37.0359 207.516 37.34 206.192 37.9237C204.912 38.4556 203.744 39.2254 202.751 40.1924C201.741 41.1892 200.94 42.3763 200.393 43.6849C199.846 44.9934 199.564 46.3974 199.564 47.8155C199.564 49.2336 199.846 50.6376 200.393 51.9462C200.94 53.2548 201.741 54.4418 202.751 55.4387C203.742 56.4152 204.91 57.1943 206.192 57.7341C208.723 58.7969 211.562 58.8639 214.139 57.9217C215.331 57.4592 216.429 56.7877 217.384 55.9389C217.973 55.4988 218.688 55.2607 219.422 55.2601V55.2333ZM180.26 61.7355V33.8777C180.248 33.4562 180.321 33.0367 180.475 32.644C180.628 32.2512 180.859 31.8933 181.154 31.5912C181.754 30.9972 182.566 30.6641 183.411 30.6641C184.256 30.6641 185.067 30.9972 185.668 31.5912C186.276 32.1986 186.622 33.019 186.633 33.8777V61.7801C186.624 62.6393 186.277 63.4604 185.668 64.0666C185.372 64.364 185.02 64.5999 184.633 64.7609C184.246 64.922 183.83 65.0048 183.411 65.0048C182.991 65.0048 182.576 64.922 182.188 64.7609C181.801 64.5999 181.449 64.364 181.154 64.0666C180.859 63.7649 180.628 63.407 180.474 63.0142C180.32 62.6214 180.248 62.2017 180.26 61.7801V61.7355ZM187.223 21.0787C187.223 21.8241 187.002 22.5529 186.588 23.1727C186.173 23.7925 185.584 24.2756 184.895 24.5609C184.205 24.8462 183.447 24.9208 182.715 24.7754C181.983 24.63 181.311 24.271 180.783 23.7439C180.256 23.2167 179.897 22.5451 179.751 21.814C179.606 21.0829 179.68 20.325 179.966 19.6363C180.251 18.9476 180.735 18.3589 181.355 17.9447C181.975 17.5306 182.705 17.3095 183.451 17.3095C184.451 17.3095 185.411 17.7066 186.118 18.4135C186.826 19.1203 187.223 20.079 187.223 21.0787V21.0787ZM145.71 34.4583C148.715 31.9503 152.521 30.6034 156.437 30.6623C159.832 30.6816 163.148 31.6908 165.978 33.5661C168.808 35.4415 171.028 38.1014 172.366 41.2195C173.218 43.3184 173.646 45.5644 173.627 47.8289C173.669 50.0906 173.243 52.3365 172.377 54.4266C171.512 56.5166 170.224 58.4057 168.594 59.976C166.998 61.5715 165.102 62.8371 163.016 63.7007C160.93 64.5642 158.695 65.0086 156.437 65.0086C154.179 65.0086 151.943 64.5642 149.857 63.7007C147.771 62.8371 145.876 61.5715 144.279 59.976C142.656 58.403 141.373 56.5145 140.509 54.4268C139.645 52.3391 139.218 50.0967 139.255 47.8379V19.1316C139.24 18.7084 139.313 18.2867 139.468 17.8926C139.623 17.4985 139.857 17.1405 140.156 16.8406C140.456 16.5408 140.813 16.3056 141.207 16.1497C141.601 15.9937 142.023 15.9203 142.447 15.9341C142.868 15.925 143.287 15.9992 143.68 16.1525C144.073 16.3058 144.431 16.5351 144.735 16.8272C145.033 17.1285 145.266 17.4876 145.42 17.8824C145.574 18.2772 145.645 18.6993 145.629 19.1227V34.4583H145.71ZM156.49 58.5737C157.938 58.5749 159.37 58.2705 160.692 57.6805C161.953 57.1308 163.099 56.3491 164.071 55.3762C165.041 54.3904 165.82 53.2336 166.368 51.9643C166.922 50.6481 167.208 49.2346 167.208 47.8066C167.208 46.3786 166.922 44.9651 166.368 43.6489C165.267 41.0717 163.219 39.0136 160.647 37.897C159.311 37.3312 157.874 37.0397 156.423 37.0397C154.972 37.0397 153.536 37.3312 152.199 37.897C149.629 38.9951 147.589 41.0525 146.514 43.6311C145.956 44.951 145.668 46.3693 145.668 47.8021C145.668 49.235 145.956 50.6533 146.514 51.9732C147.581 54.5572 149.623 56.6172 152.199 57.7073C153.536 58.3009 154.983 58.6053 156.446 58.6005L156.49 58.5737ZM117.167 37.0663C115.704 37.0658 114.258 37.37 112.92 37.9595C111.65 38.5105 110.495 39.2952 109.515 40.2728C108.559 41.2495 107.798 42.3981 107.271 43.6579C106.713 44.9778 106.425 46.3961 106.425 47.8289C106.425 49.2618 106.713 50.6801 107.271 52C107.802 53.2797 108.576 54.4444 109.55 55.4298C110.531 56.4046 111.686 57.1863 112.956 57.7341C114.291 58.3054 115.728 58.5999 117.18 58.5999C118.632 58.5999 120.069 58.3054 121.404 57.7341C123.978 56.6277 126.025 54.57 127.116 51.9911C127.676 50.6764 127.965 49.2623 127.965 47.8334C127.965 46.4045 127.676 44.9903 127.116 43.6757C126.021 41.0971 123.976 39.0377 121.404 37.9237C120.081 37.3378 118.65 37.0336 117.202 37.0306L117.167 37.0663ZM134.339 47.7843C134.382 50.0453 133.959 52.2911 133.094 54.3811C132.23 56.4712 130.943 58.3606 129.315 59.9313C126.912 62.3355 123.849 63.9732 120.514 64.6369C117.179 65.3007 113.722 64.9607 110.58 63.66C107.439 62.3593 104.754 60.1565 102.867 57.3303C100.979 54.5042 99.9731 51.182 99.9764 47.7843C99.9949 44.3961 101.016 41.0891 102.911 38.2794C104.806 35.4697 107.491 33.2828 110.627 31.9938C113.763 30.7049 117.211 30.3716 120.536 31.0358C123.861 31.7 126.916 33.332 129.315 35.7266C130.926 37.307 132.2 39.1967 133.06 41.282C133.907 43.361 134.341 45.5845 134.339 47.8289V47.7843Z" fill="white"/>
</g>
<defs>
<clipPath id="clip0_1_309">
<rect width="262" height="78" fill="white"/>
</clipPath>
</defs>
</svg>
