<svg xmlns="http://www.w3.org/2000/svg" viewBox="0 0 195.89 191.68"><defs><style>.cls-1{fill-rule:evenodd;}</style></defs><g fill="#fff" id="Layer_2" data-name="Layer 2"><g id="Layer_1-2" data-name="Layer 1"><path class="cls-1" d="M98,0a98,98,0,0,1,47.39,183.68c1.35-27.72,1-60.75-14.92-71.92a5.22,5.22,0,0,1-.13-1.29,33.75,33.75,0,0,0,15.16-28.1V80.05a33.61,33.61,0,0,0-9.69-23.59c3.88-4.72,6.69-10.77,7.3-19.46a78.45,78.45,0,0,1-9,7.58,67.61,67.61,0,0,1-13.68,7.67C97.74,61.62,72.54,56.53,52.57,37c.63,9,3.61,15.13,7.68,19.91A33.59,33.59,0,0,0,51,80.05v2.32a33.76,33.76,0,0,0,15.52,28.34q0,.83-.12,1.71c-.06.06-.11.13-.17.2-17.83,13.58-16.84,53.14,3.21,79.06A98,98,0,0,1,98,0Z"/></g></g></svg>
