<svg width="256" height="76" viewBox="0 0 256 76" fill="none" xmlns="http://www.w3.org/2000/svg">
<path fill-rule="evenodd" clip-rule="evenodd" d="M38.8699 0C47.4968 0.00359989 55.8781 2.86804 62.6967 8.14322C69.5153 13.4184 74.3848 20.8053 76.54 29.1433C78.6952 37.4813 78.014 46.2977 74.6034 54.2072C71.1929 62.1167 65.2462 68.671 57.6979 72.8402C58.2386 61.8463 58.1078 48.7546 51.7678 44.3239C51.7314 44.1552 51.7139 43.9829 51.7155 43.8103C53.5641 42.5948 55.0821 40.9409 56.1336 38.9965C57.1852 37.0522 57.7376 34.878 57.7415 32.6684V31.7457C57.738 28.2423 56.3534 24.8809 53.887 22.3883C55.6635 20.1977 56.6822 17.4922 56.791 14.676C55.6783 15.7639 54.4861 16.7677 53.2242 17.6791C51.5358 18.8985 49.7129 19.9207 47.7912 20.7257C38.7827 24.4339 28.7714 22.4666 20.8355 14.676C20.9466 17.5729 22.0205 20.3506 23.8878 22.5711C21.5284 25.0455 20.211 28.3298 20.2076 31.7457V32.6684C20.2124 34.9077 20.7802 37.1099 21.8589 39.0732C22.9376 41.0366 24.4928 42.6983 26.3819 43.9061C26.3819 44.1266 26.3645 44.3529 26.3296 44.585L26.2685 44.6634C19.1786 50.0515 19.571 65.7373 27.5418 76C18.6278 73.2799 10.9879 67.4569 6.01137 59.5899C1.03482 51.7229 -0.947879 42.3344 0.423832 33.1317C1.79554 23.929 6.43055 15.5232 13.486 9.44308C20.5415 3.3629 29.5487 0.012099 38.8699 0V0Z" fill="#01A299"/>
<path d="M238.783 36.1242C237.359 36.1228 235.951 36.4193 234.649 36.9946C232.141 38.0669 230.149 40.0709 229.094 42.583C228.55 43.8693 228.269 45.2516 228.269 46.6481C228.269 48.0445 228.55 49.4268 229.094 50.7131C229.616 51.9603 230.374 53.0952 231.327 54.0557C232.282 55.0077 233.409 55.7698 234.649 56.3015C235.95 56.857 237.35 57.1434 238.765 57.1434C240.18 57.1434 241.581 56.857 242.882 56.3015C244.136 55.7468 245.27 54.9545 246.222 53.9686C247.178 53.0203 247.947 51.9012 248.489 50.6696C249.036 49.3884 249.317 48.0102 249.317 46.6176C249.317 45.225 249.036 43.8468 248.489 42.5656C247.414 40.0539 245.417 38.0481 242.908 36.9598C241.617 36.387 240.221 36.0905 238.809 36.0893L238.783 36.1242ZM255.544 46.5697C255.585 48.7731 255.171 50.9613 254.328 52.998C253.485 55.0347 252.23 56.8763 250.643 58.408C248.298 60.7498 245.309 62.3447 242.056 62.9909C238.802 63.6371 235.43 63.3056 232.365 62.0383C229.3 60.7711 226.681 58.625 224.838 55.8715C222.995 53.1181 222.012 49.881 222.013 46.5697C222.029 43.2659 223.025 40.0408 224.874 37.3006C226.723 34.5604 229.344 32.4278 232.405 31.1713C235.466 29.9148 238.831 29.5906 242.077 30.2397C245.322 30.8887 248.303 32.4818 250.643 34.8185C252.212 36.361 253.454 38.2021 254.297 40.2327C255.127 42.2697 255.551 44.449 255.544 46.6481V46.5697ZM214.007 53.8294C214.422 53.8181 214.834 53.8924 215.218 54.0476C215.603 54.2029 215.951 54.4358 216.241 54.7317C216.53 55.0276 216.756 55.38 216.903 55.767C217.05 56.154 217.115 56.5671 217.094 56.9804C217.096 57.4103 217.009 57.8359 216.84 58.2311C216.67 58.6263 216.422 58.9828 216.109 59.2784C212.91 62.0431 208.781 63.4949 204.552 63.3414C200.324 63.188 196.311 61.4407 193.322 58.4515C191.738 56.9169 190.486 55.0748 189.644 53.0388C188.801 51.0028 188.385 48.816 188.421 46.6132C188.419 44.4155 188.851 42.239 189.692 40.2081C190.534 38.1773 191.768 36.332 193.325 34.778C194.882 33.224 196.73 31.9918 198.765 31.1518C200.8 30.3118 202.98 29.8807 205.182 29.883C209.214 29.8083 213.124 31.2608 216.126 33.948C216.47 34.235 216.744 34.5951 216.93 35.0018C217.115 35.4085 217.207 35.8514 217.199 36.2983C217.21 36.7116 217.138 37.1229 216.989 37.5084C216.839 37.8939 216.614 38.2459 216.327 38.5441C216.033 38.8348 215.683 39.062 215.297 39.2118C214.912 39.3615 214.499 39.4305 214.086 39.4145C213.346 39.4217 212.626 39.1691 212.054 38.7007C211.102 37.8797 210.02 37.2209 208.853 36.7509C207.687 36.3047 206.448 36.0803 205.199 36.0893C203.788 36.0946 202.392 36.3909 201.101 36.9598C199.852 37.4781 198.712 38.2284 197.743 39.1708C196.758 40.1423 195.977 41.2992 195.443 42.5745C194.909 43.8498 194.635 45.2181 194.635 46.6002C194.635 47.9822 194.909 49.3506 195.443 50.6258C195.977 51.9011 196.758 53.0581 197.743 54.0296C198.71 54.9813 199.849 55.7405 201.101 56.2667C203.569 57.3024 206.339 57.3677 208.853 56.4494C210.016 55.9987 211.088 55.3442 212.019 54.517C212.593 54.0882 213.29 53.8561 214.007 53.8555V53.8294ZM175.802 60.1663V33.0166C175.791 32.6059 175.862 32.197 176.012 31.8142C176.162 31.4315 176.387 31.0826 176.674 30.7882C177.26 30.2094 178.051 29.8847 178.876 29.8847C179.701 29.8847 180.492 30.2094 181.078 30.7882C181.671 31.3802 182.009 32.1797 182.02 33.0166V60.2098C182.011 61.0471 181.672 61.8473 181.078 62.4382C180.789 62.728 180.446 62.958 180.069 63.1149C179.691 63.2718 179.285 63.3526 178.876 63.3526C178.467 63.3526 178.061 63.2718 177.684 63.1149C177.306 62.958 176.963 62.728 176.674 62.4382C176.386 62.1442 176.161 61.7953 176.011 61.4125C175.861 61.0297 175.79 60.6207 175.802 60.2098V60.1663ZM182.595 20.5429C182.595 21.2694 182.38 21.9796 181.975 22.5837C181.571 23.1878 180.996 23.6586 180.324 23.9366C179.651 24.2147 178.911 24.2874 178.197 24.1457C177.483 24.0039 176.828 23.6541 176.313 23.1404C175.798 22.6266 175.448 21.9721 175.306 21.2595C175.164 20.547 175.237 19.8084 175.515 19.1372C175.794 18.466 176.266 17.8923 176.871 17.4886C177.476 17.085 178.187 16.8696 178.915 16.8696C179.891 16.8696 180.827 17.2566 181.518 17.9455C182.208 18.6343 182.595 19.5687 182.595 20.5429V20.5429ZM142.097 33.5824C145.028 31.1382 148.742 29.8255 152.561 29.883C155.874 29.9017 159.109 30.8853 161.869 32.713C164.63 34.5407 166.796 37.133 168.102 40.1718C168.932 42.2173 169.35 44.4063 169.331 46.6132C169.372 48.8174 168.957 51.0063 168.113 53.0432C167.268 55.08 166.011 56.9212 164.421 58.4515C162.864 60.0065 161.015 61.24 158.98 62.0815C156.945 62.9231 154.764 63.3563 152.561 63.3563C150.359 63.3563 148.177 62.9231 146.142 62.0815C144.107 61.24 142.259 60.0065 140.701 58.4515C139.118 56.9186 137.866 55.078 137.023 53.0434C136.18 51.0088 135.764 48.8234 135.8 46.6219V18.6453C135.786 18.2329 135.856 17.8219 136.007 17.4378C136.159 17.0538 136.387 16.7048 136.679 16.4126C136.971 16.1204 137.32 15.8912 137.704 15.7392C138.089 15.5872 138.5 15.5157 138.913 15.529C139.325 15.5202 139.734 15.5925 140.117 15.7419C140.5 15.8913 140.85 16.1148 141.146 16.3995C141.437 16.6931 141.664 17.0431 141.814 17.4279C141.964 17.8126 142.034 18.224 142.018 18.6366V33.5824H142.097ZM152.614 57.0849C154.026 57.0861 155.423 56.7894 156.712 56.2144C157.942 55.6786 159.061 54.9168 160.009 53.9686C160.955 53.0079 161.715 51.8805 162.25 50.6435C162.791 49.3608 163.069 47.9831 163.069 46.5915C163.069 45.1998 162.791 43.8222 162.25 42.5395C161.175 40.0278 159.178 38.022 156.669 36.9337C155.365 36.3823 153.964 36.0982 152.548 36.0982C151.133 36.0982 149.731 36.3823 148.428 36.9337C145.92 38.0039 143.93 40.009 142.881 42.5221C142.337 43.8084 142.056 45.1907 142.056 46.5871C142.056 47.9836 142.337 49.3658 142.881 50.6522C143.922 53.1704 145.915 55.1782 148.428 56.2405C149.732 56.819 151.143 57.1157 152.57 57.111L152.614 57.0849ZM114.251 36.1242C112.825 36.1236 111.414 36.4201 110.109 36.9946C108.87 37.5316 107.743 38.2964 106.786 39.2491C105.855 40.201 105.112 41.3204 104.598 42.5482C104.053 43.8345 103.773 45.2168 103.773 46.6132C103.773 48.0097 104.053 49.3919 104.598 50.6783C105.115 51.9255 105.871 53.0606 106.821 54.0209C107.778 54.9709 108.905 55.7328 110.144 56.2667C111.446 56.8234 112.848 57.1105 114.264 57.1105C115.681 57.1105 117.083 56.8234 118.385 56.2667C120.896 55.1884 122.893 53.183 123.957 50.6696C124.504 49.3884 124.786 48.0102 124.786 46.6176C124.786 45.225 124.504 43.8468 123.957 42.5656C122.889 40.0525 120.894 38.0454 118.385 36.9598C117.094 36.3888 115.698 36.0923 114.286 36.0893L114.251 36.1242ZM131.004 46.5697C131.046 48.7733 130.633 50.962 129.79 52.9989C128.947 55.0358 127.691 56.8772 126.103 58.408C123.759 60.7511 120.771 62.3471 117.517 62.994C114.264 63.6409 110.891 63.3096 107.826 62.0419C104.761 60.7743 102.143 58.6274 100.301 55.8731C98.4595 53.1188 97.4782 49.881 97.4815 46.5697C97.4995 43.2677 98.4956 40.0447 100.344 37.3064C102.193 34.5681 104.812 32.4368 107.872 31.1806C110.931 29.9245 114.295 29.5996 117.539 30.2469C120.783 30.8942 123.762 32.4848 126.103 34.8185C127.674 36.3587 128.917 38.2004 129.757 40.2327C130.583 42.2589 131.006 44.4259 131.004 46.6132V46.5697Z" fill="#EBEBEB"/>
</svg>
