<svg width="90" height="88" viewBox="0 0 90 88" fill="none" xmlns="http://www.w3.org/2000/svg">
<g clip-path="url(#clip0_181_58)">
<path fill-rule="evenodd" clip-rule="evenodd" d="M44.63 0C54.5225 0.00413561 64.1332 3.29485 71.9521 9.35506C79.7709 15.4153 85.3548 23.9015 87.8262 33.4803C90.2975 43.0591 89.5164 53.1875 85.6055 62.2741C81.6946 71.3606 74.8756 78.8903 66.22 83.68C66.84 71.05 66.69 56.01 59.42 50.92C59.3782 50.7262 59.3581 50.5283 59.36 50.33C61.4798 48.9336 63.2204 47.0335 64.4262 44.7998C65.6321 42.5661 66.2656 40.0684 66.27 37.53V36.47C66.266 32.4452 64.6782 28.5836 61.85 25.72C63.8871 23.2035 65.0553 20.0953 65.18 16.86C63.9041 18.1099 62.537 19.2631 61.09 20.31C59.1539 21.7109 57.0636 22.8852 54.86 23.81C44.53 28.07 33.05 25.81 23.95 16.86C24.0774 20.1881 25.3088 23.3791 27.45 25.93C24.7445 28.7726 23.2338 32.5457 23.23 36.47V37.53C23.2355 40.1025 23.8865 42.6324 25.1235 44.888C26.3605 47.1435 28.1438 49.0525 30.31 50.44C30.31 50.6933 30.29 50.9533 30.25 51.22L30.18 51.31C22.05 57.5 22.5 75.52 31.64 87.31C21.4184 84.1851 12.6578 77.4955 6.95115 68.4578C1.24455 59.4201 -1.02901 48.6344 0.543929 38.0622C2.11687 27.49 7.43182 17.8334 15.5223 10.8484C23.6128 3.86335 33.9414 0.0138996 44.63 0V0Z" fill="#37DCB4"/>
</g>
<defs>
<clipPath id="clip0_181_58">
<rect width="89.25" height="87.33" fill="white"/>
</clipPath>
</defs>
</svg>
