<svg width="386" height="212" viewBox="0 0 386 212" fill="none" xmlns="http://www.w3.org/2000/svg">
<path fill-rule="evenodd" clip-rule="evenodd" d="M346.482 74.893V211.174H0.491943V74.893C0.491943 47.92 22.3499 26.052 49.3239 26.052H297.65C324.614 26.052 346.481 47.92 346.481 74.892L346.482 74.893Z" fill="#01A299"/>
<path fill-rule="evenodd" clip-rule="evenodd" d="M385.181 52.003V211.174H20.4031V52.004C20.4031 23.565 43.4481 0.51001 71.8861 0.51001H333.698C362.125 0.51001 385.181 23.566 385.181 52.003Z" fill="white"/>
<path fill-rule="evenodd" clip-rule="evenodd" d="M49.54 27.0701C49.0798 27.0699 48.624 27.1605 48.1988 27.3365C47.7735 27.5125 47.3871 27.7706 47.0617 28.096C46.7362 28.4214 46.478 28.8077 46.3018 29.2329C46.1257 29.6581 46.035 30.1138 46.035 30.5741V66.1041C46.0349 66.5644 46.1254 67.0202 46.3015 67.4455C46.4776 67.8708 46.7358 68.2573 47.0613 68.5828C47.3868 68.9083 47.7732 69.1664 48.1985 69.3425C48.6238 69.5186 49.0797 69.6092 49.54 69.6091H354.769C355.229 69.6092 355.685 69.5186 356.11 69.3425C356.536 69.1664 356.922 68.9082 357.247 68.5827C357.573 68.2572 357.831 67.8707 358.007 67.4454C358.183 67.0201 358.273 66.5643 358.273 66.1041V30.5741C358.273 30.1139 358.183 29.6582 358.007 29.233C357.83 28.8078 357.572 28.4215 357.247 28.0961C356.922 27.7707 356.535 27.5126 356.11 27.3365C355.685 27.1605 355.229 27.0699 354.769 27.0701H49.539H49.54ZM44 30.5741C44 29.1048 44.5837 27.6956 45.6226 26.6567C46.6616 25.6177 48.0707 25.0341 49.54 25.0341H354.769C357.829 25.0341 360.308 27.5141 360.308 30.5741V66.1041C360.308 69.1641 357.829 71.6441 354.769 71.6441H49.539C48.0699 71.6438 46.661 71.06 45.6223 70.0211C44.5835 68.9822 44 67.5732 44 66.1041V30.5741V30.5741Z" fill="#01A299"/>
<path fill-rule="evenodd" clip-rule="evenodd" d="M67.423 38.642L68.863 40.081L60.47 48.475L68.591 56.597L67.152 58.036L57.592 48.475L67.423 38.642Z" fill="#BABABA"/>
<path fill-rule="evenodd" clip-rule="evenodd" d="M59.03 47.322H75.258V49.357H59.03V47.322ZM346.016 38.642L347.455 40.082L339.062 48.475L347.184 56.597L345.745 58.037L336.184 48.475L346.016 38.642Z" fill="#BABABA"/>
<path fill-rule="evenodd" clip-rule="evenodd" d="M329.501 38.642L339.061 48.204L329.23 58.036L327.791 56.597L336.183 48.204L328.062 40.081L329.501 38.642Z" fill="#BABABA"/>
<path fill-rule="evenodd" clip-rule="evenodd" d="M106.082 195.363V211.175H44.4351V195.363C44.4351 188.781 49.7661 183.449 56.3491 183.449H94.1691C100.751 183.449 106.082 188.781 106.082 195.363Z" fill="#BABABA"/>
<g clip-path="url(#clip0_188_265)">
<path fill-rule="evenodd" clip-rule="evenodd" d="M261.387 114.583H265.447V110.35H261.387V114.583ZM282.729 109.035C282.729 107.276 281.994 106.58 279.964 106.58H276.872V111.471H279.964C281.994 111.471 282.729 110.794 282.729 109.035ZM284.468 109.035C284.468 111.857 283.154 113.056 280.081 113.056H276.872V118.139H275.132V104.996H280.081C283.154 104.996 284.468 106.213 284.468 109.035ZM291.873 107.973V109.654H291.37C289.746 109.654 288.838 110.486 288.509 112.399V118.139H286.809V108.165H288.258L288.335 110.022C288.838 108.611 289.746 107.973 291.196 107.973H291.873ZM300.108 113.906V112.379C300.108 110.369 299.257 109.422 297.499 109.422C295.739 109.422 294.888 110.369 294.888 112.379V113.906C294.888 115.916 295.739 116.883 297.499 116.883C299.257 116.883 300.108 115.916 300.108 113.906ZM293.188 113.964V112.341C293.188 109.441 294.676 107.933 297.499 107.933C300.32 107.933 301.809 109.441 301.809 112.341V113.964C301.809 116.863 300.32 118.37 297.499 118.37C294.676 118.37 293.188 116.863 293.188 113.964ZM310.856 114.622V111.684C310.199 110.253 309.174 109.422 307.899 109.422C306.526 109.422 305.714 110.369 305.714 112.147V114.157C305.714 115.935 306.526 116.883 307.899 116.883C309.174 116.883 310.199 116.052 310.856 114.622ZM312.557 104.029V118.139H311.107L311.049 116.555C310.199 117.81 309.136 118.37 307.686 118.37C305.367 118.37 304.014 116.94 304.014 114.215V112.089C304.014 109.363 305.367 107.934 307.686 107.934C309.02 107.934 310.044 108.417 310.856 109.479V104.029H312.557ZM323.653 108.165V118.139H322.204L322.145 116.555C321.276 117.811 320.194 118.37 318.783 118.37C316.675 118.37 315.613 117.114 315.613 114.718V108.165H317.313V114.563C317.313 116.129 317.893 116.806 319.091 116.806C320.29 116.806 321.218 116.109 321.952 114.641V108.165H323.653ZM326.361 114.138V112.166C326.361 109.403 327.81 107.934 330.516 107.934C333.029 107.934 334.421 109.21 334.498 111.625H332.855C332.739 110.022 331.927 109.422 330.536 109.422C328.854 109.422 328.061 110.292 328.061 112.205V114.099C328.061 116.013 328.854 116.883 330.536 116.883C331.927 116.883 332.739 116.284 332.855 114.68H334.498C334.421 117.096 333.029 118.37 330.516 118.37C327.81 118.37 326.361 116.903 326.361 114.138ZM341.631 116.671V118.139H340.085C338.171 118.139 337.36 117.211 337.36 115.027V109.558H335.639V108.165H337.398L337.533 105.537H339.061V108.165H341.515V109.558H339.061V115.047C339.061 116.342 339.351 116.671 340.49 116.671H341.631ZM343.584 118.139H345.285V108.165H343.584V118.139ZM343.507 106.369H345.362V104.474H343.507V106.369ZM355.936 108.165L352.438 118.139H350.602L347.103 108.165H348.92L351.548 116.013L354.178 108.165H355.936ZM357.754 118.139H359.455V108.165H357.754V118.139ZM357.677 106.369H359.532V104.474H357.677V106.369ZM367.304 116.671V118.139H365.757C363.844 118.139 363.032 117.211 363.032 115.027V109.558H361.312V108.165H363.071L363.206 105.537H364.733V108.165H367.188V109.558H364.733V115.047C364.733 116.342 365.023 116.671 366.163 116.671H367.304ZM376.525 108.165L372.621 119.337C372.002 121.096 371.305 121.656 369.779 121.656H368.774V120.187H369.624C370.398 120.187 370.726 119.956 370.997 119.144L371.461 117.753L367.866 108.165H369.682L372.33 115.53L374.785 108.165H376.525ZM127.614 137.123C127.614 140.1 125.913 141.568 122.897 141.568C119.979 141.568 118.375 140.196 118.336 137.935H119.999C120.056 139.249 121.119 140.022 122.879 140.022C124.83 140.022 125.913 139.075 125.913 137.162C125.913 135.287 124.869 134.301 123.013 134.301C121.95 134.301 121.099 134.63 120.327 135.307H118.761L119.206 128.193H127.014V129.797H120.732L120.481 133.683C121.255 133.064 122.221 132.755 123.4 132.755C126.067 132.755 127.614 134.301 127.614 137.123ZM164.786 139.733V141.337H156.63V139.733H159.858V130.435C158.775 131.19 157.539 131.344 156.243 131.383V129.876C157.905 129.818 159.065 129.315 159.935 128.194H161.558V139.733H164.786ZM174.491 137.084V132.446C174.491 130.474 173.564 129.508 171.67 129.508C169.775 129.508 168.847 130.474 168.847 132.446V137.084C168.847 139.057 169.775 140.022 171.67 140.022C173.564 140.022 174.491 139.057 174.491 137.084ZM167.146 137.2V132.33C167.146 129.488 168.731 127.961 171.67 127.961C174.607 127.961 176.192 129.488 176.192 132.33V137.2C176.192 140.042 174.607 141.568 171.67 141.568C168.731 141.568 167.146 140.042 167.146 137.2ZM186.128 137.084V132.446C186.128 130.474 185.201 129.508 183.307 129.508C181.412 129.508 180.484 130.474 180.484 132.446V137.084C180.484 139.057 181.412 140.022 183.307 140.022C185.201 140.022 186.128 139.057 186.128 137.084ZM178.783 137.2V132.33C178.783 129.488 180.368 127.961 183.307 127.961C186.244 127.961 187.829 129.488 187.829 132.33V137.2C187.829 140.042 186.244 141.568 183.307 141.568C180.368 141.568 178.783 140.042 178.783 137.2ZM194.152 136.66L192.432 138.456V141.337H190.731V127.226H192.432V136.272L197.032 131.363H199.158L195.331 135.422L199.236 141.337H197.206L194.152 136.66ZM209.868 136.099H205.886V140.313H204.378V136.099H200.396V134.63H204.378V130.416H205.886V134.63H209.868V136.099ZM138.608 132.588L142.64 133.326L139.602 136.077L140.146 140.141L136.589 138.101L132.894 139.874L133.735 135.861L130.907 132.895L134.982 132.454L136.93 128.848L138.608 132.588ZM118.335 194.033H253.268V190.008H118.335V194.033ZM118.336 183.97H199.236V179.946H118.336V183.97ZM258.738 194.033H262.763V190.008H258.738V194.033ZM267.887 194.033H364.308V190.008H267.887V194.033Z" fill="#BABABA"/>
</g>
<g clip-path="url(#clip1_188_265)">
<path fill-rule="evenodd" clip-rule="evenodd" d="M261.387 126.583H265.447V122.35H261.387V126.583ZM282.729 121.035C282.729 119.276 281.994 118.58 279.964 118.58H276.872V123.471H279.964C281.994 123.471 282.729 122.794 282.729 121.035ZM284.468 121.035C284.468 123.857 283.154 125.056 280.081 125.056H276.872V130.139H275.132V116.996H280.081C283.154 116.996 284.468 118.213 284.468 121.035ZM291.873 119.973V121.654H291.37C289.746 121.654 288.838 122.486 288.509 124.399V130.139H286.809V120.165H288.258L288.335 122.022C288.838 120.611 289.746 119.973 291.196 119.973H291.873ZM300.108 125.906V124.379C300.108 122.369 299.257 121.422 297.499 121.422C295.739 121.422 294.888 122.369 294.888 124.379V125.906C294.888 127.916 295.739 128.883 297.499 128.883C299.257 128.883 300.108 127.916 300.108 125.906ZM293.188 125.964V124.341C293.188 121.441 294.676 119.933 297.499 119.933C300.32 119.933 301.809 121.441 301.809 124.341V125.964C301.809 128.863 300.32 130.37 297.499 130.37C294.676 130.37 293.188 128.863 293.188 125.964ZM310.856 126.622V123.684C310.199 122.253 309.174 121.422 307.899 121.422C306.526 121.422 305.714 122.369 305.714 124.147V126.157C305.714 127.935 306.526 128.883 307.899 128.883C309.174 128.883 310.199 128.052 310.856 126.622ZM312.557 116.029V130.139H311.107L311.049 128.555C310.199 129.81 309.136 130.37 307.686 130.37C305.367 130.37 304.014 128.94 304.014 126.215V124.089C304.014 121.363 305.367 119.934 307.686 119.934C309.02 119.934 310.044 120.417 310.856 121.479V116.029H312.557ZM323.653 120.165V130.139H322.204L322.145 128.555C321.276 129.811 320.194 130.37 318.783 130.37C316.675 130.37 315.613 129.114 315.613 126.718V120.165H317.313V126.563C317.313 128.129 317.893 128.806 319.091 128.806C320.29 128.806 321.218 128.109 321.952 126.641V120.165H323.653ZM326.361 126.138V124.166C326.361 121.403 327.81 119.934 330.516 119.934C333.029 119.934 334.421 121.21 334.498 123.625H332.855C332.739 122.022 331.927 121.422 330.536 121.422C328.854 121.422 328.061 122.292 328.061 124.205V126.099C328.061 128.013 328.854 128.883 330.536 128.883C331.927 128.883 332.739 128.284 332.855 126.68H334.498C334.421 129.096 333.029 130.37 330.516 130.37C327.81 130.37 326.361 128.903 326.361 126.138ZM341.631 128.671V130.139H340.085C338.171 130.139 337.36 129.211 337.36 127.027V121.558H335.639V120.165H337.398L337.533 117.537H339.061V120.165H341.515V121.558H339.061V127.047C339.061 128.342 339.351 128.671 340.49 128.671H341.631ZM343.584 130.139H345.285V120.165H343.584V130.139ZM343.507 118.369H345.362V116.474H343.507V118.369ZM355.936 120.165L352.438 130.139H350.602L347.103 120.165H348.92L351.548 128.013L354.178 120.165H355.936ZM357.754 130.139H359.455V120.165H357.754V130.139ZM357.677 118.369H359.532V116.474H357.677V118.369ZM367.304 128.671V130.139H365.757C363.844 130.139 363.032 129.211 363.032 127.027V121.558H361.312V120.165H363.071L363.206 117.537H364.733V120.165H367.188V121.558H364.733V127.047C364.733 128.342 365.023 128.671 366.163 128.671H367.304ZM376.525 120.165L372.621 131.337C372.002 133.096 371.305 133.656 369.779 133.656H368.774V132.187H369.624C370.398 132.187 370.726 131.956 370.997 131.144L371.461 129.753L367.866 120.165H369.682L372.33 127.53L374.785 120.165H376.525ZM127.614 149.123C127.614 152.1 125.913 153.568 122.897 153.568C119.979 153.568 118.375 152.196 118.336 149.935H119.999C120.056 151.249 121.119 152.022 122.879 152.022C124.83 152.022 125.913 151.075 125.913 149.162C125.913 147.287 124.869 146.301 123.013 146.301C121.95 146.301 121.099 146.63 120.327 147.307H118.761L119.206 140.193H127.014V141.797H120.732L120.481 145.683C121.255 145.064 122.221 144.755 123.4 144.755C126.067 144.755 127.614 146.301 127.614 149.123ZM164.786 151.733V153.337H156.63V151.733H159.858V142.435C158.775 143.19 157.539 143.344 156.243 143.383V141.876C157.905 141.818 159.065 141.315 159.935 140.194H161.558V151.733H164.786ZM174.491 149.084V144.446C174.491 142.474 173.564 141.508 171.67 141.508C169.775 141.508 168.847 142.474 168.847 144.446V149.084C168.847 151.057 169.775 152.022 171.67 152.022C173.564 152.022 174.491 151.057 174.491 149.084ZM167.146 149.2V144.33C167.146 141.488 168.731 139.961 171.67 139.961C174.607 139.961 176.192 141.488 176.192 144.33V149.2C176.192 152.042 174.607 153.568 171.67 153.568C168.731 153.568 167.146 152.042 167.146 149.2ZM186.128 149.084V144.446C186.128 142.474 185.201 141.508 183.307 141.508C181.412 141.508 180.484 142.474 180.484 144.446V149.084C180.484 151.057 181.412 152.022 183.307 152.022C185.201 152.022 186.128 151.057 186.128 149.084ZM178.783 149.2V144.33C178.783 141.488 180.368 139.961 183.307 139.961C186.244 139.961 187.829 141.488 187.829 144.33V149.2C187.829 152.042 186.244 153.568 183.307 153.568C180.368 153.568 178.783 152.042 178.783 149.2ZM194.152 148.66L192.432 150.456V153.337H190.731V139.226H192.432V148.272L197.032 143.363H199.158L195.331 147.422L199.236 153.337H197.206L194.152 148.66ZM209.868 148.099H205.886V152.313H204.378V148.099H200.396V146.63H204.378V142.416H205.886V146.63H209.868V148.099ZM138.608 144.588L142.64 145.326L139.602 148.077L140.146 152.141L136.589 150.101L132.894 151.874L133.735 147.861L130.907 144.895L134.982 144.454L136.93 140.848L138.608 144.588ZM118.335 206.033H253.268V202.008H118.335V206.033ZM118.336 195.97H199.236V191.946H118.336V195.97ZM258.738 206.033H262.763V202.008H258.738V206.033ZM267.887 206.033H364.308V202.008H267.887V206.033Z" fill="#BABABA"/>
</g>
<path d="M41 106.25C41 100.562 41 97.718 42.107 95.5454C43.0807 93.6344 44.6344 92.0807 46.5454 91.107C48.718 90 51.562 90 57.25 90H89.75C95.438 90 98.282 90 100.455 91.107C102.366 92.0807 103.919 93.6344 104.893 95.5454C106 97.718 106 100.562 106 106.25V138.75C106 144.438 106 147.282 104.893 149.455C103.919 151.366 102.366 152.919 100.455 153.893C98.282 155 95.438 155 89.75 155H57.25C51.562 155 48.718 155 46.5454 153.893C44.6344 152.919 43.0807 151.366 42.107 149.455C41 147.282 41 144.438 41 138.75V106.25Z" fill="#2D3E4F"/>
<path fill-rule="evenodd" clip-rule="evenodd" d="M73.4908 102.061C78.164 102.063 82.704 103.615 86.3976 106.475C90.0912 109.334 92.7289 113.338 93.8964 117.858C95.0639 122.378 94.6949 127.157 92.8474 131.444C90.9999 135.731 87.7787 139.284 83.6898 141.544C83.9827 135.585 83.9118 128.488 80.4775 126.087C80.4578 125.995 80.4483 125.902 80.4492 125.808C81.4505 125.15 82.2728 124.253 82.8424 123.199C83.4121 122.145 83.7113 120.967 83.7134 119.769V119.269C83.7115 117.37 82.9615 115.548 81.6254 114.196C82.5878 113.009 83.1396 111.543 83.1985 110.016C82.5958 110.606 81.95 111.15 81.2664 111.644C80.3518 112.305 79.3644 112.859 78.3234 113.295C73.4436 115.305 68.0205 114.239 63.7217 110.016C63.7819 111.586 64.3636 113.092 65.3751 114.296C64.0971 115.637 63.3834 117.417 63.3816 119.269V119.769C63.3842 120.983 63.6918 122.176 64.2761 123.241C64.8604 124.305 65.7029 125.206 66.7262 125.86C66.7262 125.98 66.7167 126.103 66.6978 126.228L66.6648 126.271C62.8242 129.191 63.0368 137.694 67.3544 143.257C62.5258 141.783 58.3874 138.626 55.6916 134.362C52.9959 130.097 51.9218 125.008 52.6649 120.02C53.4079 115.032 55.9187 110.475 59.7406 107.179C63.5624 103.884 68.4416 102.067 73.4908 102.061V102.061Z" fill="#03DAC5"/>
<path d="M97.6035 52.6465C98.1439 53.3301 98.9121 53.6719 99.9082 53.6719C100.904 53.6719 101.673 53.3301 102.213 52.6465C102.753 51.9564 103.023 50.9863 103.023 49.7363C103.023 48.4863 102.753 47.5195 102.213 46.8359C101.673 46.1458 100.904 45.8008 99.9082 45.8008C98.9121 45.8008 98.1439 46.1458 97.6035 46.8359C97.0632 47.5195 96.793 48.4863 96.793 49.7363C96.793 50.9863 97.0632 51.9564 97.6035 52.6465ZM103.453 53.7305C102.587 54.7005 101.406 55.1855 99.9082 55.1855C98.4108 55.1855 97.2259 54.7005 96.3535 53.7305C95.4876 52.7539 95.0547 51.4225 95.0547 49.7363C95.0547 48.0436 95.4876 46.7122 96.3535 45.7422C97.2194 44.7721 98.4043 44.2871 99.9082 44.2871C101.412 44.2871 102.597 44.7721 103.463 45.7422C104.329 46.7122 104.762 48.0436 104.762 49.7363C104.762 51.4225 104.326 52.7539 103.453 53.7305ZM112.633 55.1855C111.904 55.1855 111.24 55.0228 110.641 54.6973C110.048 54.3652 109.586 53.9062 109.254 53.3203H109.098V55H107.496V40.293H109.176V46.1328H109.332C109.618 45.5664 110.058 45.1172 110.65 44.7852C111.249 44.4531 111.91 44.2871 112.633 44.2871C113.974 44.2871 115.045 44.7819 115.846 45.7715C116.646 46.7611 117.047 48.0827 117.047 49.7363C117.047 51.3835 116.643 52.7051 115.836 53.7012C115.035 54.6908 113.967 55.1855 112.633 55.1855ZM112.242 45.8008C111.285 45.8008 110.527 46.1523 109.967 46.8555C109.413 47.5586 109.137 48.5189 109.137 49.7363C109.137 50.9538 109.413 51.9141 109.967 52.6172C110.527 53.3203 111.285 53.6719 112.242 53.6719C113.206 53.6719 113.958 53.3236 114.498 52.627C115.038 51.9303 115.309 50.9668 115.309 49.7363C115.309 48.5059 115.038 47.5423 114.498 46.8457C113.958 46.1491 113.206 45.8008 112.242 45.8008ZM119.723 55V44.4727H121.402V55H119.723ZM121.393 41.9922C121.165 42.2201 120.888 42.334 120.562 42.334C120.237 42.334 119.96 42.2201 119.732 41.9922C119.505 41.7578 119.391 41.4811 119.391 41.1621C119.391 40.8431 119.505 40.5697 119.732 40.3418C119.96 40.1074 120.237 39.9902 120.562 39.9902C120.888 39.9902 121.165 40.1074 121.393 40.3418C121.62 40.5697 121.734 40.8431 121.734 41.1621C121.734 41.4811 121.62 41.7578 121.393 41.9922ZM133.316 47.6953H131.617C131.474 47.1419 131.165 46.6895 130.689 46.3379C130.221 45.9798 129.625 45.8008 128.902 45.8008C127.958 45.8008 127.206 46.1523 126.646 46.8555C126.093 47.5586 125.816 48.5059 125.816 49.6973C125.816 50.9082 126.096 51.875 126.656 52.5977C127.216 53.3138 127.965 53.6719 128.902 53.6719C129.612 53.6719 130.201 53.5124 130.67 53.1934C131.145 52.8743 131.461 52.4186 131.617 51.8262H133.316C133.16 52.8223 132.695 53.6328 131.92 54.2578C131.145 54.8763 130.143 55.1855 128.912 55.1855C127.434 55.1855 126.259 54.6908 125.387 53.7012C124.514 52.7051 124.078 51.3704 124.078 49.6973C124.078 48.0566 124.514 46.7448 125.387 45.7617C126.259 44.7786 127.431 44.2871 128.902 44.2871C130.133 44.2871 131.135 44.6094 131.91 45.2539C132.691 45.8984 133.16 46.7122 133.316 47.6953ZM137.818 52.6465C138.359 53.3301 139.127 53.6719 140.123 53.6719C141.119 53.6719 141.887 53.3301 142.428 52.6465C142.968 51.9564 143.238 50.9863 143.238 49.7363C143.238 48.4863 142.968 47.5195 142.428 46.8359C141.887 46.1458 141.119 45.8008 140.123 45.8008C139.127 45.8008 138.359 46.1458 137.818 46.8359C137.278 47.5195 137.008 48.4863 137.008 49.7363C137.008 50.9863 137.278 51.9564 137.818 52.6465ZM143.668 53.7305C142.802 54.7005 141.62 55.1855 140.123 55.1855C138.626 55.1855 137.441 54.7005 136.568 53.7305C135.702 52.7539 135.27 51.4225 135.27 49.7363C135.27 48.0436 135.702 46.7122 136.568 45.7422C137.434 44.7721 138.619 44.2871 140.123 44.2871C141.627 44.2871 142.812 44.7721 143.678 45.7422C144.544 46.7122 144.977 48.0436 144.977 49.7363C144.977 51.4225 144.54 52.7539 143.668 53.7305Z" fill="black"/>
<path d="M129.758 111.385V109.422C129.758 105.633 127.668 103.387 124.436 103.387C121.203 103.387 119.074 105.633 119.074 109.422V111.385C119.074 115.154 121.164 117.283 124.396 117.283C127.639 117.283 129.758 115.154 129.758 111.385ZM128.049 109.412V111.385C128.049 114.373 126.477 115.75 124.416 115.75C122.365 115.75 120.783 114.373 120.783 111.385V109.412C120.783 106.434 122.365 104.92 124.416 104.92C126.477 104.92 128.049 106.434 128.049 109.412ZM137.082 117.166C139.553 117.166 141.174 115.33 141.174 112.361V111.365C141.174 108.279 139.494 106.58 137.102 106.58C135.803 106.58 134.611 107.254 134.084 108.143H134.035V102.967H132.355V117H133.967V115.457H134.016C134.621 116.512 135.617 117.166 137.082 117.166ZM136.877 115.701C135.08 115.701 134.016 114.48 134.016 112.254V111.463C134.016 109.236 135.09 108.045 136.877 108.045C138.41 108.045 139.484 109.246 139.484 111.463V112.273C139.484 114.471 138.42 115.701 136.877 115.701ZM143.615 104.266C143.615 104.861 144.094 105.33 144.689 105.33C145.285 105.33 145.773 104.861 145.773 104.266C145.773 103.66 145.285 103.191 144.689 103.191C144.094 103.191 143.615 103.66 143.615 104.266ZM143.85 117H145.529V106.736H143.85V117ZM148.225 112.332C148.225 115.066 149.758 117.166 152.482 117.166C154.836 117.166 156.125 115.936 156.467 114.178H154.816C154.631 114.998 153.879 115.682 152.6 115.682C150.959 115.682 149.904 114.354 149.904 112.342V111.385C149.904 109.314 150.891 108.055 152.59 108.055C153.703 108.055 154.514 108.846 154.738 109.715H156.389C156.301 108.143 154.855 106.57 152.482 106.57C149.807 106.57 148.225 108.553 148.225 111.316V112.332ZM162.814 106.57C159.943 106.57 158.4 108.65 158.4 111.395V112.312C158.4 115.096 159.934 117.166 162.814 117.166C165.695 117.166 167.209 115.096 167.209 112.312V111.395C167.209 108.65 165.686 106.57 162.814 106.57ZM162.814 108.006C164.572 108.006 165.529 109.354 165.529 111.453V112.254C165.529 114.354 164.572 115.711 162.814 115.711C161.047 115.711 160.08 114.344 160.08 112.254V111.453C160.08 109.354 161.047 108.006 162.814 108.006Z" fill="#01A299"/>
<g clip-path="url(#clip2_188_265)">
<path fill-rule="evenodd" clip-rule="evenodd" d="M177.052 113.554H181.112V109.321H177.052V113.554ZM198.394 108.006C198.394 106.247 197.659 105.551 195.629 105.551H192.537V110.442H195.629C197.659 110.442 198.394 109.765 198.394 108.006ZM200.133 108.006C200.133 110.828 198.819 112.027 195.746 112.027H192.537V117.11H190.797V103.967H195.746C198.819 103.967 200.133 105.184 200.133 108.006ZM207.538 106.944V108.625H207.035C205.411 108.625 204.503 109.457 204.174 111.37V117.11H202.474V107.136H203.923L204 108.993C204.503 107.582 205.411 106.944 206.861 106.944H207.538ZM215.773 112.877V111.35C215.773 109.34 214.922 108.393 213.164 108.393C211.404 108.393 210.553 109.34 210.553 111.35V112.877C210.553 114.887 211.404 115.854 213.164 115.854C214.922 115.854 215.773 114.887 215.773 112.877ZM208.853 112.935V111.312C208.853 108.412 210.341 106.904 213.164 106.904C215.985 106.904 217.474 108.412 217.474 111.312V112.935C217.474 115.834 215.985 117.341 213.164 117.341C210.341 117.341 208.853 115.834 208.853 112.935ZM226.521 113.593V110.655C225.864 109.224 224.839 108.393 223.564 108.393C222.191 108.393 221.379 109.34 221.379 111.118V113.128C221.379 114.906 222.191 115.854 223.564 115.854C224.839 115.854 225.864 115.023 226.521 113.593ZM228.222 103V117.11H226.772L226.714 115.526C225.864 116.781 224.801 117.341 223.351 117.341C221.032 117.341 219.679 115.911 219.679 113.186V111.06C219.679 108.334 221.032 106.905 223.351 106.905C224.685 106.905 225.709 107.388 226.521 108.45V103H228.222ZM239.318 107.136V117.11H237.869L237.81 115.526C236.941 116.782 235.859 117.341 234.448 117.341C232.34 117.341 231.278 116.085 231.278 113.689V107.136H232.978V113.534C232.978 115.1 233.558 115.777 234.756 115.777C235.955 115.777 236.883 115.08 237.617 113.612V107.136H239.318ZM242.026 113.109V111.137C242.026 108.374 243.475 106.905 246.181 106.905C248.694 106.905 250.086 108.181 250.163 110.596H248.52C248.404 108.993 247.592 108.393 246.201 108.393C244.519 108.393 243.726 109.263 243.726 111.176V113.07C243.726 114.984 244.519 115.854 246.201 115.854C247.592 115.854 248.404 115.255 248.52 113.651H250.163C250.086 116.067 248.694 117.341 246.181 117.341C243.475 117.341 242.026 115.874 242.026 113.109ZM257.296 115.642V117.11H255.75C253.836 117.11 253.025 116.182 253.025 113.998V108.529H251.304V107.136H253.063L253.198 104.508H254.726V107.136H257.18V108.529H254.726V114.018C254.726 115.313 255.016 115.642 256.155 115.642H257.296ZM259.249 117.11H260.95V107.136H259.249V117.11ZM259.172 105.34H261.027V103.445H259.172V105.34ZM271.601 107.136L268.103 117.11H266.267L262.768 107.136H264.585L267.213 114.984L269.843 107.136H271.601ZM273.419 117.11H275.12V107.136H273.419V117.11ZM273.342 105.34H275.197V103.445H273.342V105.34ZM282.969 115.642V117.11H281.422C279.509 117.11 278.697 116.182 278.697 113.998V108.529H276.977V107.136H278.736L278.871 104.508H280.398V107.136H282.853V108.529H280.398V114.018C280.398 115.313 280.688 115.642 281.828 115.642H282.969ZM292.19 107.136L288.286 118.308C287.667 120.067 286.97 120.627 285.444 120.627H284.439V119.158H285.289C286.063 119.158 286.391 118.927 286.662 118.115L287.126 116.724L283.531 107.136H285.347L287.995 114.501L290.45 107.136H292.19ZM43.279 136.094C43.279 139.071 41.578 140.539 38.562 140.539C35.644 140.539 34.04 139.167 34.001 136.906H35.664C35.721 138.22 36.784 138.993 38.544 138.993C40.495 138.993 41.578 138.046 41.578 136.133C41.578 134.258 40.534 133.272 38.678 133.272C37.615 133.272 36.764 133.601 35.992 134.278H34.426L34.871 127.164H42.679V128.768H36.397L36.146 132.654C36.92 132.035 37.886 131.726 39.065 131.726C41.732 131.726 43.279 133.272 43.279 136.094ZM80.451 138.704V140.308H72.295V138.704H75.523V129.406C74.44 130.161 73.204 130.315 71.908 130.354V128.847C73.57 128.789 74.73 128.286 75.6 127.165H77.223V138.704H80.451ZM90.156 136.055V131.417C90.156 129.445 89.229 128.479 87.335 128.479C85.44 128.479 84.512 129.445 84.512 131.417V136.055C84.512 138.028 85.44 138.993 87.335 138.993C89.229 138.993 90.156 138.028 90.156 136.055ZM82.811 136.171V131.301C82.811 128.459 84.396 126.932 87.335 126.932C90.272 126.932 91.857 128.459 91.857 131.301V136.171C91.857 139.013 90.272 140.539 87.335 140.539C84.396 140.539 82.811 139.013 82.811 136.171ZM101.793 136.055V131.417C101.793 129.445 100.866 128.479 98.972 128.479C97.077 128.479 96.149 129.445 96.149 131.417V136.055C96.149 138.028 97.077 138.993 98.972 138.993C100.866 138.993 101.793 138.028 101.793 136.055ZM94.448 136.171V131.301C94.448 128.459 96.033 126.932 98.972 126.932C101.909 126.932 103.494 128.459 103.494 131.301V136.171C103.494 139.013 101.909 140.539 98.972 140.539C96.033 140.539 94.448 139.013 94.448 136.171ZM109.817 135.631L108.097 137.427V140.308H106.396V126.197H108.097V135.243L112.697 130.334H114.823L110.996 134.393L114.901 140.308H112.871L109.817 135.631ZM125.533 135.07H121.551V139.284H120.043V135.07H116.061V133.601H120.043V129.387H121.551V133.601H125.533V135.07ZM54.273 131.559L58.305 132.297L55.267 135.048L55.811 139.112L52.254 137.072L48.559 138.845L49.4 134.832L46.572 131.866L50.647 131.425L52.595 127.819L54.273 131.559ZM34 193.004H168.933V188.979H34V193.004ZM34.001 182.941H114.901V178.917H34.001V182.941ZM174.403 193.004H178.428V188.979H174.403V193.004ZM183.552 193.004H279.973V188.979H183.552V193.004Z" fill="#BABABA"/>
</g>
<defs>
<clipPath id="clip0_188_265">
<rect width="259" height="34" fill="white" transform="translate(118 122)"/>
</clipPath>
<clipPath id="clip1_188_265">
<rect width="259" height="31" fill="white" transform="translate(118 175)"/>
</clipPath>
<clipPath id="clip2_188_265">
<rect width="121" height="20" fill="white" transform="translate(171 103)"/>
</clipPath>
</defs>
</svg>
