<svg width="139" height="279" viewBox="0 0 139 279" fill="none" xmlns="http://www.w3.org/2000/svg">
<path fill-rule="evenodd" clip-rule="evenodd" d="M113.443 274.828H25.3784C13.8874 274.828 4.57336 265.514 4.57336 254.024V25.3775C4.57336 13.8885 13.8874 4.57349 25.3784 4.57349H113.443C124.932 4.57349 134.247 13.8885 134.247 25.3775V254.024C134.247 265.514 124.932 274.828 113.443 274.828Z" fill="#2C3E4F"/>
<path fill-rule="evenodd" clip-rule="evenodd" d="M113.443 274.828H25.3784C13.8874 274.828 4.57336 265.514 4.57336 254.024V25.3775C4.57336 13.8885 13.8874 4.57349 25.3784 4.57349H113.443C124.932 4.57349 134.247 13.8885 134.247 25.3775V254.024C134.247 265.514 124.932 274.828 113.443 274.828Z" stroke="#282828" stroke-width="7.659"/>
<path d="M26.6055 25.2933L21.8285 30.0703L26.3325 34.5753" stroke="white" stroke-width="1.035" stroke-linecap="round" stroke-linejoin="round"/>
<path d="M39.4269 30.8105V22.5087H40.6048V29.9299H44.3406V30.8105H39.4269ZM45.5859 30.8105V24.7188H46.6909V30.8105H45.5859ZM45.5859 23.6138V22.5087H46.6909V23.6138H45.5859ZM48.9066 30.8105V24.7188H50.0116V25.8631C50.595 25.0105 51.3093 24.5842 52.1544 24.5842C52.6817 24.5842 53.1024 24.7525 53.4165 25.089C53.7306 25.4219 53.8877 25.8706 53.8877 26.4353V30.8105H52.7827V26.7943C52.7827 26.3418 52.7153 26.0202 52.5807 25.8295C52.4498 25.635 52.2311 25.5378 51.9244 25.5378C51.2476 25.5378 50.61 25.9809 50.0116 26.8672V30.8105H48.9066ZM56.0417 30.8105V21.9534H57.1467V27.6749L59.727 24.7188H60.9162L58.4537 27.5627L61.4266 30.8105H60.0131L57.1467 27.6862V30.8105H56.0417ZM66.3628 30.8105V22.5087H68.6234C69.6256 22.5087 70.3455 22.6789 70.783 23.0192C71.2205 23.3558 71.4393 23.9111 71.4393 24.6852C71.4393 25.5677 71.1401 26.2595 70.5418 26.7606C69.9435 27.2617 69.1133 27.5123 68.0512 27.5123H67.5296V30.8105H66.3628ZM67.5296 26.6204H68.0064C68.7057 26.6204 69.246 26.4596 69.6275 26.138C70.0089 25.8164 70.1996 25.362 70.1996 24.7749C70.1996 24.2776 70.05 23.9223 69.7509 23.7091C69.4517 23.496 68.9525 23.3894 68.2532 23.3894H67.5296V26.6204ZM72.7462 30.8105V24.7188H73.8513V25.8631C74.2888 25.0105 74.9245 24.5842 75.7585 24.5842C75.8706 24.5842 75.9884 24.5935 76.1118 24.6122V25.6444C75.9211 25.5808 75.7528 25.549 75.607 25.549C74.9077 25.549 74.3225 25.9641 73.8513 26.7943V30.8105H72.7462ZM77.4469 30.8105V24.7188H78.5519V30.8105H77.4469ZM77.4469 23.6138V22.5087H78.5519V23.6138H77.4469ZM80.7676 30.8105V24.7188H81.8726V25.8631C82.456 25.0105 83.1702 24.5842 84.0154 24.5842C84.5427 24.5842 84.9634 24.7525 85.2775 25.089C85.5916 25.4219 85.7487 25.8706 85.7487 26.4353V30.8105H84.6436V26.7943C84.6436 26.3418 84.5763 26.0202 84.4417 25.8295C84.3108 25.635 84.092 25.5378 83.7854 25.5378C83.1085 25.5378 82.4709 25.9809 81.8726 26.8672V30.8105H80.7676ZM89.7313 30.9508C89.1704 30.9508 88.7328 30.79 88.4187 30.4684C88.1046 30.1468 87.9475 29.6999 87.9475 29.1277V25.549H87.1847V24.7188H87.9475V23.6138L89.0526 23.5072V24.7188H90.6456V25.549H89.0526V28.9258C89.0526 29.7223 89.3966 30.1206 90.0847 30.1206C90.2305 30.1206 90.4081 30.0963 90.6176 30.0477V30.8105C90.2773 30.904 89.9818 30.9508 89.7313 30.9508ZM96.6644 30.6142C95.924 30.8386 95.2901 30.9508 94.7629 30.9508C93.8654 30.9508 93.1324 30.6535 92.564 30.0589C91.9993 29.4606 91.717 28.6865 91.717 27.7366C91.717 26.813 91.9657 26.0557 92.463 25.4649C92.9641 24.874 93.6036 24.5786 94.3814 24.5786C95.1181 24.5786 95.6865 24.8404 96.0867 25.3639C96.4905 25.8874 96.6925 26.6316 96.6925 27.5964L96.6869 27.9386H92.8445C93.0053 29.3858 93.7139 30.1094 94.9704 30.1094C95.4304 30.1094 95.995 29.986 96.6644 29.7392V30.6142ZM92.8949 27.1084H95.5818C95.5818 25.9753 95.1592 25.4088 94.3141 25.4088C93.4652 25.4088 92.9922 25.9753 92.8949 27.1084ZM98.6052 30.8105V24.7188H99.7103V25.8631C100.148 25.0105 100.784 24.5842 101.617 24.5842C101.73 24.5842 101.847 24.5935 101.971 24.6122V25.6444C101.78 25.5808 101.612 25.549 101.466 25.549C100.767 25.549 100.181 25.9641 99.7103 26.7943V30.8105H98.6052Z" fill="white"/>
<path fill-rule="evenodd" clip-rule="evenodd" d="M49.3711 44.4148C49.3711 46.3968 47.7641 48.0038 45.7821 48.0038C43.8001 48.0038 42.1931 46.3968 42.1931 44.4148C42.1931 42.4328 43.8001 40.8258 45.7821 40.8258C47.7641 40.8258 49.3711 42.4328 49.3711 44.4148Z" fill="#00B1A4"/>
<path fill-rule="evenodd" clip-rule="evenodd" d="M65.1611 44.4134C65.1611 46.3954 63.5531 48.0044 61.5701 48.0044C59.5881 48.0044 57.9821 46.3954 57.9821 44.4134C57.9821 42.4344 59.5881 40.8254 61.5701 40.8254C62.5331 40.8254 63.4071 41.2034 64.0531 41.8224C64.2981 42.0564 64.5121 42.3284 64.6821 42.6244C64.9881 43.1514 65.1611 43.7634 65.1611 44.4134Z" fill="#00B1A4"/>
<path fill-rule="evenodd" clip-rule="evenodd" d="M80.9492 44.4148C80.9492 46.3968 79.3432 48.0038 77.3602 48.0038C75.3792 48.0038 73.7712 46.3968 73.7712 44.4148C73.7712 42.4328 75.3792 40.8258 77.3602 40.8258C79.3432 40.8258 80.9492 42.4328 80.9492 44.4148Z" fill="#00B1A4"/>
<path fill-rule="evenodd" clip-rule="evenodd" d="M96.628 44.4148C96.628 46.3968 95.022 48.0038 93.039 48.0038C91.057 48.0038 89.45 46.3968 89.45 44.4148C89.45 42.4328 91.057 40.8258 93.039 40.8258C95.022 40.8258 96.628 42.4328 96.628 44.4148Z" fill="#00B1A4"/>
<path d="M49.3711 44.4148H57.9821" stroke="#00B1A4" stroke-width="0.467"/>
<path d="M65.1602 44.4148H73.7712" stroke="#00B1A4" stroke-width="0.467"/>
<path d="M80.9492 44.4148H89.5612" stroke="#00B1A4" stroke-width="0.467"/>
<path d="M43.7324 43.2269L45.4694 44.9639L50.5194 39.9139" stroke="white" stroke-width="1.532"/>
<path d="M59.5684 43.2269L61.3054 44.9639L66.3544 39.9139" stroke="white" stroke-width="1.532"/>
<path d="M75.4033 43.2269L77.1403 44.9639L82.1903 39.9139" stroke="white" stroke-width="1.532"/>
<path fill-rule="evenodd" clip-rule="evenodd" d="M105.313 85.3675H33.5074C30.3284 85.3675 27.7504 82.7895 27.7504 79.6105C27.7504 76.4315 30.3284 73.8545 33.5074 73.8545H105.313C108.492 73.8545 111.069 76.4315 111.069 79.6105C111.069 82.7895 108.492 85.3675 105.313 85.3675Z" fill="white"/>
<path fill-rule="evenodd" clip-rule="evenodd" d="M108.191 101.122H30.6295C29.0405 101.122 27.7515 99.8335 27.7515 98.2445C27.7515 96.6545 29.0405 95.3655 30.6295 95.3655H108.191C109.781 95.3655 111.069 96.6545 111.069 98.2445C111.069 99.8335 109.781 101.122 108.191 101.122Z" fill="white"/>
<path fill-rule="evenodd" clip-rule="evenodd" d="M108.191 112.029H30.6295C29.0405 112.029 27.7515 110.74 27.7515 109.151C27.7515 107.561 29.0405 106.273 30.6295 106.273H108.191C109.781 106.273 111.069 107.561 111.069 109.151C111.069 110.74 109.781 112.029 108.191 112.029Z" fill="white"/>
<path fill-rule="evenodd" clip-rule="evenodd" d="M109.631 126.083H29.1909C28.3959 126.083 27.7509 125.438 27.7509 124.644C27.7509 123.849 28.3959 123.205 29.1909 123.205H109.631C110.426 123.205 111.069 123.849 111.069 124.644C111.069 125.438 110.426 126.083 109.631 126.083Z" fill="#DDD3D6"/>
<path fill-rule="evenodd" clip-rule="evenodd" d="M109.631 133.553H29.1909C28.3959 133.553 27.7509 132.908 27.7509 132.114C27.7509 131.319 28.3959 130.675 29.1909 130.675H109.631C110.426 130.675 111.069 131.319 111.069 132.114C111.069 132.908 110.426 133.553 109.631 133.553Z" fill="#DDD3D6"/>
<path fill-rule="evenodd" clip-rule="evenodd" d="M110.35 173.458H28.4705C28.0735 173.458 27.7505 173.136 27.7505 172.738C27.7505 172.341 28.0735 172.019 28.4705 172.019H110.35C110.747 172.019 111.069 172.341 111.069 172.738C111.069 173.136 110.747 173.458 110.35 173.458Z" fill="#C1C4C8"/>
<path fill-rule="evenodd" clip-rule="evenodd" d="M111.069 163.241H27.7513C24.0703 163.241 21.0863 160.257 21.0863 156.576V148.093C21.0863 144.411 24.0703 141.427 27.7513 141.427H111.069C114.751 141.427 117.735 144.411 117.735 148.093V156.576C117.735 160.257 114.751 163.241 111.069 163.241Z" fill="#1A1A1A"/>
<path fill-rule="evenodd" clip-rule="evenodd" d="M95.3906 248.757H43.4306C40.6276 248.757 38.3556 246.485 38.3556 243.682V234.154C38.3556 231.352 40.6276 229.079 43.4306 229.079H95.3906C98.1936 229.079 100.466 231.352 100.466 234.154V243.682C100.466 246.485 98.1936 248.757 95.3906 248.757Z" fill="#00B1A4"/>
<path fill-rule="evenodd" clip-rule="evenodd" d="M36.3017 156.945L34.5517 153.798L32.9637 156.945H30.7947L33.4257 152.13L30.8897 147.722H33.2367L34.8767 150.652L36.3827 147.722H38.5527L36.0027 152.374L38.6477 156.945H36.3017Z" fill="white"/>
<path fill-rule="evenodd" clip-rule="evenodd" d="M50.122 156.945L48.373 153.798L46.786 156.945H44.615L47.247 152.13L44.711 147.722H47.058L48.698 150.652L50.203 147.722H52.374L49.824 152.374L52.469 156.945H50.122Z" fill="white"/>
<path fill-rule="evenodd" clip-rule="evenodd" d="M63.9433 156.945L62.1943 153.798L60.6063 156.945H58.4363L61.0683 152.13L58.5323 147.722H60.8783L62.5183 150.652L64.0243 147.722H66.1953L63.6443 152.374L66.2903 156.945H63.9433Z" fill="white"/>
<path fill-rule="evenodd" clip-rule="evenodd" d="M77.7646 156.945L76.0146 153.798L74.4276 156.945H72.2576L74.8886 152.13L72.3526 147.722H74.6996L76.3396 150.652L77.8456 147.722H80.0156L77.4656 152.374L80.1106 156.945H77.7646Z" fill="white"/>
<path fill-rule="evenodd" clip-rule="evenodd" d="M91.5849 156.945L89.8359 153.798L88.2479 156.945H86.0779L88.7099 152.13L86.1739 147.722H88.5199L90.1609 150.652L91.6659 147.722H93.8369L91.2869 152.374L93.9319 156.945H91.5849Z" fill="white"/>
<path fill-rule="evenodd" clip-rule="evenodd" d="M105.406 156.945L103.656 153.798L102.07 156.945H99.8992L102.531 152.13L99.9942 147.722H102.341L103.981 150.652L105.487 147.722H107.658L105.107 152.374L107.752 156.945H105.406Z" fill="white"/>
<path fill-rule="evenodd" clip-rule="evenodd" d="M41.2489 160.203H42.0569V145.155H41.2489V160.203Z" fill="#6D6D6D"/>
<path fill-rule="evenodd" clip-rule="evenodd" d="M55.387 160.203H56.196V145.155H55.387V160.203Z" fill="#6D6D6D"/>
<path fill-rule="evenodd" clip-rule="evenodd" d="M69.5259 160.203H70.3349V145.155H69.5259V160.203Z" fill="#6D6D6D"/>
<path fill-rule="evenodd" clip-rule="evenodd" d="M83.6659 160.203H84.4739V145.155H83.6659V160.203Z" fill="#6D6D6D"/>
<path fill-rule="evenodd" clip-rule="evenodd" d="M97.804 160.203H98.612V145.155H97.804V160.203Z" fill="#6D6D6D"/>
</svg>
